<svg width="136" height="334" viewBox="0 0 136 334" fill="none" xmlns="http://www.w3.org/2000/svg">
<path d="M9.07795 320.986L4.27121 322.704C2.91044 323.195 2 324.481 2 325.934V328.574C2 330.469 3.52719 332 5.4166 332H40.6889C46.1026 332 51.4771 331.146 56.6265 329.458L57.1355 329.291C58.976 328.692 60.8556 330.066 60.8556 332H77.0869C78.9372 332 80.435 330.498 80.435 328.643V323.676C80.435 322.125 79.2994 320.819 77.7722 320.603L56.0587 317.56L9.06816 320.976L9.07795 320.986Z" fill="#5EE96A" stroke="black" stroke-width="3" stroke-linecap="round" stroke-linejoin="round"/>
<path d="M5.42652 323.519H77.5472C77.5472 323.519 84.6251 303.758 70.2245 289.828H46.9838C46.9838 289.828 43.1951 293.882 36.6263 297.171C30.0574 300.459 4.30071 302.236 5.43631 323.519H5.42652Z" fill="#5EE96A" stroke="black" stroke-width="3" stroke-linecap="round" stroke-linejoin="round"/>
<path d="M23.7231 301.255C27.7663 302.6 31.1144 305.898 32.5241 309.933" stroke="black" stroke-width="3" stroke-linecap="round" stroke-linejoin="round"/>
<path d="M30.9385 299.036C31.379 299.105 31.7902 299.301 32.1916 299.507C33.9635 300.43 35.6767 301.52 37.057 302.963C38.4374 304.406 39.4947 306.222 39.7981 308.195" stroke="black" stroke-width="3" stroke-linecap="round" stroke-linejoin="round"/>
<path d="M36.998 296.906C37.605 296.67 38.2903 296.906 38.8777 297.171C42.7348 298.918 45.7892 302.374 47.0521 306.428" stroke="black" stroke-width="3" stroke-linecap="round" stroke-linejoin="round"/>
<path d="M50.9578 320.986L46.1511 322.704C44.7903 323.195 43.8799 324.481 43.8799 325.934V328.574C43.8799 330.469 45.4071 332 47.2965 332H82.5687C87.9824 332 93.357 331.146 98.5064 329.458L99.0154 329.291C100.856 328.692 102.736 330.066 102.736 332H118.967C120.817 332 122.315 330.498 122.315 328.643V323.676C122.315 322.125 121.179 320.819 119.652 320.603L97.9386 317.56L50.948 320.976L50.9578 320.986Z" fill="#5EE96A" stroke="black" stroke-width="3" stroke-linecap="round" stroke-linejoin="round"/>
<path d="M47.2962 323.519H119.417C119.417 323.519 126.495 303.758 112.094 289.828H88.8534C88.8534 289.828 85.0648 293.882 78.4959 297.171C71.927 300.459 46.1703 302.236 47.3059 323.519H47.2962Z" fill="#5EE96A" stroke="black" stroke-width="3" stroke-linecap="round" stroke-linejoin="round"/>
<path d="M65.5933 301.255C69.6364 302.6 72.9845 305.898 74.3942 309.933" stroke="black" stroke-width="3" stroke-linecap="round" stroke-linejoin="round"/>
<path d="M72.8081 299.036C73.2486 299.105 73.6598 299.301 74.0612 299.507C75.8331 300.43 77.5463 301.52 78.9267 302.963C80.307 304.406 81.3643 306.222 81.6678 308.195" stroke="black" stroke-width="3" stroke-linecap="round" stroke-linejoin="round"/>
<path d="M78.8687 296.906C79.4756 296.67 80.1609 296.906 80.7483 297.171C84.6054 298.918 87.6598 302.374 88.9227 306.428" stroke="black" stroke-width="3" stroke-linecap="round" stroke-linejoin="round"/>
<path d="M48.7341 150.682C58.267 146.489 69.1668 146.964 79.4501 148.594C89.7245 150.225 99.9096 152.948 110.318 152.993C115.366 153.02 120.673 152.321 124.783 149.374C131.349 144.662 133.083 135.721 133.726 127.649C134.61 116.701 134.458 105.548 131.653 94.9314C128.848 84.3153 123.192 74.2277 114.553 67.4728C102.34 57.9317 85.5969 56.1041 70.2836 58.4245C62.9307 59.5443 55.4259 61.6765 49.8241 66.5859C43.2485 72.3464 40.193 81.1081 38.1113 89.6099C34.0283 106.327 32.7061 124.021 36.8426 140.729C37.3697 142.87 38.0309 145.065 39.4514 146.758C40.872 148.451 43.2485 149.508 45.3302 148.783C46.4827 149.472 47.5816 149.983 48.7341 150.673V150.682Z" fill="white" stroke="black" stroke-width="3" stroke-linecap="round" stroke-linejoin="round"/>
<path d="M76.5196 60.9689C75.9747 62.5367 76.3946 64.3285 77.3416 65.6902C78.5567 67.4282 80.8528 68.548 82.8362 67.8134C84.0959 67.3476 85.0251 66.2098 85.4896 64.9466C85.9542 63.6834 85.981 62.3038 85.8381 60.96" fill="black"/>
<path d="M76.5196 60.9689C75.9747 62.5367 76.3946 64.3285 77.3416 65.6902C78.5567 67.4282 80.8528 68.548 82.8362 67.8134C84.0959 67.3476 85.0251 66.2098 85.4896 64.9466C85.9542 63.6834 85.981 62.3038 85.8381 60.96" stroke="black" stroke-width="3" stroke-linecap="round" stroke-linejoin="round"/>
<path d="M107.423 93.2202H90.8235L81.103 67.4458L85.0252 65.9229L107.423 93.2202Z" fill="black" stroke="black" stroke-width="3" stroke-linecap="round" stroke-linejoin="round"/>
<path d="M65.8521 59.2486L73.7678 69.7573L80.1022 60.6283L71.5074 60.7358V58.2632L65.8521 59.2486Z" fill="white" stroke="black" stroke-width="3" stroke-linecap="round" stroke-linejoin="round"/>
<path d="M83.2202 60.7357L88.1787 69.7572L96.8003 59.1769L90.0103 57.5195L83.2202 60.7357Z" fill="white" stroke="black" stroke-width="3" stroke-linecap="round" stroke-linejoin="round"/>
<path d="M87.8306 93.8027H110.193" stroke="black" stroke-width="3" stroke-linecap="round" stroke-linejoin="round"/>
<path d="M81.103 67.4458V146.516" stroke="black" stroke-width="3" stroke-linecap="round" stroke-linejoin="round"/>
<path d="M117.34 147.672C120.11 144.671 121.799 106.748 118.725 87.5586" stroke="black" stroke-width="3" stroke-linecap="round" stroke-linejoin="round"/>
<path d="M10.4239 95.2096C8.24393 97.9152 7.76148 101.597 7.64533 105.073C7.52025 108.979 7.76148 112.894 8.27073 116.773C8.56556 118.977 9.05695 121.369 10.7902 122.749C13.1488 124.639 16.8923 123.672 18.9025 121.396C20.9127 119.121 21.5739 115.985 21.9223 112.966C22.4226 108.719 22.4673 104.41 22.0474 100.155C21.7704 97.3418 21.0735 93.8568 18.1252 92.7191C15.4449 91.6799 12.1482 93.0416 10.4239 95.1917V95.2096Z" fill="white" stroke="black" stroke-width="3" stroke-miterlimit="10"/>
<path d="M56.8999 75.6076H60.0537C61.3849 75.6076 62.457 76.4587 62.457 77.5069V84.9247C62.457 85.4891 62.1443 86.0177 61.5904 86.385L58.4366 88.4545C56.8731 89.4847 54.4966 88.6068 54.4966 86.9942V77.4979C54.4966 76.4497 55.5776 75.5986 56.8999 75.5986V75.6076Z" fill="#5EE96A" stroke="black" stroke-width="3" stroke-miterlimit="10"/>
<path d="M59.062 136.966L59.062 75.3658C59.062 74.0546 58.002 72.9917 56.6944 72.9917H17.9733C16.6657 72.9917 15.6057 74.0546 15.6057 75.3658L15.6057 136.966C15.6057 138.277 16.6657 139.34 17.9733 139.34H56.6944C58.002 139.34 59.062 138.277 59.062 136.966Z" fill="#5EE96A" stroke="black" stroke-width="3" stroke-miterlimit="10"/>
<path d="M14.623 98.336H35.5292C37.1017 98.336 38.3703 97.0638 38.3703 95.4871C38.3703 93.9103 37.1017 92.6382 35.5292 92.6382H14.623" fill="white"/>
<path d="M14.623 98.336H35.5292C37.1017 98.336 38.3703 97.0638 38.3703 95.4871C38.3703 93.9103 37.1017 92.6382 35.5292 92.6382H14.623" stroke="black" stroke-width="3" stroke-linecap="round" stroke-linejoin="round"/>
<path d="M14.623 104.061H35.5292C37.1017 104.061 38.3703 102.788 38.3703 101.212C38.3703 99.6349 37.1017 98.3628 35.5292 98.3628H14.623" fill="white"/>
<path d="M14.623 104.061H35.5292C37.1017 104.061 38.3703 102.788 38.3703 101.212C38.3703 99.6349 37.1017 98.3628 35.5292 98.3628H14.623" stroke="black" stroke-width="3" stroke-linecap="round" stroke-linejoin="round"/>
<path d="M14.623 109.786H35.5292C37.1017 109.786 38.3703 108.514 38.3703 106.937C38.3703 105.36 37.1017 104.088 35.5292 104.088H14.623" fill="white"/>
<path d="M14.623 109.786H35.5292C37.1017 109.786 38.3703 108.514 38.3703 106.937C38.3703 105.36 37.1017 104.088 35.5292 104.088H14.623" stroke="black" stroke-width="3" stroke-linecap="round" stroke-linejoin="round"/>
<path d="M14.623 115.6H35.5292C37.1017 115.6 38.3703 114.327 38.3703 112.751C38.3703 111.174 37.1017 109.902 35.5292 109.902H14.623" fill="white"/>
<path d="M14.623 115.6H35.5292C37.1017 115.6 38.3703 114.327 38.3703 112.751C38.3703 111.174 37.1017 109.902 35.5292 109.902H14.623" stroke="black" stroke-width="3" stroke-linecap="round" stroke-linejoin="round"/>
<path d="M42.6406 154.606V291.012C42.6406 291.012 46.7951 294.712 60.6253 294.712C74.4555 294.712 79.9948 291.935 79.9948 291.935C79.9948 291.935 83.6846 294.712 97.9795 294.712C112.274 294.712 117.349 292.634 117.349 292.634V154.615H42.6406V154.606Z" fill="white" stroke="black" stroke-width="3" stroke-linecap="round" stroke-linejoin="round"/>
<path d="M117.34 145.584H42.6406V154.606H117.34V145.584Z" fill="black" stroke="black" stroke-width="3" stroke-linecap="round" stroke-linejoin="round"/>
<path d="M79.9946 291.935V178.884" stroke="black" stroke-width="3" stroke-linecap="round" stroke-linejoin="round"/>
<path d="M69.1577 177.729L91.7525 180.264" stroke="black" stroke-width="3" stroke-linecap="round" stroke-linejoin="round"/>
<path d="M43.0339 172.811C42.891 172.73 43.0607 173.017 43.2126 172.954C46.5451 171.574 48.9305 168.466 50.1545 165.07C51.3785 161.675 51.5661 157.993 51.5215 154.382" stroke="black" stroke-width="3" stroke-linecap="round" stroke-linejoin="round"/>
<path d="M107.602 153.917C107.745 157.177 108.173 160.456 109.263 163.538C110.353 166.62 112.122 169.505 114.633 171.583C115.428 172.246 116.321 172.828 117.34 173.052" stroke="black" stroke-width="3" stroke-linecap="round" stroke-linejoin="round"/>
<path d="M111.578 278.981C113.284 280.513 115.223 281.785 117.313 282.744" stroke="black" stroke-width="3" stroke-linecap="round" stroke-linejoin="round"/>
<path d="M112.301 270.408C113.472 271.716 114.964 272.719 116.617 273.31" stroke="black" stroke-width="3" stroke-linecap="round" stroke-linejoin="round"/>
<path d="M113.204 260.705C114.419 261.744 115.803 262.577 117.296 263.15" stroke="black" stroke-width="3" stroke-linecap="round" stroke-linejoin="round"/>
<path d="M114.115 249.166C114.972 249.972 116 250.608 117.108 251.02" stroke="black" stroke-width="3" stroke-linecap="round" stroke-linejoin="round"/>
<path d="M114.83 237.125C115.258 237.69 115.937 238.066 116.652 238.12" stroke="black" stroke-width="3" stroke-linecap="round" stroke-linejoin="round"/>
<path d="M51.6499 21.1315C49.0026 22.7169 47.973 26.5145 49.4438 29.2244C49.9126 30.0909 50.5928 30.8283 51.2639 31.5565C51.7419 32.0819 52.229 32.6072 52.707 33.1326C53.2034 33.6765 53.709 34.2203 54.3157 34.6351C55.7865 35.6214 57.7352 35.7043 59.4082 35.1421C61.0812 34.5798 62.5152 33.4368 63.7194 32.1372C64.6938 31.0864 65.5671 29.8973 65.9715 28.5239C66.376 27.1505 66.2657 25.5651 65.42 24.4129C65.5395 24.5696 66.7896 21.5462 66.8356 21.2236C67.0194 19.9608 66.8448 18.6151 66.2841 17.4629C65.0339 14.9096 62.1935 13.9694 59.5829 13.4717C55.621 12.7159 48.4418 16.2462 51.6407 21.1315H51.6499Z" fill="black" stroke="black" stroke-width="3" stroke-linecap="round" stroke-linejoin="round"/>
<path d="M91.2231 60.9324H69.6855V54.5078C69.6855 54.5078 58.9581 57.697 58.4893 47.1799C58.0205 36.6627 53.2681 26.4405 58.4893 19.3061C63.7105 12.1718 99.8271 2.36433 94.0451 40.1192C93.1167 46.1844 91.2231 60.9324 91.2231 60.9324Z" fill="white" stroke="black" stroke-width="3" stroke-linecap="round" stroke-linejoin="round"/>
<path d="M82.2787 18.4306C75.2099 18.025 68.1134 18.237 61.0813 19.085C60.2724 19.1864 59.4359 19.2878 58.6545 19.0389C57.2481 18.5965 56.4208 17.1678 55.8417 15.8128C55.1523 14.2182 54.6007 12.4392 55.0512 10.7616C55.5016 9.08402 57.2849 7.66452 58.9303 8.21757C59.7208 8.48488 60.5757 9.13932 61.2652 8.66923C61.5501 8.47566 61.6972 8.14383 61.8443 7.83043C63.9677 3.40603 70.1541 1.53488 74.3642 4.05126C74.6675 4.23561 74.9892 4.43839 75.3477 4.43839C75.7522 4.43839 76.0923 4.17108 76.414 3.93143C78.179 2.61332 80.3851 1.80218 82.5729 2.04184C84.7607 2.28149 86.8657 3.68256 87.6195 5.74728C89.081 4.28169 91.7376 4.79787 93.1532 6.31876C94.5688 7.83965 95.0101 10.0058 95.2491 12.0613C95.4605 11.2409 96.5544 10.946 97.3265 11.287C98.0987 11.628 98.5859 12.3839 98.9903 13.1305C101.288 17.3706 102.07 22.7628 99.7165 26.9752C99.3029 27.7218 98.7973 28.4224 98.5399 29.2243C98.1171 30.5239 98.3745 31.9342 98.3101 33.2984C98.1814 36.0913 96.5544 38.6814 94.2379 40.1931C90.9379 42.3408 89.366 39.4373 87.7114 36.6352C84.4573 31.1323 83.3359 24.6524 82.2879 18.4306H82.2787Z" fill="black" stroke="black" stroke-width="3" stroke-linecap="round" stroke-linejoin="round"/>
<path d="M88.7314 39.1237C90.1838 36.3677 94.0997 35.2708 96.7471 36.8931C99.3945 38.5153 100.203 42.5434 98.3466 45.0413C96.5725 47.4287 92.7485 47.9172 90.432 46.0553C90.2849 45.9354 90.1287 45.8064 89.9448 45.8248C89.761 45.8433 89.6323 46.1198 89.7886 46.212" fill="white"/>
<path d="M88.7314 39.1237C90.1838 36.3677 94.0997 35.2708 96.7471 36.8931C99.3945 38.5153 100.203 42.5434 98.3466 45.0413C96.5725 47.4287 92.7485 47.9172 90.432 46.0553C90.2849 45.9354 90.1287 45.8064 89.9448 45.8248C89.761 45.8433 89.6323 46.1198 89.7886 46.212" stroke="black" stroke-width="3" stroke-linecap="round" stroke-linejoin="round"/>
<path d="M58.1582 43.41C57.0276 43.705 55.8786 44.0552 54.9409 44.765C53.893 45.5577 53.1852 46.7928 53.0289 48.1017C52.9554 48.7377 53.0014 49.4106 53.2955 49.9913C53.8379 51.0513 55.0972 51.5767 56.2922 51.6136C57.4872 51.6505 58.6454 51.3002 59.8129 51.0513C64.2711 50.1019 68.8765 50.6089 73.4266 50.9039C75.403 51.0329 77.6827 50.9868 78.9328 49.4475C79.2913 49.005 79.5303 48.4704 79.6958 47.9266C80.137 46.4887 80.2106 44.2027 78.7398 43.3547C77.1128 42.4145 74.0977 42.4237 72.25 42.2578C67.5344 41.843 62.7452 42.221 58.1582 43.4008V43.41Z" fill="#F1662F" stroke="black" stroke-width="3" stroke-linecap="round" stroke-linejoin="round"/>
<path d="M76.5424 47.9452C74.6121 45.9726 71.6889 45.3643 68.9404 45.2352C64.142 45.014 59.2977 46.0003 54.9773 48.0834C54.389 48.3692 53.7272 48.6826 53.1021 48.4798C52.5965 48.3231 52.238 47.8438 52.0634 47.3368C51.6497 46.1017 52.2104 44.7006 53.148 43.7973C54.0857 42.894 55.3266 42.3962 56.5584 41.9815C63.1309 39.7693 70.5123 39.3913 76.8917 42.1197C77.8937 42.5437 78.8865 43.0691 79.5759 43.9171C80.2653 44.7651 80.5687 45.9911 80.0723 46.9589" fill="#F1662F"/>
<path d="M76.5424 47.9452C74.6121 45.9726 71.6889 45.3643 68.9404 45.2352C64.142 45.014 59.2977 46.0003 54.9773 48.0834C54.389 48.3692 53.7272 48.6826 53.1021 48.4798C52.5965 48.3231 52.238 47.8438 52.0634 47.3368C51.6497 46.1017 52.2104 44.7006 53.148 43.7973C54.0857 42.894 55.3266 42.3962 56.5584 41.9815C63.1309 39.7693 70.5123 39.3913 76.8917 42.1197C77.8937 42.5437 78.8865 43.0691 79.5759 43.9171C80.2653 44.7651 80.5687 45.9911 80.0723 46.9589" stroke="black" stroke-width="3" stroke-linecap="round" stroke-linejoin="round"/>
<path d="M65.567 32.7358C65.3096 33.4917 64.8775 34.1738 64.6569 34.9388C64.4363 35.7039 64.4823 36.6256 65.0614 37.1695C65.567 37.6488 66.3299 37.7041 67.0285 37.7225" stroke="black" stroke-width="3" stroke-linecap="round" stroke-linejoin="round"/>
<path d="M59.4816 23.8227C59.3346 25.2607 59.8401 26.7631 60.8329 27.8139C61.8257 28.8647 63.2873 29.4546 64.7396 29.3809C66.0449 29.3164 67.3319 28.6988 68.1132 27.648C68.8026 26.7262 68.9865 25.2699 68.1408 24.4956C67.2675 23.6845 65.6681 24.1453 65.1533 25.2238C64.6385 26.3022 65.0981 27.6756 66.0174 28.4315C66.9366 29.1873 68.2051 29.4177 69.3909 29.2979C70.8801 29.1504 72.3049 28.5052 73.3988 27.4913C74.5846 26.3852 75.3567 24.5048 74.4743 23.1406" stroke="black" stroke-width="3" stroke-linecap="round" stroke-linejoin="round"/>
</svg>
