<svg width="245" height="321" viewBox="0 0 245 321" fill="none" xmlns="http://www.w3.org/2000/svg">
<path d="M28.5933 160.322C28.5528 158.72 28.4448 156.942 27.3241 155.797C26.5816 155.043 25.5149 154.693 24.4618 154.464C20.9784 153.723 17.2789 154.06 13.9981 155.434C12.3644 156.121 10.7982 157.09 9.81255 158.558C8.25987 160.888 8.48939 163.918 8.77293 166.692C10.2716 181.317 11.7838 195.929 13.2825 210.554C13.5795 213.395 13.917 216.358 15.4967 218.742C18.5211 223.294 24.7723 224.075 30.2405 224.331C48.6162 225.179 67.0594 224.91 85.3946 223.509C87.3253 223.361 89.3506 223.172 90.9303 222.068C93.2526 220.466 93.9681 217.422 94.4947 214.648C97.7621 197.329 100.098 179.849 101.502 162.288C101.678 160.039 101.745 157.494 100.179 155.851C98.2752 153.872 95.0618 154.289 92.3749 154.855C90.6737 155.218 88.905 155.595 87.5144 156.646C84.5575 158.868 84.2875 163.11 84.2605 166.786C84.1525 180.213 83.7339 193.639 82.9913 207.053C82.9238 208.386 82.7753 209.854 81.8032 210.769C80.8851 211.631 79.5079 211.712 78.2388 211.753C64.6966 212.116 51.1275 211.793 37.6124 210.783C35.1551 210.594 32.3333 210.163 31.0911 208.049C30.4835 207.012 30.389 205.746 30.308 204.548C29.4034 189.842 28.5933 175.082 28.5933 160.309V160.322Z" fill="white" stroke="black" stroke-width="3" stroke-linecap="round" stroke-linejoin="round"/>
<path d="M7.71985 165.911C9.36705 166.41 11.1223 166.383 12.837 166.356C33.2784 166.019 53.7334 165.682 74.1748 165.346C81.3172 165.224 88.4731 165.117 95.6154 164.996C98.4913 164.955 101.448 164.888 104.121 163.837C106.795 162.787 109.185 160.498 109.509 157.656C109.819 155.003 108.266 152.39 106.147 150.761C104.027 149.131 101.394 148.323 98.8018 147.664C82.2083 143.448 64.8047 144.351 47.7117 145.28C40.5828 145.67 33.4539 146.061 26.3251 146.452C20.3574 146.775 10.6362 146.169 5.66761 150.168C0.374972 154.424 0.604499 163.77 7.70635 165.925L7.71985 165.911Z" fill="white" stroke="black" stroke-width="3" stroke-linecap="round" stroke-linejoin="round"/>
<path d="M136.364 264.409C135.391 264.032 134.311 264.032 133.272 264.045C120.864 264.194 108.456 264.517 96.0612 264.988C95.2376 265.015 94.3735 265.055 93.6444 265.446C91.9972 266.321 91.6597 268.476 91.5112 270.335C91.3627 272.193 91.2276 274.051 91.0791 275.923C91.0251 276.583 90.9981 277.31 91.3896 277.849C91.9027 278.549 92.9153 278.617 93.7929 278.617C105.971 278.59 118.163 278.455 130.328 278.024C133.596 277.903 136.904 278.213 138.713 275.075C140.522 271.937 140.009 265.863 136.364 264.423V264.409Z" fill="white" stroke="black" stroke-width="3" stroke-linecap="round" stroke-linejoin="round"/>
<path d="M98.3159 235.522C98.6804 244.626 99.0315 253.73 99.396 262.833C99.4365 263.951 99.5175 265.163 100.26 266.011C101.03 266.887 102.299 267.116 103.473 267.25C111.75 268.274 120.134 268.409 128.438 267.614C129.586 267.506 130.895 267.277 131.462 266.281C131.813 265.675 131.786 264.948 131.759 264.247C131.435 257.15 131.098 250.053 130.774 242.956C130.463 236.155 132.232 229.583 124.252 228.318C117.421 227.24 97.9243 225.449 98.3159 235.509V235.522Z" fill="white" stroke="black" stroke-width="3" stroke-linecap="round" stroke-linejoin="round"/>
<path d="M123.105 258.874C125.414 260.18 128.128 260.786 130.774 260.598" stroke="black" stroke-width="3" stroke-linecap="round" stroke-linejoin="round"/>
<path d="M125.211 252.248C126.926 253.096 128.87 253.474 130.788 253.298" stroke="black" stroke-width="3" stroke-linecap="round" stroke-linejoin="round"/>
<path d="M126.265 244.249C127.115 244.976 128.263 245.38 129.384 245.326" stroke="black" stroke-width="3" stroke-linecap="round" stroke-linejoin="round"/>
<path d="M164.96 3.4867C147.179 3.00189 129.41 2.51708 111.629 2.04574C104.405 1.84373 96.1559 2.08614 91.4709 7.56719C88.352 11.2167 87.6769 16.2938 87.1774 21.0745C82.6408 63.5762 80.3455 106.32 80.332 149.064C80.332 160.053 80.4806 171.056 81.6417 181.978C82.3303 188.442 83.5184 195.189 87.5554 200.306C93.5501 207.888 104.081 209.868 113.681 211.147C144.492 215.268 175.532 217.625 206.613 218.217C208.543 218.258 210.569 218.258 212.27 217.355C215.888 215.416 216.334 210.514 216.347 206.407C216.482 170.356 219.345 134.358 223.841 98.6037C226.109 80.558 228.809 62.5797 231.78 44.6417C233.224 35.9824 234.278 27.0673 236.357 18.5293C237.045 15.7012 238.301 14.0448 235.911 11.8497C233.238 9.39869 227 9.07548 223.584 8.40214C204.304 4.57752 184.578 4.03885 164.987 3.51364L164.96 3.4867Z" fill="white" stroke="black" stroke-width="3" stroke-linecap="round" stroke-linejoin="round"/>
<path d="M199.483 207.525C192.544 198.758 189.492 187.432 188.831 176.281C188.169 165.131 189.735 153.98 191.126 142.897C196.135 103.089 199.119 62.8628 208.948 23.9568C210.298 18.5835 212.202 12.6984 217.049 10.0051C220.141 8.28129 223.854 8.22742 227.391 8.29476C230.78 8.36209 234.331 8.5641 237.22 10.3283C240.623 12.4022 242.513 16.3615 243.04 20.3073C243.566 24.2531 242.918 28.2528 242.27 32.1716C233.494 85.9452 226.419 139.988 221.046 194.192C220.505 199.606 219.979 205.06 218.588 210.326C217.441 214.676 215.51 219.483 210.744 217.342C206.41 215.389 202.373 211.174 199.483 207.511V207.525Z" fill="black" stroke="black" stroke-width="3" stroke-linecap="round" stroke-linejoin="round"/>
<path d="M166.188 209.329C163.988 206.07 160.639 203.74 157.142 201.922C154.617 200.616 151.971 199.525 149.23 198.784C145.18 197.694 140.967 197.37 136.795 197.047C130.288 196.549 123.766 196.051 117.258 195.566C95.6424 193.923 73.9183 192.28 52.3292 194.125C44.2147 194.825 36.0732 196.024 28.4988 199.013C20.9244 202.003 13.9306 206.891 9.56956 213.746C5.20854 220.601 3.81787 229.556 7.01776 237.017C54.5975 236.142 102.177 235.266 149.77 234.391C154.806 234.297 165.527 234.512 168.659 229.354C171.616 224.479 169.105 213.625 166.202 209.329H166.188Z" fill="white" stroke="black" stroke-width="3" stroke-linecap="round" stroke-linejoin="round"/>
<path d="M18.5756 228.277C18.076 230.337 18.211 232.546 18.9671 234.526" stroke="black" stroke-width="3" stroke-linecap="round" stroke-linejoin="round"/>
<path d="M28.6069 228.937C27.7293 231.267 28.3909 234.095 30.1866 235.819" stroke="black" stroke-width="3" stroke-linecap="round" stroke-linejoin="round"/>
<path d="M37.8017 229.354C36.3435 231.28 37.0051 234.445 39.1248 235.617" stroke="black" stroke-width="3" stroke-linecap="round" stroke-linejoin="round"/>
<path d="M46.1047 229.664C45.1191 231.523 45.4431 233.973 46.8743 235.522" stroke="black" stroke-width="3" stroke-linecap="round" stroke-linejoin="round"/>
<path d="M53.4097 230.014C53.3017 231.953 53.8147 233.92 54.8408 235.563" stroke="black" stroke-width="3" stroke-linecap="round" stroke-linejoin="round"/>
<path d="M61.8074 230.014C61.5779 232.115 62.2125 234.283 63.5221 235.94" stroke="black" stroke-width="3" stroke-linecap="round" stroke-linejoin="round"/>
<path d="M215.658 223.429C215.874 217.463 211.918 212.319 207.625 208.709C200.05 202.34 190.788 198.757 181.405 197.06C172.021 195.364 162.435 195.458 152.93 195.875C144.019 196.266 135.107 196.926 126.223 197.855C124.158 198.071 122.078 198.313 120.121 199.013C117.65 199.889 115.422 201.478 113.356 203.242C107.564 208.171 102.636 215.025 101.691 223.038C101.218 227.024 102.082 231.684 105.201 233.744C106.876 234.849 108.901 235.01 110.845 235.132C141.129 236.923 171.413 233.462 201.711 234.552C204.573 234.66 208.894 235.913 211.378 234.068C213.862 232.223 215.537 226.513 215.645 223.429H215.658Z" fill="black" stroke="black" stroke-width="3" stroke-linecap="round" stroke-linejoin="round"/>
<path d="M150.108 160.322C150.067 158.72 149.959 156.942 148.839 155.797C148.096 155.043 147.03 154.693 145.976 154.464C142.493 153.723 138.794 154.06 135.513 155.434C133.879 156.121 132.313 157.09 131.327 158.558C129.775 160.888 130.004 163.918 130.288 166.692C131.786 181.317 133.298 195.929 134.797 210.554C135.094 213.395 135.432 216.358 137.011 218.742C140.036 223.294 146.287 224.075 151.755 224.331C170.131 225.179 188.574 224.91 206.909 223.509C208.84 223.361 210.865 223.172 212.445 222.068C214.767 220.466 215.483 217.422 216.009 214.648C219.277 197.329 221.613 179.849 223.017 162.288C223.192 160.039 223.26 157.494 221.694 155.851C219.79 153.872 216.576 154.289 213.89 154.855C212.188 155.218 210.42 155.595 209.029 156.646C206.072 158.868 205.802 163.11 205.775 166.786C205.667 180.213 205.249 193.639 204.506 207.053C204.438 208.386 204.29 209.854 203.318 210.769C202.4 211.631 201.023 211.712 199.753 211.753C186.211 212.116 172.642 211.793 159.127 210.783C156.67 210.594 153.848 210.163 152.606 208.049C151.998 207.012 151.904 205.746 151.823 204.548C150.918 189.842 150.108 175.082 150.108 160.309V160.322Z" fill="white" stroke="black" stroke-width="3" stroke-linecap="round" stroke-linejoin="round"/>
<path d="M129.235 165.911C130.882 166.41 132.637 166.383 134.352 166.356C154.793 166.019 175.248 165.682 195.689 165.346C202.832 165.224 209.988 165.117 217.13 164.996C220.006 164.955 222.963 164.888 225.636 163.837C228.309 162.787 230.699 160.498 231.023 157.656C231.334 155.003 229.781 152.39 227.661 150.761C225.542 149.131 222.909 148.323 220.316 147.664C203.723 143.448 186.319 144.351 169.226 145.28C162.097 145.67 154.969 146.061 147.84 146.452C141.872 146.775 132.151 146.169 127.182 150.168C121.89 154.424 122.119 163.77 129.221 165.925L129.235 165.911Z" fill="white" stroke="black" stroke-width="3" stroke-linecap="round" stroke-linejoin="round"/>
<path d="M144.762 212.884C144.518 213.099 144.356 213.396 144.248 213.705C143.776 215.092 144.613 216.776 146.004 217.234C146.422 217.368 146.881 217.409 147.286 217.234C147.57 217.113 147.786 216.897 147.988 216.668C148.488 216.076 148.785 215.308 148.744 214.527C148.65 212.803 146.139 211.672 144.775 212.884H144.762Z" stroke="black" stroke-width="3" stroke-linecap="round" stroke-linejoin="round"/>
<path d="M207.571 215.416C207.085 215.82 206.842 216.48 206.815 217.113C206.788 217.773 207.031 218.527 207.638 218.796C207.895 218.904 208.192 218.917 208.475 218.877C209.339 218.756 210.136 218.123 210.338 217.288C210.73 215.753 208.867 214.325 207.571 215.416Z" stroke="black" stroke-width="3" stroke-linecap="round" stroke-linejoin="round"/>
<path d="M188.574 293.201C187.859 293.201 187.17 293.269 186.481 293.39C186.913 289.713 187.17 286.023 187.251 282.333C187.265 281.431 187.251 280.448 186.643 279.788C186.117 279.209 185.307 279.034 184.537 278.899C159.978 274.321 134.797 273.041 109.9 275.075C106.079 275.384 102.569 275.29 98.7344 275.25C83.4641 275.048 68.1802 276.246 53.1259 278.819C50.3851 279.29 47.5768 279.829 45.2815 281.391C41.8386 283.734 40.1644 288.03 39.9888 292.178C39.9753 292.528 39.9888 292.878 39.9888 293.242C33.0625 293.498 27.5269 299.167 27.5269 306.143C27.5269 313.119 33.3326 319.058 40.4749 319.058C47.6173 319.058 53.423 313.267 53.423 306.143C53.423 302.682 52.0458 299.544 49.8315 297.228C50.1961 295.585 50.5606 293.928 50.9117 292.285C51.1412 291.208 51.4247 290.05 52.2618 289.336C52.9639 288.744 53.9225 288.555 54.8271 288.407C73.7699 285.242 93.1042 284.38 112.25 285.848C112.277 288.771 112.304 291.706 112.331 294.629C108.118 296.757 105.229 301.106 105.229 306.143C105.229 313.28 111.034 319.058 118.177 319.058C125.319 319.058 131.125 313.267 131.125 306.143C131.125 300.568 127.574 295.827 122.619 294.023C122.7 291.518 122.821 289.026 123.024 286.535C140.9 286.683 158.79 286.818 176.679 286.966C177.584 286.966 178.569 287.006 179.272 287.599C179.879 288.111 180.109 288.932 180.257 289.713C180.676 291.814 180.716 293.982 180.419 296.097C177.476 298.467 175.599 302.089 175.599 306.143C175.599 313.28 181.405 319.058 188.547 319.058C195.69 319.058 201.495 313.267 201.495 306.143C201.495 299.019 195.69 293.228 188.547 293.228L188.574 293.201Z" fill="black" stroke="black" stroke-width="3" stroke-linecap="round" stroke-linejoin="round"/>
</svg>
