<svg width="210" height="323" viewBox="0 0 210 323" fill="none" xmlns="http://www.w3.org/2000/svg">
<path d="M140.86 296.818C138.231 294.597 134.32 294.757 130.83 295.044C133.177 294.622 133.546 291.167 131.885 289.52C130.224 287.873 127.613 287.611 125.231 287.518C116.31 287.18 107.379 287.898 98.4752 288.616C99.8728 277.745 100.576 266.79 100.602 255.834C100.611 251.112 100.488 246.391 100.128 241.686C105.982 241.677 111.853 241.922 117.681 241.365C121.645 240.985 125.706 240.165 128.923 237.918C141.079 229.438 131.674 213.912 119.527 212.088C106.738 210.17 93.8694 213.845 81.0627 215.678C72.5366 216.903 63.8875 217.308 55.4229 218.888C48.6372 220.155 41.2186 222.807 38.4762 228.906C36.3227 233.703 38.0719 239.827 42.4668 242.902C45.1125 244.752 48.4174 245.487 51.6609 245.85C65.1004 247.345 78.4433 243.071 91.9356 241.981C92.3488 257.194 91.4874 272.432 89.2987 287.501C79.4805 287.197 69.6623 286.902 59.8529 286.598C57.5764 286.53 55.1592 286.496 53.2167 287.628C51.2741 288.76 50.2018 291.539 51.6784 293.195C46.6946 293.896 42.4404 297.984 41.702 302.773C40.9637 307.563 43.8028 312.656 48.3647 314.717C51.3884 316.086 55.1153 316.119 58.0071 314.506C60.9956 312.842 62.7887 309.683 63.6238 306.465C64.5994 302.672 64.2039 298.187 61.189 295.568C81.2473 299.057 101.833 299.682 122.076 297.401C116.855 299.952 114.93 307.022 117.76 311.947C120.59 316.871 127.358 319.135 132.94 317.446C138.521 315.756 142.609 310.561 143.356 304.986C143.751 302.055 143.162 298.761 140.851 296.81L140.86 296.818Z" fill="black" stroke="black" stroke-width="3" stroke-linecap="round" stroke-linejoin="round"/>
<path d="M47.4505 210.601C40.5769 210.914 33.589 210.863 26.9439 209.165C20.2988 207.468 13.9438 203.962 10.0324 198.514C6.04181 192.947 4.96066 185.962 4.26627 179.238C3.1236 168.097 2.75443 156.896 2.32373 145.704C1.65571 128.574 1.11953 110.278 10.4806 95.6903C13.2143 91.4331 16.8093 87.5729 21.38 85.1824C25.3266 83.1214 29.8709 82.226 34.3625 82.2936C47.5823 82.4879 59.343 90.7151 67.8428 100.454C76.3425 110.194 82.4953 121.622 90.6698 131.606C96.6556 138.913 103.705 145.434 108.97 153.23C114.235 161.027 117.637 170.656 115.185 179.652C113.383 186.266 108.592 191.841 102.905 195.946C87.1187 207.332 66.6122 209.714 47.4505 210.593V210.601Z" fill="black" stroke="black" stroke-width="3" stroke-linecap="round" stroke-linejoin="round"/>
<path d="M141.668 215.087C136.693 212.105 130.461 211.565 124.686 212.519C118.911 213.474 113.488 215.813 108.223 218.28C104.408 220.062 100.215 222.419 99.3098 226.406C98.5275 229.886 100.549 233.29 101.929 236.593C104.882 243.646 105.006 251.51 107.352 258.766C111.378 271.216 122.295 281.395 135.374 284.875C140.718 286.302 147.047 286.454 151.205 282.932C155.09 279.638 155.925 274.063 155.213 269.138C154.501 264.214 152.506 259.517 151.714 254.601C151.038 250.42 151.257 246.154 151.987 241.99C152.576 238.671 154.738 234.709 153.762 231.482C151.943 225.434 147.249 218.44 141.659 215.087H141.668Z" fill="#F5B5FF" stroke="black" stroke-width="3" stroke-linecap="round" stroke-linejoin="round"/>
<path d="M98.8441 221.481C97.7278 221.422 96.6467 221.887 95.6622 222.393C92.6649 223.948 89.9576 226.009 87.6899 228.45C86.8461 229.371 86.0462 230.359 85.6243 231.524C84.7893 233.856 85.6331 236.474 87.0834 238.502C88.5337 240.529 90.529 242.134 92.3221 243.891C102.395 253.782 105.77 268.496 115.263 278.903C124 288.465 137.792 293.524 150.932 291.979C152.365 291.81 153.991 291.43 154.624 290.179C155.011 289.411 154.905 288.507 154.765 287.671C154.211 284.275 153.218 280.829 150.994 278.143C148.77 275.457 145.07 273.674 141.58 274.435C137.853 275.245 135.146 278.666 131.384 279.308C128.123 279.866 124.888 278.193 122.339 276.158C114.78 270.118 110.895 260.818 108.662 251.62C107.3 246.002 106.438 240.292 105.287 234.641C104.549 231.018 104.065 221.768 98.8265 221.481H98.8441Z" fill="#F5B5FF" stroke="black" stroke-width="3" stroke-linecap="round" stroke-linejoin="round"/>
<path d="M104.944 220.789C106.105 222.808 107.696 224.607 109.585 226.034C110.623 226.82 111.8 227.513 113.11 227.665C114.543 227.833 115.976 227.327 117.232 226.651C118.639 225.891 119.931 224.86 120.704 223.509C121.355 222.368 121.61 221.068 121.865 219.784C122.084 218.643 122.304 217.511 122.524 216.371" stroke="black" stroke-width="3" stroke-linecap="round" stroke-linejoin="round"/>
<path d="M151.214 243.35C145.456 242.598 141.598 237.403 136.517 234.692C134.847 233.805 132.764 233.196 131.076 234.05C129.468 234.86 128.791 236.719 128.466 238.442C128.202 239.81 128.079 241.255 128.545 242.572C129.011 243.89 130.18 245.056 131.621 245.191C138.433 245.816 145.07 248.097 150.757 251.754C150.853 251.813 150.713 251.991 150.625 251.915" stroke="black" stroke-width="3" stroke-linecap="round" stroke-linejoin="round"/>
<path d="M152.022 257.811C146.599 255.007 140.824 252.118 134.671 252.405C133.933 252.439 133.177 252.523 132.509 252.844C131.314 253.41 130.593 254.677 130.452 255.944C130.312 257.211 130.698 258.495 131.261 259.652C132.307 261.806 134.522 263.851 136.948 263.369C137.792 263.2 138.53 262.744 139.277 262.339C141.334 261.207 144.033 260.379 145.966 261.697C148.111 263.149 148.515 266.722 151.1 267.17C152.734 267.457 154.387 265.844 154.079 264.281" stroke="black" stroke-width="3" stroke-linecap="round" stroke-linejoin="round"/>
<path d="M105.648 191.831C100.673 188.85 94.4407 188.309 88.6658 189.264C82.8909 190.218 77.4677 192.558 72.2026 195.024C68.3878 196.807 64.1951 199.163 63.2897 203.15C62.5075 206.63 64.5291 210.034 65.9091 213.337C68.8625 220.39 68.9855 228.254 71.3324 235.51C75.3581 247.961 86.275 258.139 99.3542 261.619C104.698 263.047 111.027 263.199 115.185 259.677C119.07 256.382 119.905 250.807 119.193 245.883C118.481 240.958 116.485 236.262 115.694 231.346C115.018 227.165 115.237 222.899 115.967 218.735C116.556 215.415 118.718 211.454 117.742 208.227C115.923 202.179 111.229 195.185 105.639 191.831H105.648Z" fill="#F5B5FF" stroke="black" stroke-width="3" stroke-linecap="round" stroke-linejoin="round"/>
<path d="M62.8241 198.226C61.7078 198.167 60.6267 198.631 59.6422 199.138C56.6449 200.692 53.9376 202.753 51.6699 205.194C50.826 206.115 50.0262 207.103 49.6043 208.269C48.7692 210.6 49.6131 213.219 51.0634 215.246C52.5137 217.273 54.509 218.878 56.3021 220.635C66.3752 230.527 69.7504 245.241 79.2434 255.648C87.9804 265.209 101.772 270.269 114.912 268.723C116.345 268.554 117.971 268.174 118.604 266.924C118.991 266.155 118.885 265.252 118.745 264.415C118.191 261.02 117.198 257.573 114.974 254.887C112.75 252.201 109.05 250.419 105.56 251.179C101.833 251.99 99.1259 255.411 95.3639 256.053C92.1029 256.611 88.8682 254.938 86.3192 252.902C78.76 246.863 74.8749 237.563 72.6423 228.364C71.2799 222.747 70.4185 217.037 69.267 211.386C68.5287 207.762 68.0452 198.513 62.8065 198.226H62.8241Z" fill="#F5B5FF" stroke="black" stroke-width="3" stroke-linecap="round" stroke-linejoin="round"/>
<path d="M68.9331 197.533C70.0934 199.552 71.6843 201.351 73.5741 202.779C74.6113 203.564 75.7891 204.257 77.0988 204.409C78.5315 204.578 79.9643 204.071 81.2212 203.396C82.6276 202.635 83.9197 201.605 84.6932 200.253C85.3436 199.113 85.5985 197.812 85.8534 196.528C86.0732 195.388 86.2929 194.256 86.5127 193.116" stroke="black" stroke-width="3" stroke-linecap="round" stroke-linejoin="round"/>
<path d="M115.194 220.095C109.436 219.343 105.578 214.149 100.497 211.437C98.8271 210.55 96.7439 209.942 95.0563 210.795C93.4477 211.606 92.7709 213.464 92.4457 215.188C92.182 216.556 92.0589 218 92.5248 219.318C92.9907 220.636 94.1597 221.801 95.6012 221.937C102.413 222.562 109.05 224.842 114.737 228.5C114.833 228.559 114.693 228.736 114.605 228.66" stroke="black" stroke-width="3" stroke-linecap="round" stroke-linejoin="round"/>
<path d="M116.002 234.556C110.579 231.751 104.804 228.862 98.6509 229.15C97.9126 229.183 97.1567 229.268 96.4887 229.589C95.2932 230.155 94.5725 231.422 94.4319 232.689C94.2912 233.956 94.678 235.24 95.2405 236.397C96.2865 238.551 98.5015 240.595 100.927 240.114C101.771 239.945 102.51 239.489 103.257 239.083C105.314 237.951 108.012 237.124 109.946 238.441C112.091 239.894 112.495 243.467 115.079 243.915C116.714 244.202 118.366 242.589 118.059 241.026" stroke="black" stroke-width="3" stroke-linecap="round" stroke-linejoin="round"/>
<path d="M74.2942 71.389C65.1176 71.1694 55.8093 71.6255 47.0722 74.3201C38.3352 77.0146 30.1607 82.1503 25.379 89.6765C21.5906 95.64 20.1228 102.794 20.3073 109.78C20.4919 116.766 22.2587 123.641 24.544 130.272C28.0599 140.459 32.8328 150.249 38.7395 159.355C39.3372 160.267 40.0052 161.238 41.0512 161.627C42.273 162.091 43.6442 161.644 44.866 161.205C68.2292 152.783 91.3112 143.449 115.413 137.241C115.211 137.291 112.881 118.472 112.758 116.749C112.292 109.881 112.231 102.98 112.591 96.1045C112.802 92.0923 115.518 84.1016 112.178 80.9847C108.135 77.2089 100.962 75.207 95.6533 73.8978C88.683 72.183 81.4666 71.558 74.2854 71.3806L74.2942 71.389Z" fill="white" stroke="black" stroke-width="3" stroke-linecap="round" stroke-linejoin="round"/>
<path d="M90.6787 191.822C90.6787 191.822 109.216 215.988 135.331 226.234L138.311 224.494C138.311 224.494 141.035 233.212 161.674 244.328L170.798 234.74L160.768 218.075L109.506 176.17L90.6875 191.814L90.6787 191.822Z" fill="white" stroke="black" stroke-width="3" stroke-linecap="round" stroke-linejoin="round"/>
<path d="M43.7148 159.758C43.7148 159.758 125.372 117.431 167.115 121.612C199.777 124.881 196.376 150.821 196.376 150.821C196.376 150.821 236.299 177.851 166.209 231.041L106.553 185.048C106.553 185.048 55.9678 216.656 43.7236 159.758H43.7148Z" fill="white" stroke="black" stroke-width="3" stroke-linecap="round" stroke-linejoin="round"/>
<path d="M145.202 214.849C145.202 214.849 194.099 177.632 196.367 150.822" stroke="black" stroke-width="3" stroke-linecap="round" stroke-linejoin="round"/>
<path d="M152.365 156.27C152.365 156.27 135.357 170.655 106.544 185.04L152.365 156.27Z" fill="white"/>
<path d="M152.365 156.27C152.365 156.27 135.357 170.655 106.544 185.04" stroke="black" stroke-width="3" stroke-linecap="round" stroke-linejoin="round"/>
<path d="M138.047 224.452C141.484 222.307 144.762 219.925 147.847 217.314" stroke="black" stroke-width="3" stroke-linecap="round" stroke-linejoin="round"/>
<path d="M106.509 207.018C106.193 206.95 106.36 206.477 106.588 206.258C110.843 202.203 115.545 198.588 120.599 195.488" stroke="black" stroke-width="3" stroke-linecap="round" stroke-linejoin="round"/>
<path d="M56.5566 153.473C56.5566 153.473 60.0462 166.076 64.8102 174.573L170.288 132.094V142.746L180.95 142.526L121.522 196.578" stroke="black" stroke-width="3" stroke-linecap="round" stroke-linejoin="round"/>
<path d="M102.351 90.224L110.429 79.5894C110.429 79.5894 136.315 92.2343 135.296 111.358C134.276 130.482 115.729 134.409 100.251 130.98C84.7719 127.551 74.0483 113.816 74.0483 113.816L102.343 90.224H102.351Z" fill="white" stroke="black" stroke-width="3" stroke-linecap="round" stroke-linejoin="round"/>
<path d="M98.5367 109.551C92.3487 113.665 86.4507 118.175 80.878 123.032C76.4392 126.909 72.1146 131.074 66.7265 133.608C62.3491 135.669 57.4444 136.547 52.5661 136.615C48.1624 136.674 43.6709 136.074 39.6979 134.25C32.3848 130.896 27.1549 122.897 28.6052 115.236C32.376 95.2421 65.9969 89.6081 77.74 89.0083C89.4832 88.4171 113.629 89.0083 122.401 99.0263C124.607 101.552 118.507 101.155 116.512 101.476C109.919 102.532 103.951 105.953 98.5279 109.56L98.5367 109.551Z" fill="white" stroke="black" stroke-width="3" stroke-linecap="round" stroke-linejoin="round"/>
<path d="M20.7822 111.536C23.5246 117.525 27.2076 123.117 31.6552 128.067" stroke="black" stroke-width="3" stroke-linecap="round" stroke-linejoin="round"/>
<path d="M64.1247 56.268C78.659 56.268 90.4413 45.9475 90.4413 33.2165C90.4413 20.4855 78.659 10.165 64.1247 10.165C49.5904 10.165 37.8081 20.4855 37.8081 33.2165C37.8081 45.9475 49.5904 56.268 64.1247 56.268Z" fill="black" stroke="black" stroke-width="3" stroke-linecap="round" stroke-linejoin="round"/>
<path d="M49.1997 59.5698V73.7099C49.1997 73.7099 52.9617 76.2186 63.3337 76.2186C73.7056 76.2186 74.2945 71.3954 74.2945 71.3954L74.0572 65.263C74.0572 65.263 91.584 64.7731 85.6246 31.7459C85.6246 31.7459 76.8436 29.6173 75.6218 25.0391C75.6218 25.0391 67.3682 42.5325 55.4844 42.372L49.1997 50.6246V59.5698Z" fill="white" stroke="black" stroke-width="3" stroke-linecap="round" stroke-linejoin="round"/>
<path d="M53.3392 49.1719C51.4582 48.0401 49.0498 47.6599 46.949 48.3779C44.8483 49.0959 43.1782 50.9458 42.9409 53.0659C42.6332 55.7774 44.7516 58.4128 47.45 59.249C50.1485 60.0853 53.1986 59.3251 55.4751 57.7033" fill="white"/>
<path d="M53.3392 49.1719C51.4582 48.0401 49.0498 47.6599 46.949 48.3779C44.8483 49.0959 43.1782 50.9458 42.9409 53.0659C42.6332 55.7774 44.7516 58.4128 47.45 59.249C50.1485 60.0853 53.1986 59.3251 55.4751 57.7033" stroke="black" stroke-width="3" stroke-linecap="round" stroke-linejoin="round"/>
<path d="M83.8841 50.9128C80.0166 50.1019 75.736 51.4619 73.1342 54.3338C72.2728 55.2883 71.5696 56.4455 71.4729 57.7041C71.3762 58.9627 72.0179 60.3311 73.2221 60.8463C74.022 61.1926 74.9449 61.1251 75.8151 61.0406C77.239 60.9139 78.6717 60.7619 80.0869 60.8886C81.713 61.0406 83.3655 61.5559 84.9477 61.1673C87.6813 60.4831 88.8591 57.5774 88.5866 55.1025C88.3141 52.6275 86.2485 51.4112 83.8753 50.9128H83.8841Z" fill="#F1672F" stroke="black" stroke-width="3" stroke-linecap="round" stroke-linejoin="round"/>
<path d="M78.9795 56.5813C80.2892 56.1674 81.7307 56.1083 83.0667 56.4377" stroke="black" stroke-width="3" stroke-linecap="round" stroke-linejoin="round"/>
<path d="M79.6211 43.7407C80.5704 44.1377 81.4494 44.8304 81.7394 45.7849C82.0295 46.7394 81.4757 47.9388 80.4649 48.1331" stroke="black" stroke-width="3" stroke-linecap="round" stroke-linejoin="round"/>
<path d="M67.79 40.5651L68.1944 44.2817C68.2998 45.2278 68.546 46.3681 69.4777 46.6806C70.2336 46.934 71.095 46.461 71.4993 45.7937C71.9037 45.1264 71.9652 44.3239 71.9916 43.5553C72.0443 42.2291 72.0531 40.8945 72.0091 39.5684" stroke="black" stroke-width="3" stroke-linecap="round" stroke-linejoin="round"/>
<path d="M80.0166 38.9603L80.5791 43.1246C80.6495 43.6145 80.7198 44.1129 80.9483 44.5521C81.1769 44.9913 81.6163 45.363 82.1349 45.3968C83.137 45.4559 83.7083 44.3156 83.8314 43.3611C84.0423 41.6717 83.7083 39.9654 83.3831 38.293" stroke="black" stroke-width="3" stroke-linecap="round" stroke-linejoin="round"/>
<path d="M118.577 6C121.917 6 125.299 6.4894 128.606 6.85911C130.562 7.07788 132.512 7.25203 134.473 7.41822C135.653 7.51825 137.203 7.61579 138.298 8.02505C139.034 8.29969 136.429 9.36083 136.382 9.3819C133.567 10.6302 130.805 12.0117 128.027 13.3229C125.219 14.6482 122.534 16.1476 119.75 17.4957C119.35 17.6894 117.28 18.5899 118.522 18.8253C120.843 19.265 123.24 19.5405 125.594 19.8072C129.444 20.2434 133.27 20.8504 137.164 20.8504" stroke="white" stroke-width="4" stroke-linecap="round"/>
<path d="M113.508 34.2275C113.162 34.2275 113.435 34.2275 113.586 34.2275C114.306 34.2275 114.999 34.0821 115.714 33.9957C118.835 33.618 122.132 33.0603 125.305 33.0002C125.565 32.9953 125.826 33.0002 126.087 33.0002C126.298 33.0002 125.71 33.1755 125.555 33.3002C123.985 34.5602 122.172 35.6648 120.486 36.8049C118.941 37.8489 117.366 38.9536 116.058 40.2209C115.768 40.5016 115.294 40.9777 116.081 40.9777C118.015 40.9777 120.035 41.0893 121.956 41.2914C123.177 41.4198 124.394 41.5154 125.617 41.6186C126.182 41.6663 126.641 41.7745 127.166 41.5914" stroke="white" stroke-width="4" stroke-linecap="round"/>
<path d="M105.763 50.1836C105.785 50.3402 105.912 50.2822 106.044 50.3336C106.796 50.6248 107.889 50.5089 108.673 50.5586C110.378 50.6667 112.098 50.8389 113.789 51.0495C114.627 51.1538 114.168 51.3072 113.648 51.5336C111.981 52.26 110.503 53.3079 108.931 54.1723C107.461 54.9808 106.034 55.8284 104.495 56.5383C104.309 56.6242 105.229 57.0361 105.34 57.0838C106.868 57.7369 108.527 58.2484 110.128 58.7474C110.456 58.8496 112.522 59.6717 112.522 59.1429" stroke="white" stroke-width="4" stroke-linecap="round"/>
</svg>
