<svg width="154" height="341" viewBox="0 0 154 341" fill="none" xmlns="http://www.w3.org/2000/svg">
<path d="M103.441 274.108C98.5971 274.623 94.2206 277.428 90.9573 281.019C87.6856 284.61 85.3826 288.953 83.2496 293.304C81.7029 296.456 80.2073 300.19 81.7454 303.35C83.0796 306.104 86.2239 307.38 88.8838 308.918C94.5775 312.196 98.8435 317.452 104.248 321.178C113.52 327.565 126.088 328.9 136.507 324.599C140.764 322.842 144.988 319.733 145.838 315.221C146.628 311.013 144.206 306.814 141.113 303.832C138.02 300.858 134.221 298.695 131.077 295.763C128.408 293.27 126.275 290.271 124.542 287.086C123.156 284.534 122.46 280.757 120.106 279.059C115.695 275.891 108.897 273.534 103.449 274.108H103.441Z" fill="#5EE96A" stroke="black" stroke-width="3" stroke-linecap="round" stroke-linejoin="round"/>
<path d="M78.814 300.232C78.0491 300.756 77.5902 301.626 77.2163 302.471C76.0776 305.048 75.4062 307.819 75.2278 310.633C75.1598 311.689 75.1683 312.77 75.5167 313.767C76.2051 315.77 78.1596 317.113 80.1906 317.755C82.2217 318.398 84.3802 318.457 86.4962 318.744C98.3595 320.324 108.413 328.57 120.174 330.775C130.992 332.812 142.711 329.212 150.495 321.473C151.345 320.628 152.203 319.538 151.957 318.372C151.804 317.654 151.251 317.096 150.716 316.598C148.541 314.579 146.059 312.754 143.17 312.061C140.28 311.376 136.907 312.052 135.029 314.342C133.023 316.792 133.074 320.484 130.95 322.833C129.114 324.869 126.097 325.385 123.344 325.3C115.177 325.055 107.682 320.738 101.317 315.643C97.4332 312.534 93.83 309.104 90.0569 305.859C87.6435 303.781 82.4001 297.765 78.814 300.232Z" fill="#5EE96A" stroke="black" stroke-width="3" stroke-linecap="round" stroke-linejoin="round"/>
<path d="M82.4424 296.659C84.278 297.436 86.275 297.841 88.2806 297.85C89.3768 297.85 90.5155 297.723 91.4588 297.165C92.4871 296.549 93.1584 295.476 93.6173 294.377C94.1272 293.144 94.4331 291.792 94.2207 290.482C94.0422 289.375 93.5154 288.362 92.997 287.373C92.5381 286.494 92.0707 285.607 91.6118 284.729" stroke="black" stroke-width="3" stroke-linecap="round" stroke-linejoin="round"/>
<path d="M124.755 288.387C120.582 290.812 115.288 289.249 110.52 290.009C108.957 290.254 107.266 290.905 106.62 292.341C105.999 293.71 106.543 295.315 107.249 296.641C107.81 297.698 108.498 298.737 109.501 299.396C110.503 300.055 111.897 300.249 112.908 299.607C117.701 296.565 123.268 294.732 128.936 294.309C129.029 294.309 129.029 294.495 128.936 294.487" stroke="black" stroke-width="3" stroke-linecap="round" stroke-linejoin="round"/>
<path d="M132.981 297.773C127.933 298.635 122.614 299.615 118.738 302.944C118.271 303.341 117.821 303.789 117.557 304.338C117.081 305.327 117.277 306.552 117.863 307.481C118.449 308.411 119.384 309.087 120.37 309.585C122.206 310.515 124.747 310.768 126.072 309.205C126.531 308.664 126.778 307.98 127.05 307.321C127.789 305.504 129.123 303.578 131.086 303.477C133.27 303.367 135.429 305.58 137.366 304.575C138.59 303.933 138.811 302.006 137.774 301.102" stroke="black" stroke-width="3" stroke-linecap="round" stroke-linejoin="round"/>
<path d="M62.8716 281.763C58.0277 282.278 53.6512 285.083 50.388 288.674C47.1162 292.265 44.8133 296.608 42.6802 300.959C41.1336 304.11 39.6379 307.845 41.1761 311.005C42.5103 313.759 45.6546 315.035 48.3145 316.573C54.0082 319.851 58.2742 325.106 63.679 328.832C72.9504 335.22 85.519 336.555 95.9376 332.254C100.195 330.497 104.419 327.388 105.269 322.876C106.059 318.668 103.637 314.469 100.544 311.486C97.4503 308.512 93.6516 306.349 90.5074 303.418C87.839 300.925 85.706 297.926 83.9724 294.741C82.5872 292.189 81.8903 288.412 79.5364 286.714C75.1259 283.546 68.3274 281.188 62.8801 281.763H62.8716Z" fill="#5EE96A" stroke="black" stroke-width="3" stroke-linecap="round" stroke-linejoin="round"/>
<path d="M38.2446 307.896C37.4798 308.42 37.0209 309.29 36.647 310.135C35.5082 312.712 34.8369 315.483 34.6584 318.296C34.5905 319.353 34.5989 320.434 34.9474 321.431C35.6357 323.433 37.5903 324.777 39.6213 325.419C41.6523 326.061 43.8109 326.12 45.9269 326.408C57.7902 327.987 67.8434 336.234 79.6047 338.439C90.4228 340.475 102.142 336.876 109.926 329.137C110.776 328.292 111.634 327.202 111.387 326.036C111.235 325.318 110.682 324.76 110.147 324.261C107.971 322.242 105.49 320.417 102.6 319.724C99.7111 319.04 96.3374 319.716 94.4593 322.006C92.4538 324.456 92.5048 328.148 90.3803 330.497C88.5447 332.533 85.5279 333.048 82.7745 332.964C74.6079 332.719 67.1126 328.402 60.7475 323.307C56.8639 320.198 53.2607 316.767 49.4876 313.523C47.0741 311.444 41.8308 305.429 38.2446 307.896Z" fill="#5EE96A" stroke="black" stroke-width="3" stroke-linecap="round" stroke-linejoin="round"/>
<path d="M41.873 304.322C43.7086 305.099 45.7057 305.504 47.7112 305.513C48.8075 305.513 49.9462 305.386 50.8895 304.829C51.9178 304.212 52.5891 303.139 53.048 302.04C53.5579 300.807 53.8638 299.455 53.6514 298.145C53.4729 297.039 52.946 296.025 52.4276 295.036C51.9688 294.157 51.5014 293.27 51.0425 292.392" stroke="black" stroke-width="3" stroke-linecap="round" stroke-linejoin="round"/>
<path d="M84.1854 296.05C80.0128 298.475 74.7185 296.912 69.9511 297.673C68.3874 297.918 66.6963 298.568 66.0505 300.004C65.4301 301.373 65.974 302.978 66.6793 304.305C67.2402 305.361 67.9286 306.4 68.9313 307.059C69.9341 307.718 71.3278 307.913 72.339 307.271C77.132 304.229 82.6982 302.396 88.3664 301.973C88.4599 301.973 88.4599 302.159 88.3664 302.15" stroke="black" stroke-width="3" stroke-linecap="round" stroke-linejoin="round"/>
<path d="M92.4196 305.428C87.3718 306.29 82.052 307.27 78.1769 310.599C77.7095 310.996 77.2591 311.444 76.9956 311.993C76.5198 312.982 76.7152 314.207 77.3016 315.136C77.8879 316.066 78.8227 316.741 79.8085 317.24C81.6441 318.169 84.185 318.423 85.5107 316.86C85.9696 316.319 86.216 315.635 86.488 314.976C87.2273 313.159 88.5615 311.233 90.5246 311.131C92.7086 311.021 94.8671 313.235 96.8046 312.23C98.0284 311.588 98.2493 309.661 97.2125 308.757" stroke="black" stroke-width="3" stroke-linecap="round" stroke-linejoin="round"/>
<path d="M74.429 49.8965C74.429 49.8965 88.4254 43.8977 110.665 55.0166L103.068 41.1265L113.554 28.0474C113.554 28.0474 154.166 67.0058 133.338 77.4741C112.509 87.9425 72.585 68.0957 72.585 68.0957V50.0317L74.4205 49.8881L74.429 49.8965Z" fill="white" stroke="black" stroke-width="3" stroke-linecap="round" stroke-linejoin="round"/>
<path d="M93.3112 23.9748C92.6569 23.189 92.113 22.3441 91.8156 21.3725C90.9318 18.4322 94.2715 14.9935 96.413 13.2699C99.1579 11.0647 103.118 10.3634 106.475 11.4111C111.149 12.8728 114.573 17.1987 115.772 21.9217C116.307 24.0508 116.443 26.3405 115.721 28.419C115.279 29.6779 114.539 30.81 113.681 31.8408C112.517 33.2349 111.047 34.4854 109.262 34.8825C105.693 35.6767 102.404 32.9307 99.7867 30.396C98.2061 28.8668 96.6255 27.329 95.0448 25.7998C92.6824 23.5101 94.5094 21.7442 96.481 19.6151C98.3081 17.6465 100.543 16.0496 103.016 14.985" fill="white"/>
<path d="M93.3112 23.9748C92.6569 23.189 92.113 22.3441 91.8156 21.3725C90.9318 18.4322 94.2715 14.9935 96.413 13.2699C99.1579 11.0647 103.118 10.3634 106.475 11.4111C111.149 12.8728 114.573 17.1987 115.772 21.9217C116.307 24.0508 116.443 26.3405 115.721 28.419C115.279 29.6779 114.539 30.81 113.681 31.8408C112.517 33.2349 111.047 34.4854 109.262 34.8825C105.693 35.6767 102.404 32.9308 99.7867 30.396C98.2061 28.8668 96.6255 27.329 95.0448 25.7998C92.6824 23.5101 94.5094 21.7442 96.481 19.6151C98.3081 17.6465 100.543 16.0496 103.016 14.985" stroke="black" stroke-width="3" stroke-linecap="round" stroke-linejoin="round"/>
<path d="M108.633 18.2715C107.461 19.015 106.135 19.4881 104.903 20.1387C102.243 21.5413 100.042 23.7802 98.6992 26.4586" stroke="black" stroke-width="3" stroke-linecap="round" stroke-linejoin="round"/>
<path d="M112.024 22.6738C108.174 25.0818 104.843 28.2924 102.302 32.0438" stroke="black" stroke-width="3" stroke-linecap="round" stroke-linejoin="round"/>
<path d="M93.9066 182.901H54.3906L54.6966 289.883C54.6966 289.883 65.1067 297.436 80.1823 288.607L92.4535 194.046L92.428 282.76C92.428 282.76 102.838 290.314 117.914 281.485L125.137 182.901H93.8981H93.9066Z" fill="white" stroke="black" stroke-width="3" stroke-linecap="round" stroke-linejoin="round"/>
<path d="M71.8201 50.9099C76.7744 48.3498 82.978 49.1778 87.8814 51.8308C92.7848 54.4838 96.6004 58.7506 99.9997 63.1525C102.558 66.4645 104.988 69.9793 106.212 73.9757C107.52 78.2509 107.384 82.8218 107.232 87.2914C107.019 93.476 106.807 99.6607 106.594 105.845C106.535 107.493 106.467 109.2 105.744 110.687C104.597 113.044 102.082 114.379 99.6852 115.477C91.6291 119.186 83.1905 122.068 74.548 124.07C72.1345 124.628 69.4661 125.092 67.2736 123.952C66.0244 123.301 65.0896 122.211 64.1973 121.13C57.0164 112.41 50.9403 102.787 46.1644 92.5636C42.7227 85.2045 39.9353 76.7639 42.6037 69.0922C45.5525 60.6262 54.3395 55.5822 62.9481 52.9461C66.0244 51.9998 68.5908 50.9606 71.8201 50.9099Z" fill="white" stroke="black" stroke-width="3" stroke-linecap="round" stroke-linejoin="round"/>
<path d="M89.2916 30.5989C88.6713 26.4504 87.2436 22.2766 84.9321 18.3478C76.2556 3.55354 58.5711 -2.26784 45.4331 5.34473C32.2951 12.9573 28.6749 31.1311 37.3514 45.9254C37.5979 46.3478 37.8528 46.7534 38.1163 47.1589L89.2831 30.5989H89.2916Z" fill="black" stroke="black" stroke-width="3" stroke-linecap="round" stroke-linejoin="round"/>
<path d="M52.8868 58.9287C52.8868 58.9287 65.3024 65.0627 74.6588 54.3747L73.5456 46.6607C73.5456 46.6607 91.3915 31.368 62.6935 8.25146C62.6935 8.25146 42.7911 9.15551 38.8564 27.6927L50.9237 45.3258L52.8953 58.9287H52.8868Z" fill="white" stroke="black" stroke-width="3" stroke-linecap="round" stroke-linejoin="round"/>
<path d="M43.2918 40.5687C47.8383 42.4359 51.1016 37.9579 52.7927 34.7304C55.699 29.1878 56.9312 22.53 57.1777 16.3115C57.3052 13.0924 57.2882 6.29943 53.9739 4.29701C51.399 2.74239 47.6004 5.76714 45.9347 7.47384C43.2918 10.1944 41.2523 13.4811 39.7566 16.9367C38.6859 19.4039 38.0485 21.9555 37.6066 24.5916C37.5217 25.0901 36.4084 37.7467 43.2833 40.5687H43.2918Z" fill="black" stroke="black" stroke-width="3" stroke-linecap="round" stroke-linejoin="round"/>
<path d="M50.0818 38.854C46.6316 38.0175 43.1134 40.5269 43.5298 44.1008C44.2266 50.1503 51.2885 52.364 54.6367 46.9988" fill="white"/>
<path d="M50.0818 38.854C46.6316 38.0175 43.1134 40.5269 43.5298 44.1008C44.2266 50.1503 51.2885 52.364 54.6367 46.9988" stroke="black" stroke-width="3" stroke-linecap="round" stroke-linejoin="round"/>
<path d="M81.8217 31.7986C79.8077 28.6218 76.9948 32.5421 75.0742 33.5729C73.9355 34.1813 72.2359 34.384 71.709 35.6936C71.2246 36.8934 71.811 38.4396 72.7458 39.2253C76.6804 42.588 84.3456 36.9018 81.8217 31.7986Z" fill="#F1662F" stroke="black" stroke-width="3" stroke-linecap="round" stroke-linejoin="round"/>
<path d="M68.293 23.9497C69.2702 24.4904 70.494 24.2708 71.4797 24.8622C72.9839 25.7747 72.627 27.1941 72.3296 28.6474" stroke="black" stroke-width="3" stroke-linecap="round" stroke-linejoin="round"/>
<path d="M59.7188 26.5349C60.747 27.5319 63.22 31.4945 64.6731 29.7033C66.1263 27.9121 62.9395 25.5886 61.8773 24.4902" stroke="black" stroke-width="3" stroke-linecap="round" stroke-linejoin="round"/>
<path d="M67.3584 20.4009C68.1827 21.3641 70.1033 24.1691 71.4375 23.9495C74.3863 23.4594 69.4914 19.4461 69.092 18.5928" stroke="black" stroke-width="3" stroke-linecap="round" stroke-linejoin="round"/>
<path d="M80.2413 33.0574C80.1393 33.7756 80.0629 34.5529 80.3773 35.2119C80.6832 35.8625 81.3036 36.2765 81.9069 36.6567C87.7366 40.3236 93.9912 43.2469 100.492 45.3592C101.283 45.6211 102.115 45.8661 102.94 45.7563C103.883 45.638 104.699 45.0635 105.447 44.4636C109.245 41.3966 112.067 37.0876 113.418 32.297C113.809 30.9114 114.072 29.399 113.571 28.0472C113.01 26.5263 111.608 25.5378 110.265 24.676C106.628 22.3272 102.872 20.1896 99.0051 18.2716C96.2432 16.9029 92.9204 14.4104 89.8356 15.7116C83.6745 18.3139 81.0911 26.8981 80.2413 33.0659V33.0574Z" fill="white" stroke="black" stroke-width="3" stroke-linecap="round" stroke-linejoin="round"/>
<path d="M102.235 42.7065C101.895 42.8417 101.75 42.3179 101.827 41.9884C102.982 37.2823 105.838 32.9226 109.815 29.7711C110.061 29.5767 110.461 29.3909 110.673 29.6105" stroke="black" stroke-width="3" stroke-linecap="round" stroke-linejoin="round"/>
<path d="M88.7139 34.5195C91.1103 35.9305 93.5918 37.2148 96.1412 38.3469" stroke="black" stroke-width="3" stroke-linecap="round" stroke-linejoin="round"/>
<path d="M90.0234 31.3423C92.3179 32.7364 94.7144 33.9699 97.1873 35.0345" stroke="black" stroke-width="3" stroke-linecap="round" stroke-linejoin="round"/>
<path d="M93.7454 30.624C91.5359 32.0266 90.2102 34.6627 90.4226 37.2227" stroke="black" stroke-width="3" stroke-linecap="round" stroke-linejoin="round"/>
<path d="M95.929 32.0605C94.0169 33.8433 93.0906 36.5723 93.5325 39.107" stroke="black" stroke-width="3" stroke-linecap="round" stroke-linejoin="round"/>
<path d="M95.3596 26.0028C95.2406 24.3298 95.1216 22.6485 94.9941 20.9756C96.9232 23.1808 99.2262 25.0565 101.793 26.5181C101.631 26.4168 101.47 26.3069 101.308 26.2055" stroke="black" stroke-width="3" stroke-linecap="round" stroke-linejoin="round"/>
<path d="M100.179 29.9651C100.884 27.6839 102.907 25.842 105.286 25.3013" stroke="black" stroke-width="3" stroke-linecap="round" stroke-linejoin="round"/>
<path d="M106.823 106.243L61.6222 117.066C61.6222 117.066 48.5522 140.402 49.0026 256.002L53.94 255.292L54.9852 212.827L69.5424 253.053L123.276 245.365C123.276 245.365 126.649 207.868 129.318 168.495C131.986 129.123 106.815 106.226 106.815 106.226L106.823 106.243Z" fill="white" stroke="black" stroke-width="3" stroke-linecap="round" stroke-linejoin="round"/>
<path d="M83.5392 119.922L68.7695 113.213C62.5999 110.408 57.841 111.659 54.1953 113.053C53.1161 113.467 51.1445 114.785 49.0625 116.601L27.333 102.559L38.5929 95.6393C46.4281 90.8233 51.3825 82.4926 51.8584 73.3423L52.6742 57.4835C52.6742 57.4835 35.9755 56.5456 16.0135 81.842C-3.93993 107.138 0.666022 115.199 9.86943 119.778C19.0728 124.357 41.7372 131.598 41.7372 131.598C41.9496 132.071 42.2301 132.528 42.5785 132.967C45.9012 137.082 50.9236 137.023 54.4928 136.279C57.824 135.578 61.1553 135.966 64.1041 137.31L73.3245 141.501C74.5992 142.075 76.1799 141.348 76.8597 139.878C77.5395 138.408 77.0552 136.735 75.7804 136.161L64.0531 130.829L69.1095 119.837L81.0747 125.278C82.3495 125.853 83.9301 125.126 84.6099 123.656C85.2898 122.186 84.8054 120.513 83.5307 119.939L83.5392 119.922Z" fill="white" stroke="black" stroke-width="3" stroke-linecap="round" stroke-linejoin="round"/>
<path d="M61.3252 129.393L77.8369 136.896C79.1116 137.47 80.6923 136.744 81.3721 135.274C82.052 133.795 81.5676 132.13 80.2929 131.556L63.7811 124.053" fill="white"/>
<path d="M61.3252 129.393L77.8369 136.896C79.1116 137.47 80.6923 136.744 81.3721 135.274C82.052 133.795 81.5676 132.13 80.2929 131.556L63.7811 124.053" stroke="black" stroke-width="3" stroke-linecap="round" stroke-linejoin="round"/>
<path d="M63.8574 123.901L80.3692 131.404C81.6439 131.979 83.2245 131.252 83.9044 129.782C84.5842 128.303 84.0998 126.639 82.8251 126.064L66.3134 118.562" fill="white"/>
<path d="M63.8574 123.901L80.3692 131.404C81.6439 131.979 83.2245 131.252 83.9044 129.782C84.5842 128.303 84.0998 126.639 82.8251 126.064L66.3134 118.562" stroke="black" stroke-width="3" stroke-linecap="round" stroke-linejoin="round"/>
</svg>
