<svg width="305" height="141" viewBox="0 0 305 141" fill="none" xmlns="http://www.w3.org/2000/svg">
<path d="M268.358 115.554H36.081C17.2621 115.554 2 100.299 2 81.4727V104.919C2 123.738 17.2551 139 36.081 139H268.365C287.184 139 302.446 123.745 302.446 104.919V81.4727C302.446 100.291 287.191 115.554 268.365 115.554H268.358Z" fill="#67B0DB" stroke="black" stroke-width="3" stroke-linecap="round" stroke-linejoin="round"/>
<path d="M252.667 48.209H53.963C46.3469 48.209 40.1729 54.383 40.1729 61.9991V119.533C40.1729 127.149 46.3469 133.323 53.963 133.323H252.667C260.283 133.323 266.457 127.149 266.457 119.533V61.9991C266.457 54.383 260.283 48.209 252.667 48.209Z" fill="#666666" stroke="black" stroke-width="3" stroke-linecap="round" stroke-linejoin="round"/>
<path d="M268.621 2H36.1145C17.2736 2 2 14.8465 2 30.6934V86.6986C2 102.545 17.2736 115.392 36.1145 115.392H268.621C287.462 115.392 302.735 102.545 302.735 86.6986V30.6934C302.735 14.8465 287.462 2 268.621 2Z" fill="white" stroke="black" stroke-width="3" stroke-miterlimit="10"/>
<path d="M64.3021 81.4727H242.327C255.646 81.4727 266.457 92.2836 266.457 105.602V115.554H40.1729V105.602C40.1729 92.2836 50.9838 81.4727 64.3021 81.4727Z" fill="white" stroke="black" stroke-width="3" stroke-miterlimit="10"/>
<path d="M170.383 49.0752H134.055C126.922 49.0752 121.139 54.8583 121.139 61.992C121.139 69.1258 126.922 74.9088 134.055 74.9088H170.383C177.517 74.9088 183.3 69.1258 183.3 61.992C183.3 54.8583 177.517 49.0752 170.383 49.0752Z" fill="#666666" stroke="black" stroke-width="3" stroke-linecap="round" stroke-linejoin="round"/>
<path d="M193.386 61.5695C194.9 61.5061 196.696 61.3089 198.02 62.1118" stroke="black" stroke-width="3" stroke-linecap="round" stroke-linejoin="round"/>
<path d="M204.021 61.844C205.985 61.6046 207.331 62.6822 209.197 62.9357" stroke="black" stroke-width="3" stroke-linecap="round" stroke-linejoin="round"/>
<path d="M214.924 62.112C216.424 61.4711 217.966 61.9782 219.016 63.2037" stroke="black" stroke-width="3" stroke-linecap="round" stroke-linejoin="round"/>
<path d="M111.053 61.527C109.539 61.4636 107.743 61.2664 106.419 62.0693" stroke="black" stroke-width="3" stroke-linecap="round" stroke-linejoin="round"/>
<path d="M100.426 61.8021C98.4606 61.5626 97.1154 62.6402 95.249 62.8937" stroke="black" stroke-width="3" stroke-linecap="round" stroke-linejoin="round"/>
<path d="M89.5158 62.0764C88.0156 61.4355 86.4732 61.9426 85.4238 63.168" stroke="black" stroke-width="3" stroke-linecap="round" stroke-linejoin="round"/>
<path d="M274.634 108.187C275.62 110.124 277.183 112.856 279.268 113.638" stroke="black" stroke-width="3" stroke-linecap="round" stroke-linejoin="round"/>
<path d="M282.536 104.919C283.628 106.722 285.205 109.328 287.445 109.553" stroke="black" stroke-width="3" stroke-linecap="round" stroke-linejoin="round"/>
<path d="M288.536 100.56C289.635 102.25 291.374 104.151 293.445 104.377" stroke="black" stroke-width="3" stroke-linecap="round" stroke-linejoin="round"/>
<path d="M293.171 95.918C294.678 96.8899 295.84 98.4041 297.53 98.9183" stroke="black" stroke-width="3" stroke-linecap="round" stroke-linejoin="round"/>
<path d="M296.714 90.1992C297.813 91.1641 299.165 91.9248 300.531 92.3825" stroke="black" stroke-width="3" stroke-linecap="round" stroke-linejoin="round"/>
<path d="M298.896 84.7407C299.791 85.3535 300.904 85.5366 301.897 85.8324" stroke="black" stroke-width="3" stroke-linecap="round" stroke-linejoin="round"/>
<path d="M136.787 59.6989C134.977 56.0436 142.907 53.9659 144.992 56.9592C148.478 61.9667 140.794 66.1151 137.379 68.1927C142.337 67.9392 148.084 67.5659 152.873 68.9745" stroke="white" stroke-width="3" stroke-linecap="round" stroke-linejoin="round"/>
<path d="M155.537 56.565C155.643 55.1071 160.059 55.241 161.39 56.6143C164.855 60.1851 158.601 61.9247 155.903 61.9881C158.34 61.0655 164.608 60.0654 166.052 63.277C168.158 67.9747 159.587 69.3621 156.354 69.1086" stroke="white" stroke-width="3" stroke-linecap="round" stroke-linejoin="round"/>
<path d="M170.832 53.7871C169.17 52.6788 167.153 54.2075 167.564 56.1375C167.863 57.5324 169.88 58.1057 171 57.2076C171.896 56.4814 172.121 53.7871 170.832 53.7871Z" stroke="white" stroke-width="3" stroke-linecap="round" stroke-linejoin="round"/>
</svg>
