<svg width="123" height="329" viewBox="0 0 123 329" fill="none" xmlns="http://www.w3.org/2000/svg">
<path d="M94.0911 166.955H28.8848V188.337H94.0911V166.955Z" fill="white" stroke="black" stroke-width="3" stroke-linecap="round" stroke-linejoin="round"/>
<path d="M98.4263 179.201H24.5498C19.9465 179.201 16.2148 182.942 16.2148 187.556V318.644C16.2148 323.259 19.9465 327 24.5498 327H98.4263C103.03 327 106.761 323.259 106.761 318.644V187.556C106.761 182.942 103.03 179.201 98.4263 179.201Z" fill="white" stroke="black" stroke-width="3" stroke-linecap="round" stroke-linejoin="round"/>
<path d="M49.291 198.241C52.1085 198.241 54.3925 195.952 54.3925 193.127C54.3925 190.302 52.1085 188.013 49.291 188.013C46.4735 188.013 44.1895 190.302 44.1895 193.127C44.1895 195.952 46.4735 198.241 49.291 198.241Z" fill="#274CFF" stroke="black" stroke-width="3" stroke-linecap="round" stroke-linejoin="round"/>
<path d="M71.8525 198.241C74.67 198.241 76.9541 195.952 76.9541 193.127C76.9541 190.302 74.67 188.013 71.8525 188.013C69.035 188.013 66.751 190.302 66.751 193.127C66.751 195.952 69.035 198.241 71.8525 198.241Z" fill="#F1662F" stroke="black" stroke-width="3" stroke-linecap="round" stroke-linejoin="round"/>
<path d="M34.9202 209.67H89.0013V268.713C89.0013 274.776 84.0914 279.698 78.0438 279.698H45.8657C39.8181 279.698 34.9082 274.776 34.9082 268.713V209.67H34.9202Z" fill="#4D4D4D" stroke="black" stroke-width="3" stroke-linecap="round" stroke-linejoin="round"/>
<path d="M34.9209 264.848V268.701C34.9209 274.764 39.8308 279.686 45.8784 279.686H78.0565C84.1041 279.686 89.014 274.764 89.014 268.701V264.848H34.9209Z" fill="black" stroke="black" stroke-width="3" stroke-linecap="round" stroke-linejoin="round"/>
<path d="M58.5596 209.67H65.5173V221.208C65.5173 223.129 63.9605 224.689 62.0444 224.689C60.1284 224.689 58.5715 223.129 58.5715 221.208V209.67H58.5596Z" fill="white" stroke="black" stroke-width="3" stroke-linecap="round" stroke-linejoin="round"/>
<path d="M77.3376 233.117H46.7403C44.7763 233.117 43.1836 234.714 43.1836 236.683C43.1836 238.556 44.6326 240.069 46.4529 240.213C46.4289 241.245 46.6804 242.446 46.7762 243.538C47.0756 247.044 47.375 250.549 47.6744 254.055C48.0097 257.945 48.333 261.835 48.6684 265.712C48.824 267.477 49.0037 269.338 50.0216 270.791C51.6502 273.12 54.8237 273.636 57.6619 273.792C62.1288 274.032 66.6195 273.828 71.0385 273.204C71.4936 273.144 71.9726 273.06 72.3558 272.82C73.0264 272.387 73.3138 271.559 73.5294 270.779C76.2718 260.874 76.2478 250.453 77.3735 240.225C79.3135 240.201 80.8943 238.616 80.8943 236.671C80.8943 234.702 79.3015 233.105 77.3376 233.105V233.117Z" fill="#F1662F" stroke="black" stroke-width="3" stroke-linecap="round" stroke-linejoin="round"/>
<path d="M59.6494 267.573C63.9845 267.909 68.3436 267.813 72.6547 267.309" stroke="black" stroke-width="3" stroke-linecap="round" stroke-linejoin="round"/>
<path d="M63.3506 260.814C66.8594 260.946 70.3921 260.754 73.865 260.238" stroke="black" stroke-width="3" stroke-linecap="round" stroke-linejoin="round"/>
<path d="M69.2305 253.131L74.7871 252.47" stroke="black" stroke-width="3" stroke-linecap="round" stroke-linejoin="round"/>
<path d="M111.563 115.824V59.9864C116.773 59.9864 120.988 55.7485 120.988 50.5381V28.0159C120.988 13.6453 109.372 2 95.0372 2H27.9508C13.6162 2 2 13.6453 2 28.0159V148.971C2 163.341 13.6162 174.987 27.9508 174.987H95.0492C109.384 174.987 121 163.341 121 148.971V125.284C121 120.062 116.773 115.836 111.575 115.836L111.563 115.824ZM27.5077 116.832C16.3226 116.832 13.4485 103.554 13.4485 87.1668C13.4485 70.7793 16.3346 57.5013 27.5077 57.5013V116.832Z" fill="#86D2FF" stroke="black" stroke-width="3" stroke-linecap="round" stroke-linejoin="round"/>
<path d="M15.1367 152.177C41.7102 153.017 68.3077 152.897 94.8692 151.816" stroke="black" stroke-width="3" stroke-linecap="round" stroke-linejoin="round"/>
<path d="M101.672 152.14L107.851 151.48" stroke="black" stroke-width="3" stroke-linecap="round" stroke-linejoin="round"/>
<path d="M40.4775 122.223C57.2911 122.535 74.1285 121.743 90.8463 119.846" stroke="black" stroke-width="3" stroke-linecap="round" stroke-linejoin="round"/>
<path d="M42.9082 93.8181C58.0092 91.285 73.5893 94.1303 88.7622 92.0293" stroke="black" stroke-width="3" stroke-linecap="round" stroke-linejoin="round"/>
<path d="M46.0693 65.5568C58.5957 62.3874 71.8525 66.1331 84.6782 64.6564" stroke="black" stroke-width="3" stroke-linecap="round" stroke-linejoin="round"/>
<path d="M19.46 32.2778L31.3037 31.1372C40.417 30.2608 49.686 29.3844 58.6795 31.1132" stroke="black" stroke-width="3" stroke-linecap="round" stroke-linejoin="round"/>
<path d="M72.3203 30.7171C79.6852 29.7207 87.1818 29.7207 94.5467 30.7051" stroke="black" stroke-width="3" stroke-linecap="round" stroke-linejoin="round"/>
<path d="M101.66 30.6572L103.205 30.9694" stroke="black" stroke-width="3" stroke-linecap="round" stroke-linejoin="round"/>
</svg>
