<svg width="165" height="125" viewBox="0 0 165 125" fill="none" xmlns="http://www.w3.org/2000/svg">
<path d="M39.3691 116.953C43.33 119.765 47.8249 122.373 53.0764 123.183C62.0216 124.572 70.7266 120.522 78.3902 116.65C96.2185 107.633 114.047 98.6169 131.875 89.6004C138.524 86.2448 145.36 82.729 149.703 77.5577C153.192 73.401 154.812 68.4788 156.254 63.6368C157.216 60.4147 158.124 57.1036 157.581 53.8281C156.949 50.0453 154.447 46.6363 151.857 43.4053C146.027 36.1245 139.503 29.1818 132.365 22.6487C129.552 20.0763 126.588 17.5307 122.894 15.7594C113.335 11.1933 100.909 12.7332 90.522 16.0176C81.1228 18.9904 72.4712 23.2272 63.873 27.4373C49.1333 34.6558 34.3936 41.8744 19.6539 49.0929C5.4571 56.0444 9.45356 71.7454 13.2008 82.8625C17.5711 95.8488 26.6321 107.909 39.3691 116.953Z" fill="white" stroke="black" stroke-width="3" stroke-linecap="round" stroke-linejoin="round"/>
<path d="M132.471 11.2825C129.401 7.84681 126.036 4.23308 121.052 2.74665C114.75 0.859684 107.745 2.89797 101.559 4.99855C72.9695 14.7271 45.4927 26.4673 19.5558 40.041C12.8001 43.5746 5.75069 47.6334 3.10715 53.6681C1.01547 58.4478 2.08356 63.8061 4.67369 68.4345C7.26382 73.0629 11.2603 77.095 15.2211 81.0826C20.3302 86.2183 25.4303 91.3541 30.5394 96.4898C34.705 100.682 39.2533 105.088 45.6886 106.708C54.1443 108.835 63.1252 105.542 70.9312 102.213C99.8944 89.8498 127.638 75.7065 153.807 59.9521C156.29 58.4567 158.8 56.9169 160.571 54.8786C166.713 47.8203 160.455 41.741 154.946 36.3472C146.855 28.4343 139.912 19.587 132.471 11.2825Z" fill="#5EE96A" stroke="black" stroke-width="3" stroke-linecap="round" stroke-linejoin="round"/>
<path d="M120.848 25.9688C118.907 24.0463 116.824 22.097 114.003 21.0467C108.742 19.0885 102.565 20.7797 97.2871 22.6577C85.9742 26.6809 75.1687 31.5229 64.3809 36.3561C55.5869 40.2991 46.7929 44.2422 37.999 48.1763C31.6349 51.0246 24.3985 55.0922 24.9148 60.86C25.164 63.6726 27.3002 66.1381 29.3652 68.4434C32.4716 71.9147 35.5779 75.395 38.6843 78.8663C43.7756 84.5628 50.6114 90.9268 59.3787 90.2237C62.8055 89.9478 65.9118 88.577 68.8936 87.233C87.2025 78.9998 105.511 70.7754 123.82 62.5422C128.609 60.3882 133.593 58.0829 136.424 54.3624C143.295 45.3192 127.399 32.4486 120.848 25.9599V25.9688Z" fill="#5EE96A" stroke="black" stroke-width="3" stroke-linecap="round" stroke-linejoin="round"/>
<path d="M55.2392 77.5047C55.7109 79.9257 57.0816 82.6939 59.921 83.1122C62.52 83.5038 64.8164 81.6792 66.3474 79.8456C69.9255 75.5732 71.9816 70.393 72.1863 65.1593C77.9985 67.874 85.1814 66.9662 91.5633 65.4085C103.918 62.4 116.227 56.659 122.102 46.9394C123.784 44.1623 124.79 40.5753 122.6 38.0653C120.82 36.027 117.563 35.4484 114.59 35.2259C100.998 34.1934 87.0061 37.5757 76.0848 44.5362C72.3465 46.9127 68.7773 49.9745 67.994 53.8909C58.7728 53.5705 48.8751 53.3835 41.1136 57.6292C38.2742 59.178 35.6396 62.1241 37.0993 64.7143C38.0784 66.4499 40.4994 67.1976 42.7246 67.5536C45.5462 67.9986 51.8213 66.7436 54.0643 68.2479C56.3073 69.7521 54.7852 75.1638 55.2392 77.4958V77.5047Z" fill="white" stroke="black" stroke-width="3" stroke-linecap="round" stroke-linejoin="round"/>
<path d="M106.419 40.5752L113.103 44.1088" stroke="black" stroke-width="3" stroke-linecap="round" stroke-linejoin="round"/>
<path d="M111.039 39.2134C109.703 41.2428 108.52 43.3433 107.496 45.4973C107.692 45.3104 107.754 45.0434 107.665 44.8031" stroke="black" stroke-width="3" stroke-linecap="round" stroke-linejoin="round"/>
<path d="M96.1918 36.9971C95.9782 45.257 101.212 53.4724 109.472 57.8249" stroke="black" stroke-width="3" stroke-linecap="round" stroke-linejoin="round"/>
<path d="M85.0037 50.7486C81.39 52.0481 78.5328 54.7984 77.4737 58.0116C77.1799 58.8928 77.0642 59.9431 77.7941 60.6106C78.4616 61.2159 79.5653 61.2604 80.5355 61.1892C85.3865 60.8065 89.9615 58.4032 92.5338 54.8785C93.5396 53.49 94.2606 51.8345 93.8244 50.2412" stroke="black" stroke-width="3" stroke-linecap="round" stroke-linejoin="round"/>
<path d="M45.6615 99.9434C45.252 101.946 45.43 104.029 46.1688 105.969" stroke="black" stroke-width="3" stroke-linecap="round" stroke-linejoin="round"/>
<path d="M52.5601 100.379C51.9726 102.418 52.4978 104.661 53.9664 106.352" stroke="black" stroke-width="3" stroke-linecap="round" stroke-linejoin="round"/>
<path d="M60.375 99.2402C60.4729 101.172 61.3808 103.059 62.885 104.51" stroke="black" stroke-width="3" stroke-linecap="round" stroke-linejoin="round"/>
<path d="M68.0205 97.3975C68.4121 99.1776 69.8452 100.771 71.7588 101.563" stroke="black" stroke-width="3" stroke-linecap="round" stroke-linejoin="round"/>
<path d="M75.2568 94.897C76.4851 96.1431 77.8737 97.2735 79.3957 98.2526" stroke="black" stroke-width="3" stroke-linecap="round" stroke-linejoin="round"/>
<path d="M83.3926 91.8882C84.2738 93.1076 85.6089 94.0956 87.1665 94.6563" stroke="black" stroke-width="3" stroke-linecap="round" stroke-linejoin="round"/>
</svg>
