<svg width="165" height="125" viewBox="0 0 165 125" fill="none" xmlns="http://www.w3.org/2000/svg">
<path d="M39.3686 116.953C43.3295 119.765 47.8244 122.373 53.0759 123.183C62.0212 124.572 70.7261 120.522 78.3897 116.65C96.218 107.633 114.046 98.6169 131.875 89.6004C138.523 86.2448 145.359 82.729 149.703 77.5577C153.192 73.401 154.812 68.4788 156.254 63.6368C157.215 60.4147 158.123 57.1036 157.58 53.8281C156.948 50.0453 154.447 46.6363 151.857 43.4053C146.027 36.1245 139.503 29.1818 132.364 22.6487C129.551 20.0763 126.588 17.5307 122.894 15.7594C113.334 11.1933 100.909 12.7332 90.5215 16.0176C81.1223 18.9904 72.4707 23.2272 63.8725 27.4373C49.1328 34.6558 34.3931 41.8744 19.6534 49.0929C5.45661 56.0444 9.45307 71.7454 13.2003 82.8625C17.5706 95.8488 26.6316 107.909 39.3686 116.953Z" fill="white" stroke="black" stroke-width="3" stroke-linecap="round" stroke-linejoin="round"/>
<path d="M132.471 11.2825C129.401 7.84681 126.036 4.23308 121.052 2.74665C114.75 0.859684 107.745 2.89797 101.559 4.99855C72.9695 14.7271 45.4927 26.4673 19.5558 40.041C12.8001 43.5746 5.75069 47.6334 3.10715 53.6681C1.01547 58.4478 2.08356 63.8061 4.67369 68.4345C7.26382 73.0629 11.2603 77.095 15.2211 81.0826C20.3302 86.2183 25.4303 91.3541 30.5394 96.4898C34.705 100.682 39.2533 105.088 45.6886 106.708C54.1443 108.835 63.1252 105.542 70.9312 102.213C99.8944 89.8498 127.638 75.7065 153.807 59.9521C156.29 58.4567 158.8 56.9169 160.571 54.8786C166.713 47.8203 160.455 41.741 154.946 36.3472C146.855 28.4343 139.912 19.587 132.471 11.2825Z" fill="#F1662F" stroke="black" stroke-width="3" stroke-linecap="round" stroke-linejoin="round"/>
<path d="M120.847 25.9688C118.907 24.0463 116.824 22.097 114.002 21.0467C108.742 19.0885 102.565 20.7797 97.2867 22.6577C85.9738 26.6809 75.1682 31.5229 64.3804 36.3561C55.5864 40.2991 46.7924 44.2422 37.9985 48.1763C31.6344 51.0246 24.398 55.0922 24.9143 60.86C25.1635 63.6726 27.2997 66.1381 29.3647 68.4434C32.4711 71.9147 35.5774 75.395 38.6838 78.8663C43.7751 84.5628 50.6109 90.9268 59.3782 90.2237C62.805 89.9478 65.9114 88.577 68.8931 87.233C87.2021 78.9998 105.511 70.7754 123.82 62.5422C128.609 60.3882 133.593 58.0829 136.423 54.3624C143.295 45.3192 127.398 32.4486 120.847 25.9599V25.9688Z" fill="#F1662F" stroke="black" stroke-width="3" stroke-linecap="round" stroke-linejoin="round"/>
<path d="M55.2392 77.5047C55.7109 79.9257 57.0816 82.6939 59.921 83.1122C62.52 83.5038 64.8164 81.6792 66.3474 79.8456C69.9255 75.5732 71.9816 70.393 72.1863 65.1593C77.9985 67.874 85.1814 66.9662 91.5633 65.4085C103.918 62.4 116.227 56.659 122.102 46.9394C123.784 44.1623 124.79 40.5753 122.6 38.0653C120.82 36.027 117.563 35.4484 114.59 35.2259C100.998 34.1934 87.0061 37.5757 76.0848 44.5362C72.3465 46.9127 68.7773 49.9745 67.994 53.8909C58.7728 53.5705 48.8751 53.3835 41.1136 57.6292C38.2742 59.178 35.6396 62.1241 37.0993 64.7143C38.0784 66.4499 40.4994 67.1976 42.7246 67.5536C45.5462 67.9986 51.8213 66.7436 54.0643 68.2479C56.3073 69.7521 54.7852 75.1638 55.2392 77.4958V77.5047Z" fill="white" stroke="black" stroke-width="3" stroke-linecap="round" stroke-linejoin="round"/>
<path d="M106.419 40.5752L113.103 44.1088" stroke="black" stroke-width="3" stroke-linecap="round" stroke-linejoin="round"/>
<path d="M111.038 39.2134C109.703 41.2428 108.519 43.3433 107.496 45.4973C107.691 45.3104 107.754 45.0434 107.665 44.8031" stroke="black" stroke-width="3" stroke-linecap="round" stroke-linejoin="round"/>
<path d="M96.1918 36.9971C95.9782 45.257 101.212 53.4724 109.472 57.8249" stroke="black" stroke-width="3" stroke-linecap="round" stroke-linejoin="round"/>
<path d="M85.0032 50.7486C81.3895 52.0481 78.5324 54.7984 77.4732 58.0116C77.1794 58.8928 77.0637 59.9431 77.7936 60.6106C78.4612 61.2159 79.5649 61.2604 80.535 61.1892C85.386 60.8065 89.961 58.4032 92.5333 54.8785C93.5391 53.49 94.2601 51.8345 93.8239 50.2412" stroke="black" stroke-width="3" stroke-linecap="round" stroke-linejoin="round"/>
<path d="M45.6619 99.9434C45.2525 101.946 45.4305 104.029 46.1693 105.969" stroke="black" stroke-width="3" stroke-linecap="round" stroke-linejoin="round"/>
<path d="M52.5601 100.379C51.9726 102.418 52.4978 104.661 53.9664 106.352" stroke="black" stroke-width="3" stroke-linecap="round" stroke-linejoin="round"/>
<path d="M60.375 99.2402C60.4729 101.172 61.3808 103.059 62.885 104.51" stroke="black" stroke-width="3" stroke-linecap="round" stroke-linejoin="round"/>
<path d="M68.0205 97.3975C68.4121 99.1776 69.8452 100.771 71.7588 101.563" stroke="black" stroke-width="3" stroke-linecap="round" stroke-linejoin="round"/>
<path d="M75.2568 94.897C76.4851 96.1431 77.8737 97.2735 79.3957 98.2526" stroke="black" stroke-width="3" stroke-linecap="round" stroke-linejoin="round"/>
<path d="M83.3921 91.8882C84.2733 93.1076 85.6084 94.0956 87.166 94.6563" stroke="black" stroke-width="3" stroke-linecap="round" stroke-linejoin="round"/>
</svg>
