<svg width="187" height="269" viewBox="0 0 187 269" fill="none" xmlns="http://www.w3.org/2000/svg">
<path d="M78.0646 182.146L116.503 182.146C124.923 182.146 131.749 175.347 131.749 166.959L131.749 123.278C131.749 117.314 128.294 112.159 123.273 109.679L123.273 68.1713L71.2946 68.1713L71.2946 109.679C66.273 112.159 62.8181 117.314 62.8181 123.278L62.8181 166.959C62.8181 175.347 69.644 182.146 78.0646 182.146Z" fill="white" stroke="black" stroke-width="3" stroke-linecap="round" stroke-linejoin="round"/>
<path d="M65.8811 96.2051L128.686 96.2051L128.686 -103L65.8812 -103L65.8811 96.2051Z" fill="white" stroke="black" stroke-width="3" stroke-linecap="round" stroke-linejoin="round"/>
<path d="M128.686 54.8091L65.8811 54.8091" stroke="black" stroke-width="3" stroke-linecap="round" stroke-linejoin="round"/>
<path d="M91.8701 96.2051L91.8701 40.834" stroke="black" stroke-width="3" stroke-linecap="round" stroke-linejoin="round"/>
<path d="M102.962 81.2686C100.915 81.2686 99.2555 82.9218 99.2555 84.961C99.2555 87.0002 100.915 88.6533 102.962 88.6533C105.009 88.6533 106.669 87.0002 106.669 84.961C106.669 82.9218 105.009 81.2686 102.962 81.2686Z" stroke="black" stroke-width="3" stroke-linecap="round" stroke-linejoin="round"/>
<path d="M102.962 64.3531C100.915 64.3531 99.2555 66.0062 99.2555 68.0455C99.2555 70.0847 100.915 71.7378 102.962 71.7378C105.009 71.7378 106.669 70.0847 106.669 68.0455C106.669 66.0062 105.009 64.3531 102.962 64.3531Z" stroke="black" stroke-width="3" stroke-linecap="round" stroke-linejoin="round"/>
<path d="M177.782 251.687L177.782 260.368C177.782 264.032 175.432 267 172.551 267L152.087 267C150.534 267 149.066 266.122 148.073 264.617L142.352 255.937C139.512 251.618 141.932 245.069 146.366 245.069L172.551 245.069C175.446 245.069 177.782 248.037 177.782 251.701L177.782 251.687Z" fill="#F1662F" stroke="black" stroke-width="3" stroke-miterlimit="10"/>
<path d="M176.524 257.651L10.4765 257.651C5.79066 257.651 2.00002 253.861 2.00002 249.207L2.00003 146.365C2.00003 141.698 5.80467 137.922 10.4765 137.922L176.524 137.922C181.209 137.922 185 141.712 185 146.365L185 249.207C185 253.875 181.195 257.651 176.524 257.651Z" fill="#F1662F" stroke="black" stroke-width="3" stroke-miterlimit="10"/>
<path d="M131.764 129.283L131.764 189.238C131.764 193.948 127.931 197.779 123.189 197.779C118.461 197.779 114.615 193.962 114.615 189.238L114.615 146.992C114.615 146.992 89.7029 147.257 89.7029 125.145" fill="white"/>
<path d="M131.764 129.283L131.764 189.238C131.764 193.948 127.931 197.779 123.189 197.779C118.461 197.779 114.615 193.962 114.615 189.238L114.615 146.992C114.615 146.992 89.7029 147.257 89.7029 125.145" stroke="black" stroke-width="3" stroke-linecap="round" stroke-linejoin="round"/>
</svg>
