<svg width="223" height="271" viewBox="0 0 223 271" fill="none" xmlns="http://www.w3.org/2000/svg">
<path d="M116.65 -52.84C116.65 -55.6898 114.34 -58 111.49 -58C108.64 -58 106.33 -55.6898 106.33 -52.84V173.74C106.33 176.59 108.64 178.9 111.49 178.9C114.34 178.9 116.65 176.59 116.65 173.74V-52.84Z" fill="white" stroke="black" stroke-width="3" stroke-linecap="round" stroke-linejoin="round"/>
<path d="M111.231 269.1C125.27 269.1 136.651 257.719 136.651 243.68C136.651 229.641 125.27 218.26 111.231 218.26C97.1915 218.26 85.8105 229.641 85.8105 243.68C85.8105 257.719 97.1915 269.1 111.231 269.1Z" fill="#FDE966" stroke="black" stroke-width="3" stroke-linecap="round" stroke-linejoin="round"/>
<path d="M17.5498 232.26L106.33 123.16H116.65L204.91 232.26" fill="white"/>
<path d="M17.5498 232.26L106.33 123.16H116.65L204.91 232.26" stroke="black" stroke-width="3" stroke-linecap="round" stroke-linejoin="round"/>
<path d="M213.2 232.26H9.77C5.47875 232.26 2 235.739 2 240.03C2 244.321 5.47875 247.8 9.77 247.8H213.2C217.491 247.8 220.97 244.321 220.97 240.03C220.97 235.739 217.491 232.26 213.2 232.26Z" fill="#F1662F" stroke="black" stroke-width="3" stroke-linecap="round" stroke-linejoin="round"/>
<path d="M47.6699 212.31C52.1399 219.69 64.4099 222.65 72.1899 222.89" stroke="black" stroke-width="3" stroke-linecap="round" stroke-linejoin="round"/>
<path d="M54.1299 203.53C57.6199 207.49 63.6599 208.88 68.5799 209.72" stroke="black" stroke-width="3" stroke-linecap="round" stroke-linejoin="round"/>
<path d="M59.54 193.47C61.88 195.97 65.43 197.07 68.57 198.12" stroke="black" stroke-width="3" stroke-linecap="round" stroke-linejoin="round"/>
</svg>
