<svg  viewBox="0 0 33 35" fill="none" xmlns="http://www.w3.org/2000/svg">
<path d="M14.8145 1H18.186C25.6165 1 31.639 8.3865 31.639 17.5C31.639 26.6135 25.6165 34 18.186 34H14.8145" fill="#FDE966"/>
<path d="M14.8145 1H18.186C25.6165 1 31.639 8.3865 31.639 17.5C31.639 26.6135 25.6165 34 18.186 34H14.8145" stroke="black" stroke-width="2" stroke-linecap="round" stroke-linejoin="round"/>
<path d="M14.8143 34C22.2442 34 28.2673 26.6127 28.2673 17.5C28.2673 8.3873 22.2442 1 14.8143 1C7.38444 1 1.36133 8.3873 1.36133 17.5C1.36133 26.6127 7.38444 34 14.8143 34Z" fill="#FDE966" stroke="black" stroke-width="2" stroke-linecap="round" stroke-linejoin="round"/>
<path d="M11.8276 20.7122C11.8276 22.4777 12.7736 23.9242 13.9286 23.9242H15.6886C16.8436 23.9242 17.7896 22.4777 17.7896 20.7122C17.7896 18.9467 16.8436 17.5002 15.6886 17.5002H13.9286C12.7736 17.5002 11.8276 16.0537 11.8276 14.2882C11.8276 12.5227 12.7736 11.0762 13.9286 11.0762H15.6886C16.8436 11.0762 17.7896 12.5227 17.7896 14.2882" fill="#FDE966"/>
<path d="M11.8276 20.7122C11.8276 22.4777 12.7736 23.9242 13.9286 23.9242H15.6886C16.8436 23.9242 17.7896 22.4777 17.7896 20.7122C17.7896 18.9467 16.8436 17.5002 15.6886 17.5002H13.9286C12.7736 17.5002 11.8276 16.0537 11.8276 14.2882C11.8276 12.5227 12.7736 11.0762 13.9286 11.0762H15.6886C16.8436 11.0762 17.7896 12.5227 17.7896 14.2882" stroke="black" stroke-width="2" stroke-linecap="round" stroke-linejoin="round"/>
<path d="M14.814 11.0706V8.10059" stroke="black" stroke-width="2" stroke-linecap="round" stroke-linejoin="round"/>
<path d="M14.814 26.8948V23.9248" stroke="black" stroke-width="2" stroke-linecap="round" stroke-linejoin="round"/>
</svg>
