<svg viewBox="0 0 158 304" fill="none" xmlns="http://www.w3.org/2000/svg">
<path d="M130.67 280.145H26.7394C20.7111 280.145 15.8242 285.031 15.8242 291.06V291.085C15.8242 297.113 20.7111 302 26.7394 302H130.67C136.698 302 141.585 297.113 141.585 291.085V291.06C141.585 285.031 136.698 280.145 130.67 280.145Z" fill="#292625" stroke="black" stroke-width="4" stroke-linecap="round" stroke-linejoin="round"/>
<path d="M146.384 248.28V75.9496C146.384 49.5444 124.976 28.1367 98.5707 28.1367H58.7887C32.3835 28.1367 10.9758 49.5444 10.9758 75.9496V248.28C10.9758 251.86 9.73261 255.391 7.22138 257.952C4.01396 261.209 2 266.082 2 271.528C2 281.349 8.61375 289.305 16.769 289.305H140.615C148.77 289.305 155.384 281.349 155.384 271.528C155.384 266.082 153.345 261.209 150.163 257.952C147.652 255.391 146.408 251.86 146.408 248.28H146.384Z" fill="#383838" stroke="black" stroke-width="4" stroke-miterlimit="10"/>
<path d="M152.15 57.6016C146.63 48.228 139.171 42.211 119.902 17.1732C101.279 -7.01917 80.0201 4.76624 78.6278 5.58674C77.2354 4.76624 55.9769 -7.01917 37.354 17.1732C18.0846 42.211 10.6007 48.228 5.10578 57.6016C-2.99979 71.3761 3.63882 99.2732 40.2631 84.5539C63.262 75.3046 77.5338 45.667 78.6278 43.3299C79.7218 45.667 93.9936 75.3046 116.993 84.5539C153.617 99.2732 160.255 71.3761 152.15 57.6016Z" fill="#292625" stroke="black" stroke-width="4" stroke-linecap="round" stroke-linejoin="round"/>
<path d="M64.3835 142.562C62.0961 179.933 62.1706 217.452 64.6819 254.822" stroke="black" stroke-width="4" stroke-linecap="round" stroke-linejoin="round"/>
<path d="M95.0891 186.816C95.9345 209.915 95.4621 233.063 93.6719 256.112" stroke="black" stroke-width="4" stroke-linecap="round" stroke-linejoin="round"/>
<path d="M65.6024 121.379L64.9062 127.147" stroke="black" stroke-width="4" stroke-linecap="round" stroke-linejoin="round"/>
</svg>
