<svg viewBox="0 0 131 304" fill="none" xmlns="http://www.w3.org/2000/svg">
<path d="M102.614 279.941H28.2755C22.1906 279.941 17.2578 284.874 17.2578 290.959V290.984C17.2578 297.069 22.1906 302.002 28.2755 302.002H102.614C108.698 302.002 113.631 297.069 113.631 290.984V290.959C113.631 284.874 108.698 279.941 102.614 279.941Z" fill="#B534C4" stroke="black" stroke-width="4" stroke-linecap="round" stroke-linejoin="round"/>
<path d="M106.605 228.892C103.493 227.612 102.264 223.897 104.146 221.112C109.14 213.683 112.077 204.748 112.077 195.111C112.077 182.888 107.358 171.77 99.6534 163.463C93.1783 156.486 91.9987 145.895 97.7962 138.341C103.092 131.464 106.254 122.856 106.254 113.495C106.254 103.079 102.339 93.5924 95.9139 86.3895C90.518 80.3411 89.7902 71.6825 93.6552 64.58C96.2904 59.7362 97.6958 54.1144 97.47 48.1664C97.1939 40.3612 93.9814 33.2084 88.962 27.7623C83.9425 22.3162 79.8517 16.7697 75.5851 11.0476L70.892 4.74815C68.1564 1.08395 62.6852 1.08395 59.9496 4.74815L56.4359 9.49153C51.8181 15.6906 47.2002 21.9147 41.9297 27.5866C36.6593 33.2586 33.3716 40.9635 33.3716 49.3962C33.3716 54.9678 34.8021 60.2131 37.3118 64.7808C41.2521 71.9586 39.8718 80.7426 34.526 86.9166C28.3772 94.0442 24.6377 103.33 24.6377 113.495C24.6377 122.856 27.8 131.464 33.0955 138.341C38.7675 145.694 38.5165 155.984 32.0414 162.61C22.9813 171.896 17.7611 184.946 18.9908 199.227C19.6685 207.183 22.4543 214.611 26.7208 220.986C28.6282 223.822 27.4486 227.587 24.2864 228.867C11.2107 234.212 2 247.037 2 262.045V264.429C2 276.853 12.064 286.917 24.4871 286.917H106.379C118.803 286.917 128.867 276.853 128.867 264.429V262.045C128.867 247.062 119.656 234.237 106.605 228.892Z" fill="url(#paint0_linear_1603_25015)" stroke="black" stroke-width="4" stroke-linecap="round" stroke-linejoin="round"/>
<path d="M48.6055 286.915H82.286L65.4457 229.543L48.6055 286.915Z" fill="#B534C4" stroke="black" stroke-width="4" stroke-linecap="round" stroke-linejoin="round"/>
<path d="M38.9688 68.8454C38.9688 68.8454 65.4464 68.3937 65.4464 50.2734C65.4464 50.2734 68.4329 68.8454 91.9491 68.8454" stroke="black" stroke-width="4" stroke-linecap="round" stroke-linejoin="round"/>
<path d="M65.4439 97.4073C66.8023 97.4073 67.9034 96.3062 67.9034 94.9478C67.9034 93.5894 66.8023 92.4883 65.4439 92.4883C64.0855 92.4883 62.9844 93.5894 62.9844 94.9478C62.9844 96.3062 64.0855 97.4073 65.4439 97.4073Z" stroke="black" stroke-width="4" stroke-linecap="round" stroke-linejoin="round"/>
<path d="M65.4439 126.571C66.8023 126.571 67.9034 125.47 67.9034 124.112C67.9034 122.754 66.8023 121.652 65.4439 121.652C64.0855 121.652 62.9844 122.754 62.9844 124.112C62.9844 125.47 64.0855 126.571 65.4439 126.571Z" stroke="black" stroke-width="4" stroke-linecap="round" stroke-linejoin="round"/>
<path d="M65.4439 156.661C66.8023 156.661 67.9034 155.56 67.9034 154.202C67.9034 152.843 66.8023 151.742 65.4439 151.742C64.0855 151.742 62.9844 152.843 62.9844 154.202C62.9844 155.56 64.0855 156.661 65.4439 156.661Z" stroke="black" stroke-width="4" stroke-linecap="round" stroke-linejoin="round"/>
<path d="M65.4439 198.071C66.8023 198.071 67.9034 196.97 67.9034 195.612C67.9034 194.254 66.8023 193.152 65.4439 193.152C64.0855 193.152 62.9844 194.254 62.9844 195.612C62.9844 196.97 64.0855 198.071 65.4439 198.071Z" stroke="black" stroke-width="4" stroke-linecap="round" stroke-linejoin="round"/>
<defs>
<linearGradient id="paint0_linear_1603_25015" x1="65.4459" y1="12.453" x2="65.4459" y2="281.245" gradientUnits="userSpaceOnUse">
<stop stop-color="#B534C4"/>
<stop offset="0.19" stop-color="#983BC4"/>
<stop offset="0.56" stop-color="#6448C4"/>
<stop offset="0.84" stop-color="#4550C4"/>
<stop offset="1" stop-color="#3954C4"/>
</linearGradient>
</defs>
</svg>
