<svg viewBox="0 0 107 304" fill="none" xmlns="http://www.w3.org/2000/svg">
<path d="M86.1316 279.824H20.3909C14.2746 279.824 9.31641 284.782 9.31641 290.899V290.924C9.31641 297.04 14.2746 301.998 20.3909 301.998H86.1316C92.2479 301.998 97.2061 297.04 97.2061 290.924V290.899C97.2061 284.782 92.2479 279.824 86.1316 279.824Z" fill="#CA6F6D" stroke="black" stroke-width="4" stroke-miterlimit="10"/>
<path d="M83.5326 260.057V71.185C83.5326 67.9812 84.5416 64.8783 86.2823 62.1538C90.8735 54.9642 93.1692 46.1601 92.1601 36.801C90.2176 18.7892 75.6871 4.2334 57.7005 2.2405C34.1135 -0.332622 14.134 18.0828 14.134 41.14C14.134 48.8846 16.3792 56.0994 20.2641 62.179C21.9795 64.8783 22.9886 67.9812 22.9886 71.185V260.032C11.3843 260.032 2 269.441 2 281.02C2 285.057 5.27947 288.336 9.31573 288.336H97.2054C101.242 288.336 104.521 285.057 104.521 281.02C104.521 269.416 95.1116 260.032 83.5326 260.032V260.057Z" fill="#FFA09E" stroke="black" stroke-width="4" stroke-linecap="round" stroke-linejoin="round"/>
<path d="M14.1328 41.1415C37.7954 41.1415 30.6563 21.1367 53.2594 21.1367C75.8625 21.1367 66.4277 41.1415 92.3859 41.1415C92.3859 41.1415 71.6496 57.7658 53.2594 57.7658C34.8691 57.7658 14.1328 41.1415 14.1328 41.1415Z" fill="#CA6F6D" stroke="black" stroke-width="4" stroke-linecap="round" stroke-linejoin="round"/>
<path d="M53.2604 56.1732C62.4975 56.1732 69.9857 48.6851 69.9857 39.4479C69.9857 30.2108 62.4975 22.7227 53.2604 22.7227C44.0233 22.7227 36.5352 30.2108 36.5352 39.4479C36.5352 48.6851 44.0233 56.1732 53.2604 56.1732Z" fill="#FF8846" stroke="black" stroke-width="4" stroke-miterlimit="10"/>
<path d="M36.2812 72.9492C42.2095 76.6323 56.1346 79.9622 69.7066 72.9492" stroke="black" stroke-width="4" stroke-linecap="round" stroke-linejoin="round"/>
<path d="M53.2604 42.9544C55.197 42.9544 56.7669 41.3845 56.7669 39.4479C56.7669 37.5113 55.197 35.9414 53.2604 35.9414C51.3238 35.9414 49.7539 37.5113 49.7539 39.4479C49.7539 41.3845 51.3238 42.9544 53.2604 42.9544Z" stroke="black" stroke-width="4" stroke-linecap="round" stroke-linejoin="round"/>
<path d="M23.1406 99.4648C26.0921 106.806 30.7843 113.466 36.7126 118.713C50.8647 131.25 71.3992 135.589 83.6594 149.994" stroke="black" stroke-width="4" stroke-linecap="round" stroke-linejoin="round"/>
<path d="M23.8711 143.965C28.7146 155.847 40.8991 162.784 52.4025 168.409C63.9058 174.035 76.3426 179.963 82.7249 191.088" stroke="black" stroke-width="4" stroke-linecap="round" stroke-linejoin="round"/>
<path d="M39.9414 197.598C47.5851 202.138 56.0108 205.216 63.8058 209.505C71.6009 213.793 78.967 219.671 82.524 227.819" stroke="black" stroke-width="4" stroke-linecap="round" stroke-linejoin="round"/>
<path d="M31.6172 192.199L31.9451 192.527" stroke="black" stroke-width="4" stroke-linecap="round" stroke-linejoin="round"/>
</svg>
