<svg viewBox="0 0 155 304" fill="none" xmlns="http://www.w3.org/2000/svg">
<path d="M113.219 279.59H37.6971C31.5153 279.59 26.5039 284.601 26.5039 290.783V290.808C26.5039 296.99 31.5153 302.002 37.6971 302.002H113.219C119.401 302.002 124.412 296.99 124.412 290.808V290.783C124.412 284.601 119.401 279.59 113.219 279.59Z" fill="#CA6F6D" stroke="black" stroke-width="4" stroke-miterlimit="10"/>
<path d="M26.5039 215.412H107.227C132.418 215.412 152.841 235.861 152.841 261.026C152.841 276.146 140.552 288.435 125.432 288.435H26.5039V215.387V215.412Z" fill="#CA6F6D" stroke="black" stroke-width="4" stroke-miterlimit="10"/>
<path d="M88.5884 225.303H83.9735V68.7013C83.9735 46.1621 65.7177 27.9062 43.1784 27.9062C20.6391 27.9062 9.29297 46.6465 9.29297 69.1858V269.872C9.29297 280.402 17.8344 288.944 28.3647 288.944L116.202 288.459C124.565 288.459 131.347 281.677 131.347 273.314V268.062C131.347 244.452 112.199 225.303 88.5884 225.303Z" fill="#FFA09E" stroke="black" stroke-width="4" stroke-linecap="round" stroke-linejoin="round"/>
<path d="M90.7033 45.0931C89.0205 42.6454 86.5473 40.8606 84.6096 38.6169C76.3486 29.132 78.1334 12.8905 68.1131 5.26689C64.11 2.23275 58.6537 1.21287 53.8348 2.6407C51.4891 3.32912 49.3218 4.62946 47.5115 6.28676C45.7013 4.60397 43.534 3.32912 41.1883 2.6407C36.3694 1.21287 30.913 2.20725 26.91 5.26689C16.8897 12.8905 18.6745 29.132 10.4135 38.6169C8.45024 40.8606 6.00253 42.6454 4.31973 45.0931C0.852151 50.116 1.46408 57.2551 4.88067 62.3035C8.32275 67.3519 13.9831 71.4314 20.1023 71.6609C29.7147 72.0179 38.0777 68.0403 47.5115 41.3195C57.3788 68.4993 63.8806 72.0179 74.9207 71.6609C81.0145 71.4569 86.7003 67.3519 90.1424 62.3035C93.5845 57.2551 94.1709 50.116 90.7033 45.0931Z" fill="#CA6F6D" stroke="black" stroke-width="4" stroke-linecap="round" stroke-linejoin="round"/>
<path d="M111.484 242.106C115.717 237.542 121.199 234.202 127.19 232.52" stroke="black" stroke-width="4" stroke-linecap="round" stroke-linejoin="round"/>
<path d="M116.863 253.402C121.759 249.552 127.546 246.824 133.64 245.523" stroke="black" stroke-width="4" stroke-linecap="round" stroke-linejoin="round"/>
<path d="M9.29297 199.605C10.6443 190.248 19.9507 184.46 25.1521 176.556C32.6227 165.21 31.1183 150.447 33.5151 137.061C35.0959 128.265 38.5889 119.647 44.5042 112.941C50.4195 106.235 58.9355 101.595 67.8849 101.34" stroke="black" stroke-width="4" stroke-linecap="round" stroke-linejoin="round"/>
<path d="M21.2734 208.784C23.2112 197.872 33.7669 190.784 39.1468 181.095C44.7306 171.049 44.3992 158.938 45.572 147.49C46.7449 136.042 50.5694 123.472 60.6917 118.066" stroke="black" stroke-width="4" stroke-linecap="round" stroke-linejoin="round"/>
</svg>
