<svg width="173" height="285" viewBox="0 0 173 285" fill="none" xmlns="http://www.w3.org/2000/svg">
<rect x="1.5" y="1.5" width="170" height="282" rx="3.5" fill="white" stroke="black" stroke-width="3"/>
<path d="M22.6743 243.377C23.1503 243.286 23.6716 243.218 24.2383 243.173C24.8163 243.116 25.3886 243.088 25.9553 243.088C26.5446 243.088 27.134 243.139 27.7233 243.241C28.324 243.331 28.8623 243.524 29.3383 243.819C29.8143 244.102 30.1996 244.504 30.4943 245.026C30.8003 245.536 30.9533 246.204 30.9533 247.032C30.9533 247.757 30.823 248.38 30.5623 248.902C30.3016 249.412 29.956 249.837 29.5253 250.177C29.0946 250.505 28.6016 250.749 28.0463 250.908C27.5023 251.055 26.9356 251.129 26.3463 251.129C26.2896 251.129 26.199 251.129 26.0743 251.129C25.9496 251.129 25.8193 251.129 25.6833 251.129C25.5473 251.117 25.4113 251.106 25.2753 251.095C25.1506 251.083 25.06 251.072 25.0033 251.061V255.158H22.6743V243.377ZM26.1423 245.094C25.9156 245.094 25.7003 245.105 25.4963 245.128C25.2923 245.139 25.128 245.156 25.0033 245.179V249.038C25.0486 249.049 25.1166 249.06 25.2073 249.072C25.298 249.083 25.3943 249.094 25.4963 249.106C25.5983 249.106 25.6946 249.106 25.7853 249.106C25.8873 249.106 25.961 249.106 26.0063 249.106C26.3123 249.106 26.6126 249.077 26.9073 249.021C27.2133 248.964 27.4853 248.862 27.7233 248.715C27.9613 248.556 28.1483 248.341 28.2843 248.069C28.4316 247.797 28.5053 247.44 28.5053 246.998C28.5053 246.624 28.4373 246.318 28.3013 246.08C28.1653 245.83 27.984 245.632 27.7573 245.485C27.542 245.337 27.2926 245.235 27.0093 245.179C26.726 245.122 26.437 245.094 26.1423 245.094ZM33.1567 247.236C33.61 247.032 34.1313 246.856 34.7207 246.709C35.3213 246.561 36.0297 246.488 36.8457 246.488C37.435 246.488 37.9337 246.561 38.3417 246.709C38.761 246.845 39.0953 247.043 39.3447 247.304C39.6053 247.564 39.7923 247.876 39.9057 248.239C40.019 248.601 40.0757 249.009 40.0757 249.463C40.0757 250.041 40.053 250.534 40.0077 250.942C39.9737 251.35 39.9567 251.712 39.9567 252.03C39.9567 252.268 39.968 252.534 39.9907 252.829C40.0133 252.987 40.0303 253.14 40.0417 253.288H41.1467V255.158H38.3247L38.1037 254.002H38.0187C37.792 254.353 37.469 254.659 37.0497 254.92C36.6303 255.169 36.0637 255.294 35.3497 255.294C34.4997 255.294 33.8253 255.067 33.3267 254.614C32.828 254.16 32.5787 253.56 32.5787 252.812C32.5787 252.336 32.6637 251.928 32.8337 251.588C33.015 251.236 33.27 250.953 33.5987 250.738C33.9387 250.511 34.341 250.347 34.8057 250.245C35.2817 250.131 35.8087 250.075 36.3867 250.075C36.5907 250.075 36.806 250.086 37.0327 250.109C37.2593 250.131 37.537 250.154 37.8657 250.177C37.8883 250.063 37.8997 249.95 37.8997 249.837V249.514C37.8997 249.083 37.775 248.777 37.5257 248.596C37.2763 248.403 36.908 248.307 36.4207 248.307C35.8427 248.307 35.3213 248.38 34.8567 248.528C34.392 248.675 34.001 248.822 33.6837 248.97L33.1567 247.236ZM36.0637 253.475C36.6077 253.475 37.0157 253.378 37.2877 253.186C37.5597 252.982 37.758 252.766 37.8827 252.54V251.52C37.7693 251.497 37.5993 251.474 37.3727 251.452C37.146 251.418 36.9023 251.401 36.6417 251.401C36.4263 251.401 36.211 251.423 35.9957 251.469C35.7803 251.503 35.5877 251.565 35.4177 251.656C35.2477 251.735 35.1117 251.843 35.0097 251.979C34.9077 252.115 34.8567 252.279 34.8567 252.472C34.8567 252.789 34.9473 253.038 35.1287 253.22C35.3213 253.39 35.633 253.475 36.0637 253.475ZM44.251 248.256C44.6704 247.757 45.1634 247.4 45.73 247.185C46.308 246.958 46.9144 246.845 47.549 246.845C48.059 246.845 48.5464 246.924 49.011 247.083C49.487 247.241 49.9007 247.485 50.252 247.814C50.6147 248.142 50.898 248.562 51.102 249.072C51.3174 249.57 51.425 250.165 51.425 250.857C51.425 251.582 51.306 252.228 51.068 252.795C50.8414 253.361 50.524 253.837 50.116 254.223C49.7194 254.608 49.249 254.903 48.705 255.107C48.161 255.299 47.5774 255.396 46.954 255.396C46.274 255.396 45.6507 255.288 45.084 255.073C44.5287 254.857 44.047 254.529 43.639 254.087C43.2424 253.645 42.9364 253.084 42.721 252.404C42.5057 251.724 42.398 250.925 42.398 250.007C42.398 249.032 42.466 248.199 42.602 247.508C42.738 246.816 42.9307 246.233 43.18 245.757C43.4294 245.281 43.7184 244.901 44.047 244.618C44.387 244.334 44.7497 244.113 45.135 243.955C45.5317 243.785 45.9454 243.666 46.376 243.598C46.818 243.53 47.2657 243.473 47.719 243.428C48.3084 243.371 48.8127 243.303 49.232 243.224C49.6514 243.133 49.963 242.991 50.167 242.799L50.252 244.754C50.0254 244.946 49.7024 245.082 49.283 245.162C48.8637 245.241 48.297 245.309 47.583 245.366C47.1524 245.4 46.7444 245.456 46.359 245.536C45.985 245.615 45.645 245.757 45.339 245.961C45.0444 246.165 44.795 246.448 44.591 246.811C44.3984 247.173 44.268 247.655 44.2 248.256H44.251ZM44.676 251.01C44.676 251.372 44.7384 251.707 44.863 252.013C44.9877 252.319 45.152 252.585 45.356 252.812C45.56 253.038 45.798 253.214 46.07 253.339C46.342 253.463 46.6254 253.526 46.92 253.526C47.226 253.526 47.5094 253.475 47.77 253.373C48.042 253.259 48.28 253.095 48.484 252.88C48.688 252.664 48.8467 252.404 48.96 252.098C49.0847 251.78 49.147 251.418 49.147 251.01C49.147 250.647 49.0904 250.324 48.977 250.041C48.8637 249.757 48.705 249.519 48.501 249.327C48.3084 249.123 48.0817 248.97 47.821 248.868C47.5717 248.766 47.3054 248.715 47.022 248.715C46.716 248.715 46.4214 248.771 46.138 248.885C45.8547 248.987 45.6054 249.14 45.39 249.344C45.1747 249.536 44.999 249.774 44.863 250.058C44.7384 250.341 44.676 250.658 44.676 251.01ZM52.6084 250.908C52.6084 250.194 52.7161 249.559 52.9314 249.004C53.1467 248.448 53.4527 247.978 53.8494 247.593C54.2461 247.207 54.7164 246.918 55.2604 246.726C55.8157 246.522 56.4334 246.42 57.1134 246.42C57.8274 246.42 58.4621 246.527 59.0174 246.743C59.5841 246.958 60.0601 247.264 60.4454 247.661C60.8307 248.046 61.1197 248.516 61.3124 249.072C61.5164 249.627 61.6184 250.239 61.6184 250.908C61.6184 251.622 61.5107 252.256 61.2954 252.812C61.0801 253.367 60.7741 253.837 60.3774 254.223C59.9807 254.608 59.5047 254.903 58.9494 255.107C58.4054 255.299 57.7934 255.396 57.1134 255.396C56.3994 255.396 55.7591 255.288 55.1924 255.073C54.6371 254.857 54.1667 254.557 53.7814 254.172C53.3961 253.775 53.1014 253.299 52.8974 252.744C52.7047 252.188 52.6084 251.576 52.6084 250.908ZM54.8864 250.908C54.8864 251.282 54.9374 251.627 55.0394 251.945C55.1414 252.262 55.2887 252.54 55.4814 252.778C55.6741 253.016 55.9064 253.203 56.1784 253.339C56.4504 253.463 56.7621 253.526 57.1134 253.526C57.7707 253.526 58.3034 253.316 58.7114 252.897C59.1307 252.477 59.3404 251.814 59.3404 250.908C59.3404 250.126 59.1477 249.497 58.7624 249.021C58.3771 248.533 57.8274 248.29 57.1134 248.29C56.7961 248.29 56.5014 248.341 56.2294 248.443C55.9574 248.533 55.7194 248.686 55.5154 248.902C55.3227 249.117 55.1697 249.389 55.0564 249.718C54.9431 250.046 54.8864 250.443 54.8864 250.908ZM63.9577 253.288H66.1677V248.613H64.8247V250.058H62.9377V246.658H71.6757V250.058H69.8057V248.613H68.4457V253.288H70.6557V255.158H63.9577V253.288ZM73.9301 247.236C74.3834 247.032 74.9048 246.856 75.4941 246.709C76.0948 246.561 76.8031 246.488 77.6191 246.488C78.2084 246.488 78.7071 246.561 79.1151 246.709C79.5344 246.845 79.8688 247.043 80.1181 247.304C80.3788 247.564 80.5658 247.876 80.6791 248.239C80.7924 248.601 80.8491 249.009 80.8491 249.463C80.8491 250.041 80.8264 250.534 80.7811 250.942C80.7471 251.35 80.7301 251.712 80.7301 252.03C80.7301 252.268 80.7414 252.534 80.7641 252.829C80.7868 252.987 80.8038 253.14 80.8151 253.288H81.9201V255.158H79.0981L78.8771 254.002H78.7921C78.5654 254.353 78.2424 254.659 77.8231 254.92C77.4038 255.169 76.8371 255.294 76.1231 255.294C75.2731 255.294 74.5988 255.067 74.1001 254.614C73.6014 254.16 73.3521 253.56 73.3521 252.812C73.3521 252.336 73.4371 251.928 73.6071 251.588C73.7884 251.236 74.0434 250.953 74.3721 250.738C74.7121 250.511 75.1144 250.347 75.5791 250.245C76.0551 250.131 76.5821 250.075 77.1601 250.075C77.3641 250.075 77.5794 250.086 77.8061 250.109C78.0328 250.131 78.3104 250.154 78.6391 250.177C78.6618 250.063 78.6731 249.95 78.6731 249.837V249.514C78.6731 249.083 78.5484 248.777 78.2991 248.596C78.0498 248.403 77.6814 248.307 77.1941 248.307C76.6161 248.307 76.0948 248.38 75.6301 248.528C75.1654 248.675 74.7744 248.822 74.4571 248.97L73.9301 247.236ZM76.8371 253.475C77.3811 253.475 77.7891 253.378 78.0611 253.186C78.3331 252.982 78.5314 252.766 78.6561 252.54V251.52C78.5428 251.497 78.3728 251.474 78.1461 251.452C77.9194 251.418 77.6758 251.401 77.4151 251.401C77.1998 251.401 76.9844 251.423 76.7691 251.469C76.5538 251.503 76.3611 251.565 76.1911 251.656C76.0211 251.735 75.8851 251.843 75.7831 251.979C75.6811 252.115 75.6301 252.279 75.6301 252.472C75.6301 252.789 75.7208 253.038 75.9021 253.22C76.0948 253.39 76.4064 253.475 76.8371 253.475ZM92.7868 249.276H102.987V251.231H92.7868V249.276ZM116.149 249.905L116.183 251.333H116.251L116.54 249.99L117.56 246.828H119.294L120.246 249.99L120.552 251.333H120.62L120.654 249.871L121.13 243.258H123.272L122.048 255.158H120.076L118.801 251.401L118.41 249.769H118.325L117.917 251.401L116.54 255.158H114.5L113.276 243.258H115.605L116.149 249.905ZM123.979 249.208C123.979 248.244 124.07 247.377 124.251 246.607C124.432 245.836 124.71 245.19 125.084 244.669C125.458 244.136 125.923 243.728 126.478 243.445C127.045 243.161 127.708 243.02 128.467 243.02C129.283 243.02 129.974 243.173 130.541 243.479C131.108 243.785 131.567 244.21 131.918 244.754C132.281 245.298 132.541 245.949 132.7 246.709C132.87 247.468 132.955 248.301 132.955 249.208C132.955 251.146 132.581 252.664 131.833 253.764C131.096 254.852 129.974 255.396 128.467 255.396C127.651 255.396 126.954 255.243 126.376 254.937C125.809 254.631 125.345 254.206 124.982 253.662C124.631 253.118 124.376 252.466 124.217 251.707C124.058 250.947 123.979 250.114 123.979 249.208ZM126.427 249.208C126.427 249.786 126.45 250.324 126.495 250.823C126.552 251.321 126.648 251.758 126.784 252.132C126.931 252.494 127.135 252.783 127.396 252.999C127.668 253.214 128.025 253.322 128.467 253.322C128.864 253.322 129.192 253.242 129.453 253.084C129.714 252.914 129.923 252.659 130.082 252.319C130.241 251.979 130.348 251.554 130.405 251.044C130.473 250.522 130.507 249.91 130.507 249.208C130.507 248.652 130.484 248.125 130.439 247.627C130.405 247.128 130.314 246.692 130.167 246.318C130.031 245.944 129.827 245.649 129.555 245.434C129.283 245.207 128.92 245.094 128.467 245.094C127.674 245.094 127.135 245.439 126.852 246.131C126.569 246.822 126.427 247.848 126.427 249.208ZM134.614 243.377C134.875 243.331 135.153 243.292 135.447 243.258C135.753 243.212 136.054 243.178 136.348 243.156C136.654 243.133 136.949 243.116 137.232 243.105C137.516 243.093 137.776 243.088 138.014 243.088C138.57 243.088 139.114 243.144 139.646 243.258C140.19 243.36 140.672 243.541 141.091 243.802C141.522 244.062 141.862 244.414 142.111 244.856C142.372 245.298 142.502 245.847 142.502 246.505C142.502 246.992 142.451 247.417 142.349 247.78C142.259 248.131 142.128 248.443 141.958 248.715C141.788 248.987 141.579 249.225 141.329 249.429C141.091 249.621 140.831 249.797 140.547 249.956L143.42 255.158H140.734L138.337 250.5H136.943V255.158H134.614V243.377ZM138.184 245.162C137.946 245.162 137.708 245.167 137.47 245.179C137.244 245.19 137.068 245.213 136.943 245.247V248.698H137.861C138.507 248.698 139.034 248.55 139.442 248.256C139.85 247.961 140.054 247.474 140.054 246.794C140.054 246.284 139.896 245.887 139.578 245.604C139.261 245.309 138.796 245.162 138.184 245.162ZM148.106 250.194H146.899V255.158H144.57V243.258H146.899V248.12H148.106L150.826 243.258H153.478L150.129 249.004L153.903 255.158H151.03L148.106 250.194Z" fill="black"/>
<path d="M38.6229 23.4642C39.4069 23.3148 40.2656 23.2028 41.1989 23.1282C42.1509 23.0348 43.0936 22.9882 44.0269 22.9882C44.9976 22.9882 45.9682 23.0722 46.9389 23.2402C47.9282 23.3895 48.8149 23.7068 49.5989 24.1922C50.3829 24.6588 51.0176 25.3215 51.5029 26.1802C52.0069 27.0202 52.2589 28.1215 52.2589 29.4842C52.2589 30.6788 52.0442 31.7055 51.6149 32.5642C51.1856 33.4042 50.6162 34.1042 49.9069 34.6642C49.1976 35.2055 48.3856 35.6068 47.4709 35.8682C46.5749 36.1108 45.6416 36.2322 44.6709 36.2322C44.5776 36.2322 44.4282 36.2322 44.2229 36.2322C44.0176 36.2322 43.8029 36.2322 43.5789 36.2322C43.3549 36.2135 43.1309 36.1948 42.9069 36.1762C42.7016 36.1575 42.5522 36.1388 42.4589 36.1202V42.8682H38.6229V23.4642ZM44.3349 26.2922C43.9616 26.2922 43.6069 26.3108 43.2709 26.3482C42.9349 26.3668 42.6642 26.3948 42.4589 26.4322V32.7882C42.5336 32.8068 42.6456 32.8255 42.7949 32.8442C42.9442 32.8628 43.1029 32.8815 43.2709 32.9002C43.4389 32.9002 43.5976 32.9002 43.7469 32.9002C43.9149 32.9002 44.0362 32.9002 44.1109 32.9002C44.6149 32.9002 45.1096 32.8535 45.5949 32.7602C46.0989 32.6668 46.5469 32.4988 46.9389 32.2562C47.3309 31.9948 47.6389 31.6402 47.8629 31.1922C48.1056 30.7442 48.2269 30.1562 48.2269 29.4282C48.2269 28.8122 48.1149 28.3082 47.8909 27.9162C47.6669 27.5055 47.3682 27.1788 46.9949 26.9362C46.6402 26.6935 46.2296 26.5255 45.7629 26.4322C45.2962 26.3388 44.8202 26.2922 44.3349 26.2922ZM55.888 29.8202C56.6346 29.4842 57.4933 29.1948 58.464 28.9522C59.4533 28.7095 60.62 28.5882 61.964 28.5882C62.9346 28.5882 63.756 28.7095 64.428 28.9522C65.1186 29.1762 65.6693 29.5028 66.08 29.9322C66.5093 30.3615 66.8173 30.8748 67.004 31.4722C67.1906 32.0695 67.284 32.7415 67.284 33.4882C67.284 34.4402 67.2466 35.2522 67.172 35.9242C67.116 36.5962 67.088 37.1935 67.088 37.7162C67.088 38.1082 67.1066 38.5468 67.144 39.0322C67.1813 39.2935 67.2093 39.5455 67.228 39.7882H69.048V42.8682H64.4L64.036 40.9642H63.896C63.5226 41.5428 62.9906 42.0468 62.3 42.4762C61.6093 42.8868 60.676 43.0922 59.5 43.0922C58.1 43.0922 56.9893 42.7188 56.168 41.9722C55.3466 41.2255 54.936 40.2362 54.936 39.0042C54.936 38.2202 55.076 37.5482 55.356 36.9882C55.6546 36.4095 56.0746 35.9428 56.616 35.5882C57.176 35.2148 57.8386 34.9442 58.604 34.7762C59.388 34.5895 60.256 34.4962 61.208 34.4962C61.544 34.4962 61.8986 34.5148 62.272 34.5522C62.6453 34.5895 63.1026 34.6268 63.644 34.6642C63.6813 34.4775 63.7 34.2908 63.7 34.1042V33.5722C63.7 32.8628 63.4946 32.3588 63.084 32.0602C62.6733 31.7428 62.0666 31.5842 61.264 31.5842C60.312 31.5842 59.4533 31.7055 58.688 31.9482C57.9226 32.1908 57.2786 32.4335 56.756 32.6762L55.888 29.8202ZM60.676 40.0962C61.572 40.0962 62.244 39.9375 62.692 39.6202C63.14 39.2842 63.4666 38.9295 63.672 38.5562V36.8762C63.4853 36.8388 63.2053 36.8015 62.832 36.7642C62.4586 36.7082 62.0573 36.6802 61.628 36.6802C61.2733 36.6802 60.9186 36.7175 60.564 36.7922C60.2093 36.8482 59.892 36.9508 59.612 37.1002C59.332 37.2308 59.108 37.4082 58.94 37.6322C58.772 37.8562 58.688 38.1268 58.688 38.4442C58.688 38.9668 58.8373 39.3775 59.136 39.6762C59.4533 39.9562 59.9666 40.0962 60.676 40.0962ZM74.161 31.5002C74.8517 30.6788 75.6637 30.0908 76.597 29.7362C77.549 29.3628 78.5477 29.1762 79.593 29.1762C80.433 29.1762 81.2357 29.3068 82.001 29.5682C82.785 29.8295 83.4664 30.2308 84.045 30.7722C84.6424 31.3135 85.109 32.0042 85.445 32.8442C85.7997 33.6655 85.977 34.6455 85.977 35.7842C85.977 36.9788 85.781 38.0428 85.389 38.9762C85.0157 39.9095 84.493 40.6935 83.821 41.3282C83.1677 41.9628 82.393 42.4482 81.497 42.7842C80.601 43.1015 79.6397 43.2602 78.613 43.2602C77.493 43.2602 76.4664 43.0828 75.533 42.7282C74.6184 42.3735 73.825 41.8322 73.153 41.1042C72.4997 40.3762 71.9957 39.4522 71.641 38.3322C71.2864 37.2122 71.109 35.8962 71.109 34.3842C71.109 32.7788 71.221 31.4068 71.445 30.2682C71.669 29.1295 71.9864 28.1682 72.397 27.3842C72.8077 26.6002 73.2837 25.9748 73.825 25.5082C74.385 25.0415 74.9824 24.6775 75.617 24.4162C76.2704 24.1362 76.9517 23.9402 77.661 23.8282C78.389 23.7162 79.1264 23.6228 79.873 23.5482C80.8437 23.4548 81.6744 23.3428 82.365 23.2122C83.0557 23.0628 83.569 22.8295 83.905 22.5122L84.045 25.7322C83.6717 26.0495 83.1397 26.2735 82.449 26.4042C81.7584 26.5348 80.825 26.6468 79.649 26.7402C78.9397 26.7962 78.2677 26.8895 77.633 27.0202C77.017 27.1508 76.457 27.3842 75.953 27.7202C75.4677 28.0562 75.057 28.5228 74.721 29.1202C74.4037 29.7175 74.189 30.5108 74.077 31.5002H74.161ZM74.861 36.0362C74.861 36.6335 74.9637 37.1842 75.169 37.6882C75.3744 38.1922 75.645 38.6308 75.981 39.0042C76.317 39.3775 76.709 39.6668 77.157 39.8722C77.605 40.0775 78.0717 40.1802 78.557 40.1802C79.061 40.1802 79.5277 40.0962 79.957 39.9282C80.405 39.7415 80.797 39.4708 81.133 39.1162C81.469 38.7615 81.7304 38.3322 81.917 37.8282C82.1224 37.3055 82.225 36.7082 82.225 36.0362C82.225 35.4388 82.1317 34.9068 81.945 34.4402C81.7584 33.9735 81.497 33.5815 81.161 33.2642C80.8437 32.9282 80.4704 32.6762 80.041 32.5082C79.6304 32.3402 79.1917 32.2562 78.725 32.2562C78.221 32.2562 77.7357 32.3495 77.269 32.5362C76.8024 32.7042 76.3917 32.9562 76.037 33.2922C75.6824 33.6095 75.393 34.0015 75.169 34.4682C74.9637 34.9348 74.861 35.4575 74.861 36.0362ZM87.9261 35.8682C87.9261 34.6922 88.1034 33.6468 88.4581 32.7322C88.8128 31.8175 89.3168 31.0428 89.9701 30.4082C90.6234 29.7735 91.3981 29.2975 92.2941 28.9802C93.2088 28.6442 94.2261 28.4762 95.3461 28.4762C96.5221 28.4762 97.5674 28.6535 98.4821 29.0082C99.4154 29.3628 100.199 29.8668 100.834 30.5202C101.469 31.1548 101.945 31.9295 102.262 32.8442C102.598 33.7588 102.766 34.7668 102.766 35.8682C102.766 37.0442 102.589 38.0895 102.234 39.0042C101.879 39.9188 101.375 40.6935 100.722 41.3282C100.069 41.9628 99.2848 42.4482 98.3701 42.7842C97.4741 43.1015 96.4661 43.2602 95.3461 43.2602C94.1701 43.2602 93.1154 43.0828 92.1821 42.7282C91.2674 42.3735 90.4928 41.8788 89.8581 41.2442C89.2234 40.5908 88.7381 39.8068 88.4021 38.8922C88.0848 37.9775 87.9261 36.9695 87.9261 35.8682ZM91.6781 35.8682C91.6781 36.4842 91.7621 37.0535 91.9301 37.5762C92.0981 38.0988 92.3408 38.5562 92.6581 38.9482C92.9754 39.3402 93.3581 39.6482 93.8061 39.8722C94.2541 40.0775 94.7674 40.1802 95.3461 40.1802C96.4288 40.1802 97.3061 39.8348 97.9781 39.1442C98.6688 38.4535 99.0141 37.3615 99.0141 35.8682C99.0141 34.5802 98.6968 33.5442 98.0621 32.7602C97.4274 31.9575 96.5221 31.5562 95.3461 31.5562C94.8234 31.5562 94.3381 31.6402 93.8901 31.8082C93.4421 31.9575 93.0501 32.2095 92.7141 32.5642C92.3968 32.9188 92.1448 33.3668 91.9581 33.9082C91.7714 34.4495 91.6781 35.1028 91.6781 35.8682ZM106.619 39.7882H110.259V32.0882H108.047V34.4682H104.939V28.8682H119.331V34.4682H116.251V32.0882H114.011V39.7882H117.651V42.8682H106.619V39.7882ZM123.044 29.8202C123.791 29.4842 124.65 29.1948 125.62 28.9522C126.61 28.7095 127.776 28.5882 129.12 28.5882C130.091 28.5882 130.912 28.7095 131.584 28.9522C132.275 29.1762 132.826 29.5028 133.236 29.9322C133.666 30.3615 133.974 30.8748 134.16 31.4722C134.347 32.0695 134.44 32.7415 134.44 33.4882C134.44 34.4402 134.403 35.2522 134.328 35.9242C134.272 36.5962 134.244 37.1935 134.244 37.7162C134.244 38.1082 134.263 38.5468 134.3 39.0322C134.338 39.2935 134.366 39.5455 134.384 39.7882H136.204V42.8682H131.556L131.192 40.9642H131.052C130.679 41.5428 130.147 42.0468 129.456 42.4762C128.766 42.8868 127.832 43.0922 126.656 43.0922C125.256 43.0922 124.146 42.7188 123.324 41.9722C122.503 41.2255 122.092 40.2362 122.092 39.0042C122.092 38.2202 122.232 37.5482 122.512 36.9882C122.811 36.4095 123.231 35.9428 123.772 35.5882C124.332 35.2148 124.995 34.9442 125.76 34.7762C126.544 34.5895 127.412 34.4962 128.364 34.4962C128.7 34.4962 129.055 34.5148 129.428 34.5522C129.802 34.5895 130.259 34.6268 130.8 34.6642C130.838 34.4775 130.856 34.2908 130.856 34.1042V33.5722C130.856 32.8628 130.651 32.3588 130.24 32.0602C129.83 31.7428 129.223 31.5842 128.42 31.5842C127.468 31.5842 126.61 31.7055 125.844 31.9482C125.079 32.1908 124.435 32.4335 123.912 32.6762L123.044 29.8202ZM127.832 40.0962C128.728 40.0962 129.4 39.9375 129.848 39.6202C130.296 39.2842 130.623 38.9295 130.828 38.5562V36.8762C130.642 36.8388 130.362 36.8015 129.988 36.7642C129.615 36.7082 129.214 36.6802 128.784 36.6802C128.43 36.6802 128.075 36.7175 127.72 36.7922C127.366 36.8482 127.048 36.9508 126.768 37.1002C126.488 37.2308 126.264 37.4082 126.096 37.6322C125.928 37.8562 125.844 38.1268 125.844 38.4442C125.844 38.9668 125.994 39.3775 126.292 39.6762C126.61 39.9562 127.123 40.0962 127.832 40.0962ZM39.5804 68.3522H33.6164V73.8682H29.9764V59.8682H33.6164V65.1322H39.5804V59.8682H43.2204V73.8682H39.5804V68.3522ZM59.9254 72.3842C59.6828 72.6082 59.3654 72.8322 58.9734 73.0562C58.6001 73.2615 58.1521 73.4575 57.6294 73.6442C57.1254 73.8308 56.5654 73.9802 55.9494 74.0922C55.3334 74.2042 54.6801 74.2602 53.9894 74.2602C52.7948 74.2602 51.7214 74.0922 50.7694 73.7562C49.8361 73.4202 49.0428 72.9348 48.3894 72.3002C47.7361 71.6468 47.2321 70.8722 46.8774 69.9762C46.5414 69.0615 46.3734 68.0255 46.3734 66.8682C46.3734 65.6362 46.5694 64.5628 46.9614 63.6482C47.3534 62.7148 47.8854 61.9402 48.5574 61.3242C49.2481 60.7082 50.0508 60.2508 50.9654 59.9522C51.8801 59.6348 52.8694 59.4762 53.9334 59.4762C54.6428 59.4762 55.3708 59.5695 56.1174 59.7562C56.8828 59.9428 57.5828 60.2695 58.2174 60.7362C58.8521 61.1842 59.3654 61.7908 59.7574 62.5562C60.1681 63.3215 60.3734 64.2922 60.3734 65.4682C60.3734 66.2708 60.2801 67.1388 60.0934 68.0722H50.0134C50.0321 68.6695 50.1534 69.1735 50.3774 69.5842C50.6201 69.9948 50.9281 70.3308 51.3014 70.5922C51.6934 70.8535 52.1321 71.0495 52.6174 71.1802C53.1214 71.2922 53.6534 71.3482 54.2134 71.3482C55.3334 71.3482 56.2481 71.2175 56.9574 70.9562C57.6854 70.6948 58.2734 70.3775 58.7214 70.0042L59.9254 72.3842ZM53.8774 62.3882C53.3921 62.3882 52.9348 62.4535 52.5054 62.5842C52.0761 62.7148 51.6841 62.9108 51.3294 63.1722C50.9934 63.4148 50.7134 63.7228 50.4894 64.0962C50.2654 64.4695 50.1348 64.8895 50.0974 65.3562H56.9854C56.9854 64.4415 56.7241 63.7228 56.2014 63.2002C55.6974 62.6588 54.9228 62.3882 53.8774 62.3882ZM80.6796 59.8962C80.9969 59.8775 81.3982 59.8495 81.8836 59.8122C82.3876 59.7748 82.9289 59.7468 83.5076 59.7282C84.1049 59.7095 84.7302 59.6908 85.3836 59.6722C86.0556 59.6535 86.7182 59.6442 87.3716 59.6442C89.4809 59.6442 91.0116 59.9428 91.9636 60.5402C92.9156 61.1188 93.3916 61.9962 93.3916 63.1722C93.3916 63.8255 93.1956 64.4602 92.8036 65.0762C92.4116 65.6735 91.7396 66.1215 90.7876 66.4202V66.5322C91.9449 66.6628 92.7569 67.0362 93.2236 67.6522C93.6902 68.2682 93.9236 69.0242 93.9236 69.9202C93.9236 71.3015 93.3262 72.3468 92.1316 73.0562C90.9556 73.7468 89.0142 74.0922 86.3076 74.0922C85.9156 74.0922 85.4582 74.0828 84.9356 74.0642C84.4316 74.0642 83.9182 74.0455 83.3956 74.0082C82.8729 73.9895 82.3689 73.9615 81.8836 73.9242C81.3982 73.9055 80.9969 73.8775 80.6796 73.8402V59.8962ZM84.2356 71.0682C84.3662 71.0868 84.5342 71.1055 84.7396 71.1242C84.9449 71.1428 85.1596 71.1615 85.3836 71.1802C85.6076 71.1802 85.8316 71.1802 86.0556 71.1802C86.2796 71.1802 86.4756 71.1802 86.6436 71.1802C87.9129 71.1802 88.8369 71.0402 89.4156 70.7602C89.9942 70.4802 90.2836 70.0508 90.2836 69.4722C90.2836 68.9868 90.0316 68.5948 89.5276 68.2962C89.0422 67.9788 88.1836 67.8202 86.9516 67.8202H84.2356V71.0682ZM87.0076 65.5802C87.9409 65.5802 88.6502 65.4402 89.1356 65.1602C89.6396 64.8615 89.8916 64.4882 89.8916 64.0402C89.8916 63.5548 89.6582 63.1908 89.1916 62.9482C88.7249 62.6868 87.9222 62.5562 86.7836 62.5562C86.3542 62.5562 85.8689 62.5655 85.3276 62.5842C84.8049 62.6028 84.4409 62.6215 84.2356 62.6402V65.5802H87.0076ZM96.3206 66.8682C96.3206 65.6922 96.498 64.6468 96.8526 63.7322C97.2073 62.8175 97.7113 62.0428 98.3646 61.4082C99.018 60.7735 99.7926 60.2975 100.689 59.9802C101.603 59.6442 102.621 59.4762 103.741 59.4762C104.917 59.4762 105.962 59.6535 106.877 60.0082C107.81 60.3628 108.594 60.8668 109.229 61.5202C109.863 62.1548 110.339 62.9295 110.657 63.8442C110.993 64.7588 111.161 65.7668 111.161 66.8682C111.161 68.0442 110.983 69.0895 110.629 70.0042C110.274 70.9188 109.77 71.6935 109.117 72.3282C108.463 72.9628 107.679 73.4482 106.765 73.7842C105.869 74.1015 104.861 74.2602 103.741 74.2602C102.565 74.2602 101.51 74.0828 100.577 73.7282C99.662 73.3735 98.8873 72.8788 98.2526 72.2442C97.618 71.5908 97.1326 70.8068 96.7966 69.8922C96.4793 68.9775 96.3206 67.9695 96.3206 66.8682ZM100.073 66.8682C100.073 67.4842 100.157 68.0535 100.325 68.5762C100.493 69.0988 100.735 69.5562 101.053 69.9482C101.37 70.3402 101.753 70.6482 102.201 70.8722C102.649 71.0775 103.162 71.1802 103.741 71.1802C104.823 71.1802 105.701 70.8348 106.373 70.1442C107.063 69.4535 107.409 68.3615 107.409 66.8682C107.409 65.5802 107.091 64.5442 106.457 63.7602C105.822 62.9575 104.917 62.5562 103.741 62.5562C103.218 62.5562 102.733 62.6402 102.285 62.8082C101.837 62.9575 101.445 63.2095 101.109 63.5642C100.791 63.9188 100.539 64.3668 100.353 64.9082C100.166 65.4495 100.073 66.1028 100.073 66.8682ZM123.022 63.0882H119.41C119.298 64.4135 119.148 65.7295 118.962 67.0362C118.794 68.3428 118.523 69.5188 118.15 70.5642C117.795 71.5908 117.319 72.4308 116.722 73.0842C116.143 73.7188 115.406 74.0362 114.51 74.0362C113.427 74.0362 112.662 73.8962 112.214 73.6162L112.662 70.5922C112.96 70.7042 113.24 70.7602 113.502 70.7602C113.875 70.7602 114.211 70.6015 114.51 70.2842C114.827 69.9668 115.098 69.3975 115.322 68.5762C115.564 67.7548 115.76 66.6442 115.91 65.2442C116.059 63.8255 116.162 62.0335 116.218 59.8682H126.662V73.8682H123.022V63.0882ZM136.507 68.3522H134.687V73.8682H131.047V59.8682H134.687V65.5522H136.171L140.791 59.8682H144.907L139.335 66.3922L142.779 70.7882H145.243V73.8682H141.043L136.507 68.3522Z" fill="black"/>
<ellipse cx="160.303" cy="11.114" rx="2.38073" ry="2.38162" fill="black"/>
<ellipse cx="165.064" cy="273.886" rx="2.38073" ry="2.38162" fill="black"/>
<ellipse cx="11.9037" cy="11.114" rx="2.38073" ry="2.38162" fill="black"/>
<ellipse cx="11.9037" cy="273.886" rx="2.38073" ry="2.38162" fill="black"/>
<path d="M69.0415 111.493C77.3793 111.493 86.0458 114.548 94.3953 113.452C96.1094 113.228 98.034 113.067 99.7361 113.452C100.654 113.661 101.424 113.732 102.277 113.353C104.678 112.29 106.859 109.952 109.107 108.445C112.616 106.092 120.634 98.1561 125.328 101.735C127.891 103.688 128.569 109.043 128.703 112.067C128.928 117.114 129.51 122.115 129.776 127.149C130.158 134.399 130.811 142.108 129.875 149.338C129.534 151.973 130.071 154.668 129.617 157.295C129.071 160.45 128.723 163.501 128.723 166.697C128.723 168.734 128.887 170.686 129.16 172.694C129.371 174.243 129.271 175.89 129.617 177.405C129.967 178.941 130.738 180.196 131.225 181.68C132.885 186.738 132.637 192.917 132.218 198.148C131.955 201.419 131.418 204.747 131.761 208.025C131.893 209.286 132.413 211.174 131.225 211.964" stroke="black" stroke-width="3" stroke-linecap="round"/>
<path d="M68.2478 111.967C67.7583 111.905 67.7912 111.016 67.5461 110.623C65.9768 108.103 64.3972 105.591 62.7122 103.15C61.1727 100.919 60.4726 97.3376 58.2487 95.776C56.9495 94.8638 55.8941 94.1382 54.3894 93.7991C51.307 93.1043 50.9282 95.4721 50.4326 98.2867C49.3198 104.608 47.5479 111.171 47.5479 117.641C47.5479 119.473 47.5903 121.203 47.1971 122.999C47.0458 123.689 46.8167 125.972 46.4174 126.478C46.0089 126.996 45.7121 128.027 45.3649 128.692C44.4438 130.457 43.2492 131.758 42.1098 133.358C39.0061 137.716 37.9234 143.242 36.2429 148.185C35.0284 151.757 34.9175 154.616 34.9175 158.406C34.9175 160.895 35.97 163.29 35.97 165.74C35.97 166.91 36.8535 170.265 35.6192 170.682" stroke="black" stroke-width="3" stroke-linecap="round"/>
<path d="M69.6583 142.897C66.2143 146.381 61.8231 148.597 57.8232 151.322C54.6652 153.474 51.6756 155.86 48.5158 158.023C45.2319 160.27 41.1236 163.394 39.1301 167.003C37.9528 169.135 36.5044 171.126 36.5044 173.744C36.5044 175.326 37.1693 176.534 37.5625 178.026C38.1568 180.28 39.0397 182.964 40.2078 184.964C41.4315 187.059 42.9672 189.442 45.6746 188.85C51.8282 187.503 57.9634 186.182 64.1914 185.202C68.0915 184.588 71.6563 184.442 75.4975 183.299C78.4371 182.424 81.3223 181.861 84.315 181.356C89.6101 180.463 94.6197 178.937 99.9906 178.937" stroke="black" stroke-width="3" stroke-linecap="round"/>
<path d="M39.2148 167.507C43.0094 167.507 47.1559 169.706 49.488 172.421C50.7717 173.915 49.3725 175.118 48.0323 176.111C47.0872 176.811 44.5618 177.254 43.4156 176.92C42.4276 176.633 38.9881 173.812 38.0918 174.623" stroke="black" stroke-width="3" stroke-linecap="round"/>
<path d="M60.8862 139.407C58.671 137.566 59.3586 143.153 61.4369 140.655C63.4641 138.218 58.0435 138.791 60.1237 139.763" stroke="black" stroke-width="3" stroke-linecap="round"/>
<path d="M92.0551 149.529C91.6432 149.026 91.0595 147.916 90.4328 148.763C90.2489 149.012 89.8486 149.613 90.2687 149.842C90.9832 150.232 91.4483 150.065 91.3988 149.216C91.3089 147.669 88.3268 149.178 90.4145 149.842" stroke="black" stroke-width="3" stroke-linecap="round"/>
<path d="M36.6604 181.003C35.4007 185.808 33.973 190.579 32.2341 195.208C31.123 198.165 29.2824 201.206 28.8354 204.365C28.4449 207.125 27.9111 209.852 27.4917 212.604C27.2792 213.999 27.3994 215.464 26.7804 216.714C26.4324 217.417 25.806 218.528 26.5037 218.729C27.2533 218.945 27.7625 219.786 28.6576 219.786C29.479 219.786 30.7897 219.896 31.5228 220.225C32.7251 220.765 34.3232 220.505 35.6724 220.505C38.5457 220.505 41.3349 221.051 44.1889 221.203C49.2632 221.473 54.2066 220.545 59.2461 220.545C64.2806 220.545 69.3625 221.125 74.3625 221.662C77.2444 221.971 79.9759 222.46 82.8988 222.22C85.8069 221.982 88.5882 221.075 91.4746 220.784C99.2785 219.996 107.144 219.912 114.969 219.407C121.149 219.009 127.397 217.273 133.583 217.273C134.588 217.273 133.942 217.808 133.484 216.475C132.724 214.256 131.831 211.991 131.271 209.731" stroke="black" stroke-width="3" stroke-linecap="round"/>
<path d="M79.7544 206.01C80.3298 208.12 81.7536 211.376 83.7223 212.361" stroke="black" stroke-width="3" stroke-linecap="round"/>
<path d="M87.2935 203.628C88.0534 205.74 89.912 206.658 91.6581 207.994" stroke="black" stroke-width="3" stroke-linecap="round"/>
<path d="M94.8325 197.674C96.5838 198.948 98.2635 199.212 100.388 199.659" stroke="black" stroke-width="3" stroke-linecap="round"/>
</svg>
