<svg width="311" height="333" viewBox="0 0 311 333" fill="none" xmlns="http://www.w3.org/2000/svg">
<path d="M163.3 103.512C128.836 85.4173 87.5475 78.2285 50.3443 89.6814C42.5015 92.0959 34.6496 95.4762 29.0541 101.49C16.8623 114.583 19.0459 134.91 16.4711 152.622C12.9318 177.041 -1.00684 200.384 2.58701 224.793C6.02619 248.127 26.2154 267.069 49.1979 272.226C63.8008 275.506 78.9859 273.894 93.9072 272.773C118.318 270.942 142.847 270.441 167.285 271.825C182.098 272.664 197.192 274.167 211.604 270.65C222.367 268.026 232.43 262.596 240.545 255.052C247.952 248.154 253.72 239.526 257.405 230.087C268.805 200.894 250.981 180.558 232.63 159.866C212.786 137.488 189.868 117.462 163.291 103.512H163.3Z" fill="#5EE96A" stroke="black" stroke-width="3" stroke-linecap="round" stroke-linejoin="round"/>
<path d="M63.5905 4.90892C69.1483 5.70402 82.2267 7.00709 88.0711 7.55924L66.8985 56.9214L54.6582 41.0195C52.2322 40.6882 47.4464 39.0318 47.711 35.0563C47.9757 31.0808 52.4528 29.4244 54.6582 29.0931C52.0117 29.2035 46.5202 27.8342 45.7262 21.4734C44.9322 15.1127 52.4529 14.4059 56.3125 14.8476C54.7687 14.0746 52.0121 11.866 53.3351 8.8844C54.6582 5.90282 56.6433 3.91505 63.5905 4.90892Z" fill="black" stroke="black" stroke-width="3"/>
<path d="M175.165 138.317C175.165 138.317 171.489 120.988 155.157 92.6333C138.826 64.279 101.495 70.3562 101.486 70.3562C95.2539 70.8938 89.1125 72.6796 82.0613 74.0463C78.2127 74.7934 74.5915 75.7774 71.2706 77.1168V77.0166C38.9805 86.1461 38.0343 128.195 43.3205 149.716C48.0698 169.041 67.7769 165.496 84.4814 160.194C93.9801 164.458 103.988 165.405 114.288 162.754C119.492 161.415 124.378 159.119 129.191 156.804C134.968 154.025 140.828 151.119 145.322 146.727C146.487 145.588 147.533 144.349 148.479 143.055L175.174 138.317H175.165Z" fill="white" stroke="black" stroke-width="3" stroke-miterlimit="10"/>
<path d="M94.7172 135.129C94.7809 133.552 94.9811 131.858 96.0456 130.701C97.1283 129.525 98.8206 129.197 100.395 128.924C101.35 128.76 102.314 128.596 103.27 128.441C103.825 128.35 104.416 128.259 104.944 128.45C106.427 129.006 106.299 131.092 106.108 132.669C105.362 138.928 108.037 145.005 109.529 151.137C109.83 152.367 110.075 153.661 109.757 154.882C109.356 156.394 108.11 157.561 106.709 158.253C100.267 161.415 99.0298 157.005 97.1465 151.547C95.3268 146.29 94.4898 140.696 94.7172 135.129Z" fill="white" stroke="black" stroke-width="3" stroke-linecap="round" stroke-linejoin="round"/>
<path d="M64.465 52.0697C60.0796 45.7373 58.269 37.7285 59.1607 30.075C60.0523 22.4215 63.5734 15.1507 68.7595 9.447C71.2888 6.66805 74.2822 4.208 77.8305 2.96886C83.8172 0.882372 90.3772 2.56796 96.4912 4.25355C97.483 4.52689 98.502 4.80934 99.3299 5.4198C101.559 7.05072 101.696 10.3035 101.332 13.046C100.404 20.089 97.6376 26.7858 94.0529 32.9177C90.8048 38.4665 86.7833 43.7055 81.4608 47.2953C79.077 48.908 66.6213 55.1766 64.465 52.0697Z" fill="white" stroke="black" stroke-width="3" stroke-linecap="round" stroke-linejoin="round"/>
<path d="M85.6563 12.1983C87.9946 10.6767 90.624 9.44668 93.4172 9.34645C95.8829 9.25534 98.2757 10.0571 100.614 10.8407C105.072 12.335 109.53 13.8292 113.989 15.3326C117.246 16.4259 120.73 17.6924 122.641 20.5534C124.406 23.2047 124.324 26.9586 122.45 29.528C120.576 32.0974 117.018 33.3092 113.961 32.4254C117.155 34.0836 117.673 38.8215 115.735 41.8556C113.798 44.8896 110.213 46.4477 106.692 47.1857C101.415 48.2973 95.9193 47.951 90.6149 48.9168C87.7125 49.4453 84.8466 50.3655 81.8987 50.3018C72.4637 50.0831 71.4447 39.8693 72.6184 32.6258C73.9376 24.4439 78.7052 16.7539 85.6654 12.2074L85.6563 12.1983Z" fill="black" stroke="black" stroke-width="3" stroke-linecap="round" stroke-linejoin="round"/>
<path d="M73.6368 63.322L76.2025 78.3557C76.2025 78.3557 80.4969 80.3602 91.0783 78.5561C101.669 76.743 101.387 71.5131 101.387 71.5131L100.031 65.035C100.031 65.035 117.818 61.4542 105.763 27.3779C105.763 27.3779 96.4191 26.649 94.3446 21.9932C94.3446 21.9932 89.0858 42.0289 76.9395 43.9332L72.0264 53.8098L73.6459 63.322H73.6368Z" fill="white" stroke="black" stroke-width="3" stroke-linecap="round" stroke-linejoin="round"/>
<path d="M66.5136 66.9188C74.0007 66.9188 80.0701 60.8407 80.0701 53.3429C80.0701 45.8452 74.0007 39.7671 66.5136 39.7671C59.0265 39.7671 52.957 45.8452 52.957 53.3429C52.957 60.8407 59.0265 66.9188 66.5136 66.9188Z" fill="white" stroke="black" stroke-width="3" stroke-linecap="round" stroke-linejoin="round"/>
<path d="M59.5718 41.6895C54.9043 44.4775 52.1748 49.9352 53.1392 55.6297C54.3584 62.773 60.9456 67.6384 68.0514 66.8184C71.0903 63.4837 72.6279 58.846 71.8091 54.0535C70.7082 47.5845 65.6677 42.801 59.5718 41.6986V41.6895Z" fill="white" stroke="black" stroke-width="3" stroke-linecap="round" stroke-linejoin="round"/>
<path d="M142.447 256.719C136.378 256.801 130.637 259.799 126.161 263.908C121.685 268.017 118.327 273.174 115.179 278.359C112.896 282.122 110.612 286.604 112.15 290.732C113.487 294.331 117.236 296.281 120.356 298.504C127.034 303.26 131.72 310.312 137.989 315.587C148.743 324.635 164.174 327.751 177.594 323.587C183.08 321.883 188.676 318.485 190.25 312.954C191.715 307.788 189.204 302.258 185.71 298.194C182.216 294.121 177.758 290.978 174.2 286.96C171.18 283.543 168.878 279.552 167.104 275.361C165.684 272.017 165.257 267.215 162.536 264.828C157.432 260.355 149.271 256.637 142.456 256.728L142.447 256.719Z" fill="#F5B5FF" stroke="black" stroke-width="3" stroke-linecap="round" stroke-linejoin="round"/>
<path d="M108.874 286.513C107.864 287.087 107.2 288.108 106.636 289.128C104.926 292.217 103.77 295.606 103.224 299.087C103.024 300.399 102.906 301.747 103.224 303.032C103.852 305.611 106.118 307.515 108.556 308.544C110.994 309.574 113.669 309.911 116.253 310.503C130.783 313.838 142.284 325.3 156.613 329.418C169.788 333.209 184.746 330.065 195.291 321.3C196.437 320.344 197.638 319.086 197.456 317.601C197.347 316.69 196.728 315.925 196.119 315.241C193.662 312.471 190.796 309.902 187.293 308.708C183.79 307.515 179.532 307.97 176.939 310.613C174.164 313.437 173.8 318.057 170.898 320.754C168.387 323.086 164.593 323.378 161.19 322.959C151.091 321.71 142.293 315.451 134.996 308.353C130.538 304.025 126.471 299.315 122.167 294.832C119.419 291.962 113.606 283.835 108.874 286.504V286.513Z" fill="#F5B5FF" stroke="black" stroke-width="3" stroke-linecap="round" stroke-linejoin="round"/>
<path d="M113.787 282.459C115.98 283.643 118.409 284.381 120.884 284.627C122.249 284.764 123.677 284.727 124.905 284.135C126.252 283.479 127.207 282.222 127.908 280.901C128.69 279.424 129.218 277.766 129.109 276.099C129.018 274.696 128.481 273.375 127.953 272.072C127.48 270.915 127.007 269.757 126.543 268.609" fill="#F5B5FF"/>
<path d="M113.787 282.459C115.98 283.643 118.409 284.381 120.884 284.627C122.249 284.764 123.677 284.727 124.905 284.135C126.252 283.479 127.207 282.222 127.908 280.901C128.69 279.424 129.218 277.766 129.109 276.099C129.018 274.696 128.481 273.375 127.953 272.072C127.48 270.915 127.007 269.757 126.543 268.609" stroke="black" stroke-width="3" stroke-linecap="round" stroke-linejoin="round"/>
<path d="M167.212 277.019C161.762 279.561 155.375 277.01 149.37 277.402C147.405 277.529 145.23 278.14 144.257 279.862C143.329 281.502 143.82 283.561 144.539 285.31C145.112 286.695 145.84 288.071 147.014 289.01C148.187 289.948 149.88 290.349 151.217 289.666C157.513 286.422 164.619 284.773 171.707 284.9C171.825 284.9 171.807 285.137 171.688 285.119" fill="#F5B5FF"/>
<path d="M167.212 277.019C161.762 279.561 155.375 277.01 149.37 277.402C147.405 277.529 145.23 278.14 144.257 279.862C143.329 281.502 143.82 283.561 144.539 285.31C145.112 286.695 145.84 288.071 147.014 289.01C148.187 289.948 149.88 290.349 151.217 289.666C157.513 286.422 164.619 284.773 171.707 284.9C171.825 284.9 171.807 285.137 171.688 285.119" stroke="black" stroke-width="3" stroke-linecap="round" stroke-linejoin="round"/>
<path d="M176.338 289.684C169.979 290.176 163.264 290.786 158.078 294.503C157.45 294.95 156.85 295.451 156.449 296.107C155.74 297.292 155.84 298.84 156.468 300.07C157.095 301.301 158.169 302.248 159.334 302.986C161.499 304.353 164.62 304.972 166.449 303.177C167.085 302.558 167.468 301.729 167.877 300.936C169.005 298.758 170.879 296.499 173.327 296.599C176.047 296.708 178.477 299.733 180.988 298.695C182.571 298.039 183.08 295.651 181.898 294.403" fill="#F5B5FF"/>
<path d="M176.338 289.684C169.979 290.176 163.264 290.786 158.078 294.503C157.45 294.95 156.85 295.451 156.449 296.107C155.74 297.292 155.84 298.84 156.468 300.07C157.095 301.301 158.169 302.248 159.334 302.986C161.499 304.353 164.62 304.972 166.449 303.177C167.085 302.558 167.468 301.729 167.877 300.936C169.005 298.758 170.879 296.499 173.327 296.599C176.047 296.708 178.477 299.733 180.988 298.695C182.571 298.039 183.08 295.651 181.898 294.403" stroke="black" stroke-width="3" stroke-linecap="round" stroke-linejoin="round"/>
<path d="M234.942 245.941C229.346 248.282 225.134 253.22 222.513 258.696C219.893 264.172 218.701 270.213 217.718 276.208C217 280.554 216.563 285.566 219.52 288.818C222.104 291.652 226.307 292.062 230.038 292.964C238.008 294.877 244.986 299.67 252.765 302.221C266.113 306.585 281.598 303.706 292.48 294.823C296.938 291.187 300.859 285.948 300.25 280.226C299.686 274.887 295.291 270.696 290.533 268.227C285.774 265.758 280.461 264.509 275.666 262.113C271.59 260.072 267.969 257.229 264.757 254.013C262.191 251.444 260.008 247.143 256.587 245.95C250.181 243.708 241.229 243.307 234.933 245.95L234.942 245.941Z" fill="#F5B5FF" stroke="black" stroke-width="3" stroke-linecap="round" stroke-linejoin="round"/>
<path d="M214.917 286.131C214.189 287.042 213.962 288.235 213.816 289.392C213.379 292.891 213.57 296.472 214.362 299.907C214.662 301.201 215.053 302.494 215.827 303.57C217.373 305.729 220.185 306.649 222.832 306.695C225.48 306.74 228.082 306.048 230.702 305.629C245.424 303.287 260.372 309.62 275.203 308.08C288.832 306.667 301.542 298.158 308.057 286.085C308.766 284.773 309.403 283.151 308.685 281.839C308.239 281.037 307.383 280.554 306.565 280.154C303.253 278.504 299.632 277.192 295.938 277.393C292.244 277.602 288.459 279.616 287.04 283.033C285.52 286.695 286.903 291.105 285.22 294.695C283.755 297.802 280.343 299.488 277.031 300.372C267.196 302.986 256.706 300.472 247.28 296.618C241.53 294.267 235.998 291.424 230.339 288.873C226.717 287.242 218.301 281.876 214.908 286.121L214.917 286.131Z" fill="#F5B5FF" stroke="black" stroke-width="3" stroke-linecap="round" stroke-linejoin="round"/>
<path d="M217.965 280.536C220.44 280.818 222.969 280.591 225.353 279.889C226.663 279.506 227.982 278.942 228.901 277.93C229.902 276.819 230.32 275.297 230.475 273.812C230.648 272.154 230.521 270.413 229.793 268.91C229.183 267.643 228.191 266.614 227.218 265.612C226.354 264.719 225.48 263.817 224.616 262.924" fill="#F5B5FF"/>
<path d="M217.965 280.536C220.44 280.818 222.969 280.591 225.353 279.889C226.663 279.506 227.982 278.942 228.901 277.93C229.902 276.819 230.32 275.297 230.475 273.812C230.648 272.154 230.521 270.413 229.793 268.91C229.183 267.643 228.191 266.614 227.218 265.612C226.354 264.719 225.48 263.817 224.616 262.924" stroke="black" stroke-width="3" stroke-linecap="round" stroke-linejoin="round"/>
<path d="M265.496 255.507C261.392 259.908 254.514 259.926 249.091 262.532C247.317 263.389 245.525 264.774 245.27 266.732C245.024 268.6 246.244 270.331 247.563 271.68C248.609 272.755 249.801 273.757 251.239 274.185C252.676 274.614 254.396 274.359 255.378 273.22C260.009 267.853 265.987 263.662 272.611 261.138C272.72 261.093 272.793 261.32 272.674 261.348" fill="#F5B5FF"/>
<path d="M265.496 255.507C261.392 259.908 254.514 259.926 249.091 262.532C247.317 263.389 245.525 264.774 245.27 266.732C245.024 268.6 246.244 270.331 247.563 271.68C248.609 272.755 249.801 273.757 251.239 274.185C252.676 274.614 254.396 274.359 255.378 273.22C260.009 267.853 265.987 263.662 272.611 261.138C272.72 261.093 272.793 261.32 272.674 261.348" stroke="black" stroke-width="3" stroke-linecap="round" stroke-linejoin="round"/>
<path d="M278.679 263.845C272.965 266.678 266.969 269.758 263.539 275.143C263.129 275.79 262.747 276.482 262.629 277.238C262.411 278.605 263.084 279.999 264.121 280.91C265.158 281.821 266.505 282.295 267.861 282.541C270.381 283.006 273.502 282.404 274.53 280.054C274.885 279.243 274.93 278.332 275.021 277.439C275.258 274.988 276.149 272.2 278.46 271.38C281.026 270.469 284.401 272.364 286.348 270.46C287.577 269.257 287.149 266.851 285.593 266.141" fill="#F5B5FF"/>
<path d="M278.679 263.845C272.965 266.678 266.969 269.758 263.539 275.143C263.129 275.79 262.747 276.482 262.629 277.238C262.411 278.605 263.084 279.999 264.121 280.91C265.158 281.821 266.505 282.295 267.861 282.541C270.381 283.006 273.502 282.404 274.53 280.054C274.885 279.243 274.93 278.332 275.021 277.439C275.258 274.988 276.149 272.2 278.46 271.38C281.026 270.469 284.401 272.364 286.348 270.46C287.577 269.257 287.149 266.851 285.593 266.141" stroke="black" stroke-width="3" stroke-linecap="round" stroke-linejoin="round"/>
<path d="M184.091 103.658C185.156 107.029 184.255 110.701 183.081 114.035C181.753 117.789 180.079 121.407 178.159 124.887C177.067 126.864 175.712 128.942 173.564 129.616C170.626 130.536 167.432 128.222 166.368 125.324C165.303 122.427 165.84 119.202 166.613 116.222C167.705 112.013 169.261 107.922 171.226 104.04C172.527 101.48 174.483 98.4369 177.695 98.4552C180.625 98.4643 183.245 100.979 184.091 103.658Z" fill="white" stroke="black" stroke-width="3" stroke-miterlimit="10"/>
<path d="M177.23 76.279L161.437 70.7465C158.026 69.5519 154.295 71.352 153.102 74.7671L141.238 108.73C140.045 112.145 141.843 115.882 145.253 117.076L161.047 122.609C164.457 123.803 168.189 122.003 169.382 118.588L181.245 84.6257C182.438 81.2106 180.64 77.4736 177.23 76.279Z" fill="white" stroke="black" stroke-width="3" stroke-linecap="round" stroke-linejoin="round"/>
<path d="M178.942 105.061L159.108 97.2978C157.616 96.7147 156.888 95.0382 157.47 93.544C158.052 92.0497 159.726 91.3208 161.219 91.904L181.053 99.6668" fill="white"/>
<path d="M178.942 105.061L159.108 97.2978C157.616 96.7147 156.888 95.0382 157.47 93.544C158.052 92.0497 159.726 91.3208 161.219 91.904L181.053 99.6668" stroke="black" stroke-width="3" stroke-linecap="round" stroke-linejoin="round"/>
<path d="M176.831 110.483L156.996 102.72C155.504 102.137 154.776 100.46 155.359 98.9659C155.941 97.4716 157.615 96.7427 159.107 97.3258L178.942 105.089" fill="white"/>
<path d="M176.831 110.483L156.996 102.72C155.504 102.137 154.776 100.46 155.359 98.9659C155.941 97.4716 157.615 96.7427 159.107 97.3258L178.942 105.089" stroke="black" stroke-width="3" stroke-linecap="round" stroke-linejoin="round"/>
<path d="M174.712 115.903L154.877 108.141C153.385 107.558 152.657 105.881 153.24 104.387C153.822 102.893 155.496 102.164 156.988 102.747L176.823 110.51" fill="white"/>
<path d="M174.712 115.903L154.877 108.141C153.385 107.558 152.657 105.881 153.24 104.387C153.822 102.893 155.496 102.164 156.988 102.747L176.823 110.51" stroke="black" stroke-width="3" stroke-linecap="round" stroke-linejoin="round"/>
<path d="M172.563 121.416L152.729 113.653C151.237 113.07 150.509 111.393 151.091 109.899C151.673 108.405 153.348 107.676 154.84 108.259L174.674 116.022" fill="white"/>
<path d="M172.563 121.416L152.729 113.653C151.237 113.07 150.509 111.393 151.091 109.899C151.673 108.405 153.348 107.676 154.84 108.259L174.674 116.022" stroke="black" stroke-width="3" stroke-linecap="round" stroke-linejoin="round"/>
<path d="M162.637 137.023C162.637 137.023 195.427 114.245 217.254 127.693C239.081 141.141 260.535 239.088 260.535 239.088L219.52 252.773C219.52 252.773 170.88 176.858 162.637 137.023Z" fill="white" stroke="black" stroke-width="3" stroke-linecap="round" stroke-linejoin="round"/>
<path d="M101.576 154.062L69.8172 164.332C69.8172 164.332 58.8405 206.985 96.9445 208.725C114.195 209.508 137.966 200.443 137.966 200.443L126.443 257.22L165.266 265.375C165.266 265.375 208.884 175.227 208.602 146.773C208.338 120.058 174.401 123.038 153.629 131.612L101.576 154.062Z" fill="white" stroke="black" stroke-width="3" stroke-linecap="round" stroke-linejoin="round"/>
<path d="M137.967 200.774L148.884 150.418" stroke="black" stroke-width="3" stroke-linecap="round" stroke-linejoin="round"/>
<path d="M120.584 257.958C120.948 255.68 121.531 253.083 123.559 251.981C125.343 251.015 127.535 251.625 129.483 252.199C141.993 255.935 155.058 257.812 168.114 257.73C169.088 257.73 170.098 257.721 170.971 258.158C173.2 259.279 173.182 262.45 172.654 264.891C171.945 268.208 170.689 271.725 167.796 273.493C165.557 274.859 162.782 274.905 160.162 274.823C147.543 274.458 134.978 272.372 122.913 268.645C117.236 266.887 119.856 262.513 120.584 257.949V257.958Z" fill="white" stroke="black" stroke-width="3" stroke-linecap="round" stroke-linejoin="round"/>
<path d="M215.781 256.664C215.089 254.459 214.443 251.88 215.763 249.994C216.927 248.327 219.156 247.89 221.158 247.534C234.014 245.266 246.533 241.074 258.17 235.152C259.034 234.715 259.944 234.25 260.909 234.25C263.402 234.25 264.803 237.093 265.431 239.516C266.277 242.796 266.732 246.514 264.939 249.384C263.556 251.616 261.091 252.892 258.707 254.003C247.261 259.343 235.097 263.115 222.641 265.192C216.772 266.167 217.164 261.083 215.772 256.673L215.781 256.664Z" fill="white" stroke="black" stroke-width="3" stroke-linecap="round" stroke-linejoin="round"/>
<path d="M89.495 158.116C87.6753 166.244 87.7663 173.259 89.3221 181.113C90.0045 184.576 91.2692 188.229 94.1989 190.188C98.193 192.858 103.579 191.382 107.91 189.314C126.453 180.457 139.509 162.982 157.214 152.54C160.044 150.873 163.638 149.388 166.476 151.037C169.861 153.005 169.752 157.916 168.76 161.697C166.358 170.881 161.354 179.355 160.025 188.758C159.671 191.254 159.798 194.252 161.863 195.691C163.119 196.566 164.793 196.621 166.085 197.423C167.886 198.543 168.578 200.921 168.296 203.035C168.014 205.149 166.949 207.053 165.903 208.903C157.296 224.119 148.68 239.325 140.073 254.541" stroke="black" stroke-width="3" stroke-linecap="round" stroke-linejoin="round"/>
<path d="M203.333 174.225C208.901 176.047 213.496 180.275 216.435 185.35C219.373 190.425 220.747 196.284 221.139 202.142C221.512 207.764 221.075 213.695 223.622 218.716C225.733 222.879 229.682 225.886 231.856 230.023C234.24 234.542 234.222 240.246 231.793 244.747" stroke="black" stroke-width="3" stroke-linecap="round" stroke-linejoin="round"/>
<path d="M137.607 255.061C134.632 258.423 132.512 262.541 131.502 266.923" stroke="black" stroke-width="3" stroke-linecap="round" stroke-linejoin="round"/>
<path d="M228.381 247.225C227.835 250.696 227.626 254.222 227.744 257.73" stroke="black" stroke-width="3" stroke-linecap="round" stroke-linejoin="round"/>
<path d="M104.443 51.7143C102.095 51.277 99.9389 49.6461 97.5643 50.0014C95.0076 50.3841 93.2971 53.1721 93.6702 55.6413C94.0432 58.1105 96.0721 60.1058 98.4377 61.099C102.568 62.8392 107.827 61.7003 110.848 58.4111C111.885 57.2905 112.677 55.8964 112.786 54.4113C113.177 48.7805 107.627 52.2975 104.452 51.7052L104.443 51.7143Z" fill="#F1662F" stroke="black" stroke-width="3" stroke-linecap="round" stroke-linejoin="round"/>
<path d="M92.1518 43.3775L91.5513 38.9494C91.3784 37.6465 91.6423 35.7969 92.9524 35.7969C93.9259 35.7969 94.4537 36.9085 94.7448 37.8287C95.1997 39.2501 95.6455 40.6714 96.1005 42.0928" stroke="black" stroke-width="3" stroke-linecap="round" stroke-linejoin="round"/>
<path d="M102.624 40.8813C103.743 41.7378 104.908 42.6398 105.499 43.9154C106.091 45.191 105.881 46.9677 104.671 47.6784C104.307 47.8971 103.889 47.9973 103.47 48.0975" stroke="black" stroke-width="3" stroke-linecap="round" stroke-linejoin="round"/>
<path d="M102.577 40.4711L102.086 36.043C102.013 35.3688 101.95 34.6308 102.414 34.0203C102.586 33.7925 102.887 33.5647 103.223 33.5921C103.551 33.6103 103.733 33.8654 103.869 34.0932C104.952 35.9701 105.598 38.0111 105.78 40.1158" stroke="black" stroke-width="3" stroke-linecap="round" stroke-linejoin="round"/>
<path d="M98.1387 55.0218C100.604 56.7893 103.789 57.2631 106.809 57.0809C108.056 57.008 109.311 56.8167 110.431 56.2609C111.55 55.7051 112.505 54.7302 112.787 53.5093" stroke="black" stroke-width="3" stroke-linecap="round" stroke-linejoin="round"/>
<path d="M94.1266 132.14C80.5973 129.106 65.949 131.356 53.9482 138.317" stroke="black" stroke-width="3" stroke-linecap="round" stroke-linejoin="round"/>
<path d="M71.0068 96.6792C74.355 107.813 75.7107 119.549 74.9919 131.147C75.0101 130.573 75.0283 129.999 75.0465 129.425" stroke="black" stroke-width="3" stroke-linecap="round" stroke-linejoin="round"/>
<path d="M106.454 131.575C112.013 128.086 118.136 125.489 124.514 123.922C126.58 123.411 128.781 123.02 130.792 123.712C132.794 124.395 134.295 126.054 135.56 127.758C137.425 130.281 138.972 133.042 140.136 135.958" stroke="black" stroke-width="3" stroke-linecap="round" stroke-linejoin="round"/>
<path d="M158.507 77.5172C159.185 77.5172 159.735 76.9665 159.735 76.2872C159.735 75.6078 159.185 75.0571 158.507 75.0571C157.828 75.0571 157.278 75.6078 157.278 76.2872C157.278 76.9665 157.828 77.5172 158.507 77.5172Z" fill="black" stroke="black" stroke-width="3" stroke-linecap="round" stroke-linejoin="round"/>
<path d="M162.136 81.1622C162.815 81.1622 163.365 80.6115 163.365 79.9322C163.365 79.2528 162.815 78.7021 162.136 78.7021C161.458 78.7021 160.908 79.2528 160.908 79.9322C160.908 80.6115 161.458 81.1622 162.136 81.1622Z" fill="black" stroke="black" stroke-width="3" stroke-linecap="round" stroke-linejoin="round"/>
<path d="M157.268 82.6837C157.947 82.6837 158.497 82.133 158.497 81.4537C158.497 80.7743 157.947 80.2236 157.268 80.2236C156.59 80.2236 156.04 80.7743 156.04 81.4537C156.04 82.133 156.59 82.6837 157.268 82.6837Z" fill="black" stroke="black" stroke-width="3" stroke-linecap="round" stroke-linejoin="round"/>
<path d="M129.034 84.8223C129.07 85.144 129.247 85.338 129.365 85.6321C133.284 95.401 136.644 105.404 140.429 115.227C142.06 119.461 143.603 123.765 145.318 127.964C146.023 129.69 146.593 131.433 147.358 133.135C147.558 133.581 147.56 134.48 147.56 133.522" stroke="black" stroke-width="3" stroke-linecap="round"/>
<ellipse cx="100.253" cy="141.141" rx="6.28556" ry="6.62579" fill="white" stroke="black" stroke-width="3"/>
</svg>
