<svg width="207" height="361" viewBox="0 0 207 361" fill="none" xmlns="http://www.w3.org/2000/svg">
<path d="M155.866 2H5.87081C3.73302 2 2 3.74127 2 5.88924V245.779C2 247.927 3.73302 249.669 5.87081 249.669H155.866C158.004 249.669 159.737 247.927 159.737 245.779V5.88924C159.737 3.74127 158.004 2 155.866 2Z" fill="white" stroke="black" stroke-width="3" stroke-linecap="round" stroke-linejoin="round"/>
<path d="M143.398 9.17529H10.0562C8.64982 9.17529 7.50977 10.3208 7.50977 11.7338V239.927C7.50977 241.34 8.64982 242.485 10.0562 242.485H143.398C144.804 242.485 145.944 241.34 145.944 239.927V11.7338C145.944 10.3208 144.804 9.17529 143.398 9.17529Z" fill="#B4E3FF" stroke="black" stroke-width="3" stroke-linecap="round" stroke-linejoin="round"/>
<path d="M76.7236 9.17529V242.272" stroke="black" stroke-width="3" stroke-linecap="round" stroke-linejoin="round"/>
<path d="M7.50977 66.6909H145.944" stroke="black" stroke-width="3" stroke-linecap="round" stroke-linejoin="round"/>
<path d="M7.50977 125.831H145.944" stroke="black" stroke-width="3" stroke-linecap="round" stroke-linejoin="round"/>
<path d="M7.50977 184.978H145.944" stroke="black" stroke-width="3" stroke-linecap="round" stroke-linejoin="round"/>
<path d="M7.50977 231.186L43.0422 195.477" stroke="black" stroke-width="3" stroke-linecap="round" stroke-linejoin="round"/>
<path d="M50.9888 242.273L70.7526 222.415" stroke="black" stroke-width="3" stroke-linecap="round" stroke-linejoin="round"/>
<path d="M76.7236 216.863L97.6582 195.829" stroke="black" stroke-width="3" stroke-linecap="round" stroke-linejoin="round"/>
<path d="M108.473 184.978L128.478 164.877" stroke="black" stroke-width="3" stroke-linecap="round" stroke-linejoin="round"/>
<path d="M136.066 155.871L145.6 146.284" stroke="black" stroke-width="3" stroke-linecap="round" stroke-linejoin="round"/>
<path d="M53.2866 184.978L68.4625 169.73" stroke="black" stroke-width="3" stroke-linecap="round" stroke-linejoin="round"/>
<path d="M76.7236 160.025L99.9558 136.682" stroke="black" stroke-width="3" stroke-linecap="round" stroke-linejoin="round"/>
<path d="M108.934 125.728L135.093 99.4443" stroke="black" stroke-width="3" stroke-linecap="round" stroke-linejoin="round"/>
<path d="M7.50977 112.582L46.1081 73.7998" stroke="black" stroke-width="3" stroke-linecap="round" stroke-linejoin="round"/>
<path d="M54.2085 66.6909L70.76 50.0532" stroke="black" stroke-width="3" stroke-linecap="round" stroke-linejoin="round"/>
<path d="M76.7236 44.0465L110.763 9.84473" stroke="black" stroke-width="3" stroke-linecap="round" stroke-linejoin="round"/>
<path d="M110.405 291.843C106.113 289.471 100.882 289.295 96.1121 290.398C91.3424 291.5 86.9304 293.792 82.6536 296.189C79.5532 297.922 76.1747 300.174 75.6103 303.697C75.1254 306.764 76.9776 309.639 78.2893 312.459C81.0875 318.473 81.5804 325.327 83.8857 331.549C87.8446 342.22 97.4476 350.583 108.521 353.011C113.053 354.001 118.331 353.849 121.63 350.575C124.707 347.523 125.144 342.619 124.309 338.354C123.474 334.089 121.59 330.095 120.692 325.838C119.929 322.219 119.897 318.489 120.311 314.831C120.636 311.908 122.25 308.353 121.288 305.582C119.476 300.39 115.231 294.511 110.405 291.843Z" fill="#FDE966" stroke="black" stroke-width="3" stroke-linecap="round" stroke-linejoin="round"/>
<path d="M74.9905 299.416C74.0525 299.416 73.178 299.871 72.3831 300.366C69.9585 301.86 67.7962 303.785 66.0314 306.021C65.3716 306.86 64.7515 307.762 64.4574 308.801C63.8691 310.869 64.7038 313.114 66.0155 314.823C67.3272 316.532 69.0681 317.826 70.6421 319.28C79.5217 327.443 83.0434 340.111 91.4699 348.746C99.2207 356.677 110.97 360.447 121.861 358.49C123.045 358.275 124.389 357.867 124.85 356.749C125.136 356.062 125.001 355.279 124.85 354.552C124.222 351.621 123.236 348.658 121.249 346.421C119.261 344.185 116.09 342.803 113.22 343.626C110.151 344.512 108.061 347.611 104.952 348.354C102.257 348.993 99.4751 347.683 97.2572 346.03C90.659 341.11 86.9705 333.186 84.6651 325.263C83.258 320.43 82.2643 315.486 81.0322 310.606C80.2452 307.483 79.3866 299.439 75.0064 299.423L74.9905 299.416Z" fill="#FDE966" stroke="black" stroke-width="3" stroke-linecap="round" stroke-linejoin="round"/>
<path d="M80.0542 298.529C81.1194 300.238 82.5345 301.732 84.18 302.89C85.0863 303.529 86.0959 304.08 87.2008 304.152C88.4012 304.232 89.5778 303.728 90.5953 303.073C91.7321 302.347 92.7576 301.388 93.3458 300.166C93.8387 299.144 93.9897 297.993 94.1328 296.867C94.26 295.861 94.3872 294.862 94.5144 293.856" stroke="black" stroke-width="3" stroke-linecap="round" stroke-linejoin="round"/>
<path d="M119.73 316.053C114.889 315.67 111.423 311.317 107.051 309.192C105.62 308.497 103.847 308.058 102.48 308.881C101.176 309.663 100.699 311.317 100.516 312.826C100.365 314.032 100.333 315.294 100.779 316.421C101.224 317.547 102.257 318.513 103.465 318.561C109.173 318.793 114.825 320.47 119.746 323.394C119.826 323.442 119.722 323.601 119.643 323.537" stroke="black" stroke-width="3" stroke-linecap="round" stroke-linejoin="round"/>
<path d="M121.106 328.625C116.447 326.429 111.487 324.177 106.367 324.72C105.755 324.784 105.127 324.895 104.587 325.199C103.617 325.75 103.076 326.884 103.021 328.002C102.965 329.121 103.346 330.215 103.871 331.197C104.849 333.027 106.797 334.712 108.792 334.177C109.484 333.993 110.08 333.562 110.684 333.17C112.345 332.084 114.555 331.245 116.233 332.292C118.093 333.458 118.602 336.557 120.78 336.829C122.155 336.996 123.459 335.519 123.125 334.169" stroke="black" stroke-width="3" stroke-linecap="round" stroke-linejoin="round"/>
<path d="M149.612 279.016C144.89 280.31 141.003 283.824 138.332 287.954C135.661 292.083 134.079 296.804 132.656 301.508C131.63 304.919 130.748 308.897 132.783 311.82C134.556 314.368 137.879 315.143 140.764 316.253C146.941 318.625 152.021 323.21 157.983 326.078C168.206 330.99 180.901 330.311 190.544 324.328C194.487 321.884 198.176 318.082 198.295 313.426C198.398 309.08 195.322 305.254 191.776 302.77C188.231 300.286 184.105 298.721 180.52 296.293C177.467 294.224 174.868 291.564 172.634 288.641C170.845 286.308 169.549 282.626 166.942 281.308C162.053 278.84 154.93 277.57 149.612 279.024V279.016Z" fill="#FDE966" stroke="black" stroke-width="3" stroke-linecap="round" stroke-linejoin="round"/>
<path d="M129.373 309.185C128.697 309.84 128.387 310.774 128.148 311.685C127.433 314.448 127.21 317.34 127.489 320.191C127.592 321.262 127.775 322.34 128.276 323.282C129.285 325.183 131.44 326.214 133.554 326.525C135.669 326.837 137.823 326.557 139.969 326.501C151.997 326.174 163.293 332.835 175.321 333.163C186.379 333.466 197.437 327.971 203.916 318.961C204.623 317.979 205.299 316.749 204.862 315.622C204.591 314.928 203.955 314.456 203.343 314.041C200.863 312.364 198.104 310.934 195.123 310.702C192.142 310.471 188.907 311.701 187.412 314.297C185.814 317.076 186.458 320.766 184.733 323.466C183.239 325.806 180.329 326.805 177.587 327.164C169.446 328.227 161.306 325.103 154.167 321.022C149.811 318.53 145.685 315.662 141.424 313.019C138.698 311.325 132.521 306.133 129.357 309.185H129.373Z" fill="#FDE966" stroke="black" stroke-width="3" stroke-linecap="round" stroke-linejoin="round"/>
<path d="M132.401 305.007C134.349 305.494 136.4 305.582 138.387 305.27C139.476 305.094 140.589 304.783 141.432 304.072C142.354 303.289 142.847 302.107 143.125 300.933C143.435 299.615 143.515 298.209 143.093 296.923C142.736 295.845 142.052 294.911 141.376 294C140.772 293.193 140.176 292.379 139.572 291.572" stroke="black" stroke-width="3" stroke-linecap="round" stroke-linejoin="round"/>
<path d="M173.063 289.919C169.319 293.018 163.81 292.307 159.199 293.833C157.689 294.336 156.115 295.255 155.702 296.796C155.312 298.266 156.107 299.791 157.013 301.005C157.737 301.98 158.587 302.906 159.692 303.41C160.797 303.913 162.204 303.881 163.111 303.074C167.379 299.256 172.602 296.517 178.159 295.191C178.254 295.167 178.286 295.358 178.183 295.366" stroke="black" stroke-width="3" stroke-linecap="round" stroke-linejoin="round"/>
<path d="M182.738 298.002C177.865 299.671 172.745 301.516 169.438 305.478C169.041 305.957 168.667 306.469 168.492 307.068C168.174 308.138 168.572 309.336 169.303 310.175C170.035 311.013 171.068 311.541 172.125 311.884C174.097 312.523 176.657 312.371 177.722 310.59C178.095 309.975 178.223 309.248 178.382 308.545C178.827 306.604 179.836 304.456 181.768 304.04C183.915 303.577 186.419 305.454 188.175 304.128C189.28 303.29 189.201 301.317 188.024 300.582" stroke="black" stroke-width="3" stroke-linecap="round" stroke-linejoin="round"/>
<path d="M172.769 180.899C168.572 178.271 164.407 178.886 160.686 180.052C156.505 181.362 152.546 183.295 148.802 185.683C146.679 187.033 144.477 188.806 144.095 192.273C143.579 197.001 146.925 202.944 150.558 205.452C154.191 207.96 157.904 207.848 161.282 207.273C166.052 206.458 170.591 204.853 174.804 202.489C177.587 200.931 180.798 198.383 180.162 192.952C179.582 188.007 176.108 182.983 172.769 180.899Z" fill="white" stroke="black" stroke-width="3" stroke-linecap="round" stroke-linejoin="round"/>
<path d="M136.369 181.49L183.454 188.119C183.454 190.26 181.729 192.001 179.59 192.001H126.312V183.279L136.369 181.49Z" fill="#F5B5FF" stroke="black" stroke-width="3" stroke-linecap="round" stroke-linejoin="round"/>
<path d="M101.653 77.9254C99.9911 76.2561 99.4585 73.2528 93.8859 71.6953C88.3133 70.1377 82.7645 71.9189 78.9964 76.0244C76.0312 79.2593 74.1472 82.3345 69.6557 83.5086C64.2103 84.9384 58.4787 85.3218 53.8838 88.964C49.5672 92.3826 48.51 97.1271 47.3414 102.223C46.8167 104.515 46.133 106.736 44.9486 108.773C43.5017 111.273 41.6892 113.621 40.5922 116.321C38.7559 120.866 40.2106 126.002 44.0264 129.021C48.9869 132.943 55.8792 131.705 61.7141 132.096C66.6428 132.423 71.6987 133.733 75.4668 137.136C78.7977 140.147 82.216 143.326 86.938 143.55C91.7236 143.781 95.8733 141.449 99.2757 138.302C102.018 135.762 104.292 133.901 107.917 132.951C111.868 131.92 115.159 130.538 118.021 127.455C121.662 123.525 123.403 118.941 122.282 113.645C121.359 109.268 119.658 105.242 119.293 100.753C118.887 95.7213 120.724 90.7931 119.69 85.7611C118.251 78.7402 110.031 73.4126 101.645 77.9095L101.653 77.9254Z" fill="black" stroke="black" stroke-width="3" stroke-linecap="round" stroke-linejoin="round"/>
<path d="M94.4186 128.933C99.1486 131.401 103.521 133.006 106.724 137.703C110.469 143.182 112.583 150.075 114.738 156.306C117.099 163.143 118.665 170.371 120.215 177.424C120.954 180.787 123.307 183.886 120.016 186.482C112.655 192.289 101.255 193.862 92.2722 193.663C88.4406 193.575 83.0587 193.183 80.4115 189.909C76.7865 185.436 77.2079 176.354 76.9455 170.986C76.2301 156.346 80.3797 143.725 89.5853 132.423C90.889 130.826 92.1132 128.581 94.4107 128.925L94.4186 128.933Z" fill="white" stroke="black" stroke-width="3" stroke-linecap="round" stroke-linejoin="round"/>
<path d="M96.7717 130.171C88.9971 126.121 80.1016 123.237 71.5876 121.185C60.3788 118.477 50.2351 121.975 41.5622 129.524C33.5888 136.465 28.1831 148.645 24.3117 158.318C20.5834 167.631 17.332 180.779 23.2226 189.868C27.2371 196.058 32.3328 198.095 39.5351 197.193C48.7645 196.035 58.3119 195.755 67.6128 195.715C77.1046 195.675 92.63 193.479 96.6445 183.055C99.0532 176.817 98.4491 168.119 98.1629 161.569C97.8529 154.412 98.3219 147.423 98.6319 140.306C98.7512 137.639 99.2122 132.255 96.7797 130.178L96.7717 130.171Z" fill="white" stroke="black" stroke-width="3" stroke-linecap="round" stroke-linejoin="round"/>
<path d="M112.321 243.025L49.0825 243.775L62.9227 225.085H115.517L112.321 243.025Z" fill="black" stroke="black" stroke-width="3" stroke-linecap="round" stroke-linejoin="round"/>
<path d="M81.7951 190.564C79.0525 190.859 78.186 186.115 78.2894 184.174C78.504 180.06 82.1052 177.041 85.0624 174.637C91.1358 169.708 100.763 166.721 107.464 171.809C110.851 174.373 113.299 179.437 110.628 183.431C107.655 187.864 98.8946 189.565 94.2679 190.412C89.9672 191.195 85.6824 190.284 81.7951 190.564Z" fill="white" stroke="black" stroke-width="3" stroke-linecap="round" stroke-linejoin="round"/>
<path d="M91.6445 176.753C94.6574 179.557 98.0439 185.3 97.5908 189.533" stroke="black" stroke-width="3" stroke-linecap="round" stroke-linejoin="round"/>
<path d="M96.772 174.277C100.866 177.704 101.462 183.247 103.744 187.672" stroke="black" stroke-width="3" stroke-linecap="round" stroke-linejoin="round"/>
<path d="M103.132 173.662C103.187 172.84 103.776 174.158 104.181 174.693C105.564 176.498 106.646 179.006 107.329 181.179C107.743 182.489 108.108 184.078 108.259 185.42" stroke="black" stroke-width="3" stroke-linecap="round" stroke-linejoin="round"/>
<path d="M27.2292 189.837C27.2292 189.837 5.686 215.564 23.5327 235.94C41.3794 256.316 120.771 230.58 120.771 230.58L137.386 287.85L167.547 280.741C167.547 280.741 179.852 191.155 135.852 186.522C91.851 181.889 27.2213 189.845 27.2213 189.845L27.2292 189.837Z" fill="white" stroke="black" stroke-width="3" stroke-linecap="round" stroke-linejoin="round"/>
<path d="M90.8018 294.879L120.159 302.339C120.159 302.339 175.909 204.677 126.312 206.53C97.6304 207.609 90.8018 294.871 90.8018 294.871V294.879Z" fill="white" stroke="black" stroke-width="3" stroke-linecap="round" stroke-linejoin="round"/>
<path d="M134.588 181.49H91.6601C90.6766 181.49 89.8794 182.291 89.8794 183.279C89.8794 184.267 90.6766 185.068 91.6601 185.068H134.588C135.571 185.068 136.368 184.267 136.368 183.279C136.368 182.291 135.571 181.49 134.588 181.49Z" fill="#F5B5FF" stroke="black" stroke-width="3" stroke-linecap="round" stroke-linejoin="round"/>
<path d="M183.453 188.127L138.364 182.128C136.305 181.857 135.065 179.7 135.852 177.767L149.398 144.548C149.946 143.214 151.314 142.407 152.744 142.599L198.391 148.669C199.758 148.853 200.593 150.291 200.068 151.577L185.695 186.825C185.33 187.72 184.415 188.247 183.469 188.119L183.453 188.127Z" fill="#F5B5FF" stroke="black" stroke-width="3" stroke-linecap="round" stroke-linejoin="round"/>
<path d="M68.4556 122.359L83.3133 93.3008C83.3133 93.3008 93.6635 85.3613 102.949 87.7416C112.234 90.1218 116.026 94.7306 113.339 108.309C110.652 121.888 98.0596 125.889 91.3184 123.094L87.2642 130.618C87.2642 130.618 73.3525 133.477 68.4556 122.359Z" fill="white" stroke="black" stroke-width="3" stroke-linecap="round" stroke-linejoin="round"/>
<path d="M69.7197 94.5631C69.7118 100.514 75.8011 103.565 81.1035 102.423C86.4058 101.281 88.0752 97.1431 92.1533 94.675C96.9866 91.7516 103.41 93.4768 107.973 90.0742C109.754 88.7483 110.533 87.1189 109.706 84.9383C108.736 82.3903 106.526 81.5916 104.181 80.7529" fill="black"/>
<path d="M69.7197 94.5631C69.7118 100.514 75.8011 103.565 81.1035 102.423C86.4058 101.281 88.0752 97.1431 92.1533 94.675C96.9866 91.7516 103.41 93.4768 107.973 90.0742C109.754 88.7483 110.533 87.1189 109.706 84.9383C108.736 82.3903 106.526 81.5916 104.181 80.7529" stroke="black" stroke-width="3" stroke-linecap="round" stroke-linejoin="round"/>
<path d="M82.2876 102.375C80.0538 99.0199 75.4828 99.4113 74.4256 103.485C73.5193 106.967 77.1681 110.338 80.5467 108.884" fill="white"/>
<path d="M82.2876 102.375C80.0538 99.0199 75.4828 99.4113 74.4256 103.485C73.5193 106.967 77.1681 110.338 80.5467 108.884" stroke="black" stroke-width="3" stroke-linecap="round" stroke-linejoin="round"/>
<path d="M108.29 116.76C106.224 114.707 100.961 114.364 99.0531 116.792C96.4457 120.099 100.683 121.896 103.664 123.078C106.645 124.26 110.842 119.979 108.29 116.76Z" fill="#F1662F" stroke="black" stroke-width="3" stroke-linecap="round" stroke-linejoin="round"/>
<path d="M102.957 118.9C103.585 119.204 104.26 119.332 104.856 119.731" stroke="black" stroke-width="3" stroke-linecap="round" stroke-linejoin="round"/>
<path d="M96.5488 99.2516C97.9241 97.4225 101.438 96.5519 103.306 97.9417" stroke="black" stroke-width="3" stroke-linecap="round" stroke-linejoin="round"/>
<path d="M109.118 98.2932C110.946 96.7437 114.134 96.6558 115.517 98.8923" stroke="black" stroke-width="3" stroke-linecap="round" stroke-linejoin="round"/>
<path d="M106.748 105.203C106.597 106.88 108.147 107.862 108.338 109.364C108.513 110.706 106.78 111.433 105.914 111.393" stroke="black" stroke-width="3" stroke-linecap="round" stroke-linejoin="round"/>
<path d="M100.461 102.463C99.9758 103.837 99.0537 105.434 97.9805 106.417C98.0361 106.313 98.1077 106.225 98.2031 106.153" stroke="black" stroke-width="3" stroke-linecap="round" stroke-linejoin="round"/>
<path d="M111.526 102.367C111.153 103.78 110.374 105.442 109.38 106.512C109.428 106.4 109.491 106.312 109.579 106.233" stroke="black" stroke-width="3" stroke-linecap="round" stroke-linejoin="round"/>
<path d="M165.464 198.064L160.543 180.036C160.178 178.686 158.786 177.887 157.435 178.255C156.091 178.622 155.297 180.02 155.662 181.378L160.583 199.406" fill="white"/>
<path d="M165.464 198.064L160.543 180.036C160.178 178.686 158.786 177.887 157.435 178.255C156.091 178.622 155.297 180.02 155.662 181.378L160.583 199.406" stroke="black" stroke-width="3" stroke-linecap="round" stroke-linejoin="round"/>
<path d="M170.36 196.714L165.44 178.686C165.074 177.336 163.683 176.537 162.331 176.905C160.988 177.272 160.193 178.67 160.559 180.028L165.479 198.055" fill="white"/>
<path d="M170.36 196.714L165.44 178.686C165.074 177.336 163.683 176.537 162.331 176.905C160.988 177.272 160.193 178.67 160.559 180.028L165.479 198.055" stroke="black" stroke-width="3" stroke-linecap="round" stroke-linejoin="round"/>
<path d="M175.257 195.364L170.337 177.336C169.971 175.987 168.58 175.188 167.228 175.555C165.885 175.923 165.09 177.32 165.456 178.678L170.376 196.706" fill="white"/>
<path d="M175.257 195.364L170.337 177.336C169.971 175.987 168.58 175.188 167.228 175.555C165.885 175.923 165.09 177.32 165.456 178.678L170.376 196.706" stroke="black" stroke-width="3" stroke-linecap="round" stroke-linejoin="round"/>
<path d="M180.242 193.99L175.321 175.963C174.955 174.613 173.564 173.814 172.213 174.182C170.869 174.549 170.074 175.947 170.44 177.305L175.361 195.332" fill="white"/>
<path d="M180.242 193.99L175.321 175.963C174.955 174.613 173.564 173.814 172.213 174.182C170.869 174.549 170.074 175.947 170.44 177.305L175.361 195.332" stroke="black" stroke-width="3" stroke-linecap="round" stroke-linejoin="round"/>
<path d="M36.0535 189.118C35.9025 195.34 32.9373 201.466 32.4285 207.768C32.2139 210.412 31.0851 216.187 33.7641 218.216C36.2602 220.101 40.6484 217.657 43.224 216.97C46.4833 216.091 47.4929 216.155 48.0096 219.645C48.4071 222.369 48.3117 224.709 51.4438 225.516C55.2755 226.507 59.8544 223.607 63.2727 222.305C68.8851 220.173 74.4498 217.984 80.0145 215.724C89.7526 211.77 100.477 209.438 110.684 207.049C118.912 205.132 127.179 202.417 135.693 202.137C142.641 201.905 143.396 206.842 142.76 212.792C142.911 212.808 143.205 212.609 143.142 212.609" stroke="black" stroke-width="3" stroke-linecap="round" stroke-linejoin="round"/>
<path d="M145.192 242.505C146.353 248.424 146.862 254.606 148.269 260.437" stroke="black" stroke-width="3" stroke-linecap="round" stroke-linejoin="round"/>
<path d="M149.088 266.212C150.209 271.132 150.479 276.484 151.147 281.468C151.258 282.291 151.417 283.976 151.338 284.351" stroke="black" stroke-width="3" stroke-linecap="round" stroke-linejoin="round"/>
<path d="M36.4272 136.057C36.4272 136.057 18.1273 180.132 31.5382 191.322C44.957 202.52 81.8826 186.673 81.8826 186.673L87.5745 171.761L52.8588 171.457C52.8588 171.457 64.2744 149.109 61.8816 136.137C59.4888 123.166 48.7251 122.287 36.4272 136.057Z" fill="white" stroke="black" stroke-width="3" stroke-linecap="round" stroke-linejoin="round"/>
</svg>
